<svg xmlns="http://www.w3.org/2000/svg" xmlns:xlink="http://www.w3.org/1999/xlink" viewBox="0 0 1921 1081"><defs><style>.cls-1,.cls-2{fill:none;}.cls-2{stroke:#37474f;stroke-linecap:round;stroke-linejoin:round;stroke-width:3.95px;}.cls-3{stroke-miterlimit:10;fill:url(#apolleta_motivo);stroke:url(#apolleta_motivo);}</style><pattern id="apolleta_motivo" data-name="apolleta_motivo" width="300" height="400" patternUnits="userSpaceOnUse" viewBox="0 0 300 400"><rect class="cls-1" width="300" height="400"/><path class="cls-2" d="M319.77,397a19.78,19.78,0,0,0-39.14-4,19.59,19.59,0,0,0,4.8,17.29,16.73,16.73,0,0,1,4.69,11.26v1.18h19.77v-1.17a16.84,16.84,0,0,1,4.73-11.32A19.49,19.49,0,0,0,319.77,397Z"/><line class="cls-2" x1="300" y1="357.49" x2="300" y2="365.4"/><line class="cls-2" x1="274.64" y1="366.56" x2="280.23" y2="372.15"/><path class="cls-2" d="M19.77,397a19.8,19.8,0,0,0-24-19.32A19.73,19.73,0,0,0-19.37,393a19.59,19.59,0,0,0,4.8,17.29,16.73,16.73,0,0,1,4.69,11.26v1.18H9.89v-1.17a16.84,16.84,0,0,1,4.73-11.32A19.49,19.49,0,0,0,19.77,397Z"/><line class="cls-2" y1="357.49" y2="365.4"/><line class="cls-2" x1="25.36" y1="366.56" x2="19.77" y2="372.15"/><path class="cls-2" d="M169.77,197a19.78,19.78,0,0,0-39.14-4,19.59,19.59,0,0,0,4.8,17.29,16.73,16.73,0,0,1,4.69,11.26v1.18h19.77v-1.17a16.84,16.84,0,0,1,4.73-11.32A19.49,19.49,0,0,0,169.77,197Z"/><path class="cls-2" d="M142.62,222.74h14.77a2.5,2.5,0,0,1,2.5,2.5v17.27a0,0,0,0,1,0,0H140.12a0,0,0,0,1,0,0V225.24A2.5,2.5,0,0,1,142.62,222.74Z"/><line class="cls-2" x1="140.12" y1="232.62" x2="159.89" y2="232.62"/><line class="cls-2" x1="150" y1="157.49" x2="150" y2="165.4"/><line class="cls-2" x1="124.64" y1="166.56" x2="130.23" y2="172.15"/><line class="cls-2" x1="175.36" y1="166.56" x2="169.77" y2="172.15"/><line class="cls-2" x1="150" y1="222.74" x2="150" y2="202.97"/><path class="cls-2" d="M319.77-3a19.8,19.8,0,0,0-24-19.32A19.73,19.73,0,0,0,280.63-7a19.59,19.59,0,0,0,4.8,17.29,16.73,16.73,0,0,1,4.69,11.26v1.18h19.77V21.57a16.84,16.84,0,0,1,4.73-11.32A19.49,19.49,0,0,0,319.77-3Z"/><path class="cls-2" d="M292.62,22.74h14.77a2.5,2.5,0,0,1,2.5,2.5V42.51a0,0,0,0,1,0,0H290.12a0,0,0,0,1,0,0V25.24a2.5,2.5,0,0,1,2.5-2.5Z"/><line class="cls-2" x1="290.12" y1="32.62" x2="309.89" y2="32.62"/><line class="cls-2" x1="300" y1="22.74" x2="300" y2="2.97"/><path class="cls-2" d="M19.77-3a19.8,19.8,0,0,0-24-19.32A19.73,19.73,0,0,0-19.37-7a19.59,19.59,0,0,0,4.8,17.29A16.73,16.73,0,0,1-9.88,21.56v1.18H9.89V21.57a16.84,16.84,0,0,1,4.73-11.32A19.49,19.49,0,0,0,19.77-3Z"/><path class="cls-2" d="M-7.38,22.74H7.39a2.5,2.5,0,0,1,2.5,2.5V42.51a0,0,0,0,1,0,0H-9.88a0,0,0,0,1,0,0V25.24a2.5,2.5,0,0,1,2.5-2.5Z"/><line class="cls-2" x1="-9.88" y1="32.62" x2="9.89" y2="32.62"/><line class="cls-2" y1="22.74" y2="2.97"/></pattern></defs><g id="Layer_2" data-name="Layer 2"><g id="Capa_1" data-name="Capa 1"><rect class="cls-3" x="0.5" y="0.5" width="1920" height="1080"/></g></g></svg>