<svg xmlns="http://www.w3.org/2000/svg" viewBox="0 0 1051.52 410.62"><defs><style>.cls-1{fill:#00f1ff;}.cls-2{fill:#707880;}.cls-3{font-size:21.75px;}.cls-15,.cls-3{fill:#606060;}.cls-15,.cls-26,.cls-3{font-family:Soleil;}.cls-4{letter-spacing:0.01em;}.cls-5{letter-spacing:0.01em;}.cls-6{letter-spacing:0.01em;}.cls-7{letter-spacing:0.01em;}.cls-8{letter-spacing:0em;}.cls-13,.cls-14,.cls-9{opacity:0.2;}.cls-10,.cls-11,.cls-12,.cls-13,.cls-14,.cls-23{fill:none;stroke:#606060;stroke-miterlimit:10;}.cls-10,.cls-11,.cls-12{stroke-width:0.9px;}.cls-11{stroke-dasharray:4.48 4.48;}.cls-12{stroke-dasharray:4.49 4.49;}.cls-13{stroke-width:0.99px;stroke-dasharray:4.97;}.cls-14{stroke-width:0.9px;stroke-dasharray:4.49;}.cls-15{font-size:15px;}.cls-16{letter-spacing:0.01em;}.cls-17{letter-spacing:0em;}.cls-18{letter-spacing:0em;}.cls-19{letter-spacing:-0.04em;}.cls-20{letter-spacing:0.01em;}.cls-21{letter-spacing:0.01em;}.cls-22{letter-spacing:0.01em;}.cls-23{stroke-width:0.9px;}.cls-24{fill:#fed443;}.cls-25,.cls-26{fill:#004b93;}.cls-26{font-size:24px;}.cls-27{letter-spacing:0.02em;}</style></defs><g id="Layer_2" data-name="Layer 2"><g id="Capa_3" data-name="Capa 3"><path class="cls-1" d="M89.54,341.28v-32.1l92.3,15.14L220.11,249l64.57-29.9,53.49,94.49L378,334.29l26.71-25.11,149.08,2,61,21.92L639,228.26l52.45-27,19.23,57.81,90.22,50,32.68,23.07,23.07,4.26,89.93,2.5L976,333.33l20.6-12.5,15-13.49V328.6c-2.8,3.31-43,11.69-43,11.69l-152,1-21.12-21a8.71,8.71,0,0,0-6.46-2.53L754.75,319a9.12,9.12,0,0,0-4.79,1.56c-5.79,3.9-21.73,14.09-26.39,11.39-5.73-3.31-22.79-71-30.81-68.74s-19,26.6-30.3,45.57-27.88,32.54-27.88,32.54H591.42s-15.14-7.2-21.51-8.6-32.34,3.56-39.18,1.91-24.47-10.7-29.31-10.57-26.61,16.16-26.61,16.16-89.24,4.85-101.46,1.1-17.44-17-29.65-18.66-24.2,3.44-34-.13-25.08-34.88-29.53-35-16.55,14.9-16.55,14.9-13.62,19.86-29,24.31-40.74,14.59-40.74,14.59Z"/><path class="cls-2" d="M193.73,341c3-1.12,6-2.16,9.14-3.05a28.51,28.51,0,0,1,4.83-1c1.71-.11,3.23-.09,4.85-.13l19.17-.3c6.37-.14,12.8-.18,19.07-.52l1.16-.08,1-.11a7.61,7.61,0,0,0,1.52-.72,45.22,45.22,0,0,0,3.72-2.61c2.5-1.91,5-3.92,7.59-5.87a51.45,51.45,0,0,1,8.47-5.44,14.51,14.51,0,0,1,2.68-1,8.71,8.71,0,0,1,1.62-.26,8.4,8.4,0,0,1,.86,0l.66,0c1.75.12,3.34.36,5,.59,6.45,1,12.75,2.42,19,4A176.41,176.41,0,0,1,340.57,338l-1.43-.36q40.73-.42,81.45.19l40.73.62,20.36.32,20.37.18q40.73.21,81.45-.47L665,336.89l-2.41,1.47c3.05-6,6.23-11.77,9.77-17.45,1.77-2.84,3.59-5.65,5.58-8.4a62.11,62.11,0,0,1,6.65-8,20.48,20.48,0,0,1,4.61-3.55,8.86,8.86,0,0,1,1.61-.7c.3-.1.59-.2.92-.28l1.08-.14a4.07,4.07,0,0,1,1.1,0A7.33,7.33,0,0,1,695,300a8.2,8.2,0,0,1,1.85.72,16,16,0,0,1,4.69,4.07,43,43,0,0,1,3.1,4.34c3.67,5.81,6.55,11.73,9.86,17.2a44.39,44.39,0,0,0,5.31,7.4,9.2,9.2,0,0,0,2.79,2.19c.19,0,.39.16.55.18s.21.07.63.08a18,18,0,0,0,2.08,0,46.63,46.63,0,0,0,9-1.55c3.07-.78,6.16-1.73,9.32-2.7,1.58-.48,3.18-1,4.84-1.41a33.42,33.42,0,0,1,5.41-1.12l.82-.06c.28,0,.62,0,.92,0s.72.06,1.07.1l.66.15.49.13a9.23,9.23,0,0,0,1.74.38c.66.08,1.57.16,2.47.28s1.82.28,2.69.46a86,86,0,0,1,9.94,2.87c3.19,1.09,6.3,2.28,9.41,3.48l-1.38-.26c18.86-.07,37.72,0,56.58,0s37.72.18,56.58.39l14.14.13,14.15.21,28.29.42,14.15.22,14.14.31c9.43.21,18.86.4,28.3.69v.7c-9.43.37-18.86.65-28.29.94l-14.14.43-14.14.35-28.29.67-14.14.33L896.4,343c-18.86.37-37.71.61-56.57.89s-37.72.42-56.58.52a3.81,3.81,0,0,1-1.35-.25h0c-3-1.17-6.07-2.34-9.11-3.38a78.47,78.47,0,0,0-9-2.63c-.73-.16-1.44-.28-2.17-.38s-1.46-.16-2.43-.28a17.4,17.4,0,0,1-3.08-.68c-.19-.07-.11,0-.1,0H756c-.06,0-.07,0-.16,0h-.32l-.41,0a32.32,32.32,0,0,0-4.25.88c-1.52.39-3.07.84-4.65,1.3-3.15.91-6.36,1.86-9.68,2.66a54.08,54.08,0,0,1-10.45,1.62,22.92,22.92,0,0,1-2.86-.05,12.84,12.84,0,0,1-1.81-.27,14.36,14.36,0,0,1-1.78-.62,15.93,15.93,0,0,1-5-3.83,51,51,0,0,1-6.11-8.67C705.17,324,702.33,318,699,312.67a37.37,37.37,0,0,0-2.58-3.72,10.25,10.25,0,0,0-2.62-2.48c-.2-.14-.31-.11-.43-.19s-.09,0-.13,0a.13.13,0,0,0-.12,0H693l-.27.09a3.12,3.12,0,0,0-.65.27,15.77,15.77,0,0,0-3.19,2.45,57.94,57.94,0,0,0-6.09,7.07c-1.92,2.55-3.73,5.23-5.5,7.95-3.5,5.44-6.86,11.08-9.94,16.76l0,.09a2.66,2.66,0,0,1-2.36,1.38l-81.46-1q-40.72-.4-81.45.07l-20.37.33-20.36.45-40.72.89q-40.73,1-81.45.74h0a3,3,0,0,1-1.4-.35,146.45,146.45,0,0,0-17.15-7.61c-5.88-2.23-11.89-4.19-18-5.91s-12.24-3.18-18.4-4.32c-1.52-.27-3.09-.54-4.52-.68l-.54-.06c-.17,0-.21,0-.33,0a4,4,0,0,0-.75.11,9.26,9.26,0,0,0-1.82.61,47.37,47.37,0,0,0-7.77,4.69c-2.57,1.81-5.1,3.75-7.76,5.62a47,47,0,0,1-4.25,2.71,9.45,9.45,0,0,1-2.89,1.09c-.48.06-.91.08-1.37.12l-1.24,0c-6.51.08-12.86-.11-19.27-.32s-12.79-.44-19.17-.73c-1.58-.06-3.25-.17-4.73-.17a30.25,30.25,0,0,0-4.6.68c-3.1.64-6.19,1.46-9.24,2.36Z"/><text class="cls-3" transform="translate(41.28 18.49)"><tspan class="cls-4">6</tspan><tspan class="cls-5" x="11.83" y="0">0</tspan><tspan x="24.12" y="0">0</tspan></text><text class="cls-3" transform="translate(42.3 99.74)"><tspan class="cls-4">4</tspan><tspan class="cls-6" x="11.92" y="0">5</tspan><tspan x="23.1" y="0">0</tspan></text><text class="cls-3" transform="translate(41.56 180.99)"><tspan class="cls-7">3</tspan><tspan class="cls-6" x="11.55" y="0">0</tspan><tspan x="23.84" y="0">0</tspan></text><text class="cls-3" transform="translate(46.74 262.24)">1<tspan class="cls-6" x="7.48" y="0">5</tspan><tspan class="cls-8" x="18.66" y="0">0</tspan></text><text class="cls-3" transform="translate(65.4 343.49)">0</text><g class="cls-9"><line class="cls-10" x1="71.29" y1="7.54" x2="73.53" y2="7.54"/><line class="cls-11" x1="78.01" y1="7.54" x2="1007.41" y2="7.54"/><polyline class="cls-10" points="1009.65 7.54 1011.89 7.54 1011.89 9.78"/><line class="cls-12" x1="1011.89" y1="14.27" x2="1011.89" y2="335.12"/><line class="cls-10" x1="1011.89" y1="337.36" x2="1011.89" y2="339.6"/></g><line class="cls-13" x1="81.29" y1="90.96" x2="1011.89" y2="91.55"/><line class="cls-13" x1="81.29" y1="175.96" x2="1011.89" y2="176.55"/><line class="cls-13" x1="81.29" y1="256.96" x2="1011.89" y2="257.55"/><line class="cls-14" x1="216.34" y1="345.65" x2="217.46" y2="7.54"/><line class="cls-14" x1="343.34" y1="345.65" x2="344.46" y2="7.54"/><line class="cls-14" x1="472.34" y1="345.65" x2="473.46" y2="7.54"/><line class="cls-14" x1="597.34" y1="345.65" x2="598.46" y2="7.54"/><line class="cls-14" x1="724.34" y1="345.65" x2="725.46" y2="7.54"/><line class="cls-14" x1="852.34" y1="345.65" x2="853.46" y2="7.54"/><text class="cls-15" transform="translate(51.28 359.71)">01-<tspan class="cls-16" x="20.31" y="0">09</tspan><tspan x="36.87" y="0">-</tspan><tspan class="cls-16" x="43.77" y="0">2</tspan><tspan x="51.55" y="0">0</tspan><tspan class="cls-16" x="59.8" y="0">2</tspan><tspan x="67.59" y="0">0</tspan></text><text class="cls-15" transform="translate(175.28 359.71)"><tspan class="cls-17">0</tspan><tspan class="cls-16" x="8.32" y="0">5</tspan><tspan x="15.96" y="0">-</tspan><tspan class="cls-16" x="22.86" y="0">09</tspan><tspan x="39.42" y="0">-</tspan><tspan class="cls-16" x="46.32" y="0">2</tspan><tspan x="54.1" y="0">0</tspan><tspan class="cls-16" x="62.35" y="0">2</tspan><tspan class="cls-18" x="70.14" y="0">0</tspan></text><text class="cls-15" transform="translate(305.28 359.71)"><tspan class="cls-16">09</tspan><tspan x="16.56" y="0">-</tspan><tspan class="cls-16" x="23.46" y="0">09</tspan><tspan x="40.02" y="0">-</tspan><tspan class="cls-16" x="46.92" y="0">2</tspan><tspan x="54.7" y="0">0</tspan><tspan class="cls-16" x="62.95" y="0">2</tspan><tspan class="cls-18" x="70.74" y="0">0</tspan></text><text class="cls-15" transform="translate(434.88 359.71)">1<tspan class="cls-16" x="5.16" y="0">3</tspan><tspan x="13.09" y="0">-</tspan><tspan class="cls-16" x="19.99" y="0">09</tspan><tspan x="36.55" y="0">-</tspan><tspan class="cls-16" x="43.45" y="0">2</tspan><tspan x="51.24" y="0">0</tspan><tspan class="cls-16" x="59.49" y="0">2</tspan><tspan x="67.27" y="0">0</tspan></text><text class="cls-15" transform="translate(558.28 359.71)">1<tspan class="cls-19" x="5.16" y="0">7</tspan><tspan x="11.34" y="0">-</tspan><tspan class="cls-16" x="18.24" y="0">09</tspan><tspan x="34.8" y="0">-</tspan><tspan class="cls-16" x="41.7" y="0">2</tspan><tspan x="49.48" y="0">0</tspan><tspan class="cls-16" x="57.73" y="0">2</tspan><tspan x="65.52" y="0">0</tspan></text><text class="cls-15" transform="translate(686.28 359.71)">21-<tspan class="cls-20" x="19.69" y="0">09</tspan><tspan x="36.25" y="0">-</tspan><tspan class="cls-16" x="43.15" y="0">2</tspan><tspan class="cls-18" x="50.94" y="0">0</tspan><tspan class="cls-16" x="59.19" y="0">2</tspan><tspan x="66.97" y="0">0</tspan></text><text class="cls-15" transform="translate(814.28 359.71)"><tspan class="cls-21">2</tspan><tspan class="cls-16" x="7.75" y="0">5</tspan><tspan x="15.39" y="0">-</tspan><tspan class="cls-20" x="22.29" y="0">09</tspan><tspan x="38.85" y="0">-</tspan><tspan class="cls-16" x="45.75" y="0">2</tspan><tspan x="53.53" y="0">0</tspan><tspan class="cls-16" x="61.78" y="0">2</tspan><tspan class="cls-18" x="69.57" y="0">0</tspan></text><text class="cls-15" transform="translate(972.88 359.71)"><tspan class="cls-22">3</tspan><tspan x="7.96" y="0">0-</tspan><tspan class="cls-20" x="23.11" y="0">09</tspan><tspan x="39.67" y="0">-</tspan><tspan class="cls-16" x="46.57" y="0">2</tspan><tspan class="cls-18" x="54.36" y="0">0</tspan><tspan class="cls-16" x="62.61" y="0">2</tspan><tspan x="70.39" y="0">0</tspan></text><polyline class="cls-23" points="89.19 7.54 89.19 340.7 1024.23 340.7"/><path class="cls-24" d="M1011.89,310.53c-27.79,23.92-46.16,29.9-64.17,31.57s-67.06-8.71-82.68-3.16-23.95-5.55-23.95-5.55S765,296.54,753.29,300.6c-10.69,3.7-20.66,13-30.19,12.95-2.87,0-26.5-94.35-28.8-97s-29.87,2-33,3.36c-7.46,3.27-24.38,105.12-30,112.9s-32.51,7.89-37.11,6.93S578.4,322,568.33,319.38s-24.21,13.07-35.87,9.19-53.89-17.32-61.66-17.49S447,334,438.47,333.87s-21.5-21.6-33.16-18.42-22.5,25.25-31,24.26-16.43-10.44-27.21-17.33S321.5,320.09,311.26,312s-16.61-80-30-83.4-32.33,13.61-37.28,20.15-15.19,44.34-25.44,57.77-14.67,15.9-21.19,20.67-42.85,12.2-54.15,7.3-54-20.47-54-20.47V268.15s21.9,20.29,31.3,20.55,26.62-54.41,33.27-57.59S169.64,257,187.26,256s55.47-148,71.53-144.07c20.37,2.25,43.11,137.33,43.11,137.33L337.82,313,367,332.59l13.63-3.28,16.53-39.94s1.44-9.48,9.6-14.41S432.72,293,432.72,293s4.74,5.91,10.75,5.19,13-56,24.59-56.87,27.47,58.4,27.47,58.4l12.68,10.95,29.2,9.22,29.36-36.69,31.69,31.88s8.22,8.11,25.39-14.78,21-162.13,39.92-215.9c29.09-13.58,48.49,127.65,48.49,127.65l24.16,59.24L814,309l38.87,27.47s16.69-8.87,29.33-13.06,40,9.14,56.21,15.91C975,345.65,1011.89,298,1011.89,298Z"/><path class="cls-25" d="M89.78,267.47a144.39,144.39,0,0,0,15.83,10.68,63,63,0,0,0,8.39,4.09,25.14,25.14,0,0,0,4.24,1.26,13.2,13.2,0,0,0,2,.23,6.63,6.63,0,0,0,.91,0l.43-.05.12,0,.06,0a3.53,3.53,0,0,0,1-.75,12.17,12.17,0,0,0,1.21-1.49,29.27,29.27,0,0,0,2.17-3.8c1.33-2.73,2.53-5.64,3.64-8.59,2.24-5.92,4.23-12,6.34-18.13,1-3.07,2.13-6.14,3.31-9.22a82.55,82.55,0,0,1,4.13-9.3,27.52,27.52,0,0,1,3.18-4.82,12.38,12.38,0,0,1,2.91-2.54,9,9,0,0,1,2.51-1,7.78,7.78,0,0,1,1.61-.16c.28,0,.56,0,.84,0s.32.05.49.08a17,17,0,0,1,6.29,2.38,23.38,23.38,0,0,1,2.46,1.75c.78.61,1.45,1.23,2.13,1.86a96.61,96.61,0,0,1,6.87,7.56c2.09,2.46,4.1,4.82,6.19,7,1,1.09,2.13,2.16,3.14,3.13a2.74,2.74,0,0,0,1.42.62A2.6,2.6,0,0,0,185,248a1.81,1.81,0,0,0,.57-.41,1.54,1.54,0,0,0,.25-.26s.19-.23.29-.35l.35-.45c7.58-9.36,13.4-20.34,18.22-31.81A317.2,317.2,0,0,0,216.86,179c3.52-12.21,6.58-24.62,10-37.17,1.75-6.28,3.51-12.59,5.79-19a90.6,90.6,0,0,1,4-9.76l.62-1.24.32-.63c.21-.36.42-.74.66-1.09a15,15,0,0,1,3.45-3.69,15.13,15.13,0,0,1,9.46-3.07,7.35,7.35,0,0,1,1.42.17h.08a33.49,33.49,0,0,1,10.05,4,41.68,41.68,0,0,1,8,6.36,67.76,67.76,0,0,1,11,15.19A126.22,126.22,0,0,1,289,145.12c2,5.41,3.82,10.84,5.42,16.29,6.26,21.8,10.15,43.7,14.24,65.33,2,10.81,4.07,21.57,6.58,32,.63,2.61,1.3,5.21,2,7.76s1.48,5.08,2.33,7.53a74.52,74.52,0,0,0,2.83,7.05l.81,1.63.85,1.55.92,1.47,1.13,1.63a118,118,0,0,0,9.8,12.44,130.17,130.17,0,0,0,11.28,11.25,118.16,118.16,0,0,0,12.53,9.77c1.1.74,2.19,1.46,3.31,2.11l1.68,1,1.69.9c1.13.64,2.26,1.08,3.39,1.62a23.42,23.42,0,0,0,3.3,1.07c.61.18.95.19,1.35.29a3.82,3.82,0,0,0,.48,0h.22a1.8,1.8,0,0,0,.22-.06,3.8,3.8,0,0,0,1.88-.94,17.68,17.68,0,0,0,3.93-5.35A101.39,101.39,0,0,0,387,306.66c1.67-5.21,3.26-10.53,5.16-15.85s4-10.69,7.64-15.69c.46-.62,1-1.22,1.49-1.82a9.64,9.64,0,0,1,2.37-1.88,8.94,8.94,0,0,1,2.91-1l.78-.09.7,0a10.54,10.54,0,0,1,1.38.06,15,15,0,0,1,4.89,1.44,26,26,0,0,1,4,2.4c4.85,3.52,8.58,7.75,12.47,11.53,1,.94,1.93,1.86,2.9,2.68a14.19,14.19,0,0,0,2.85,2,4.4,4.4,0,0,0,2.4.6,4.08,4.08,0,0,0,2.23-1.13,12.57,12.57,0,0,0,2.23-2.59,27.24,27.24,0,0,0,1.91-3.27,67.5,67.5,0,0,0,3.09-7.32c1.84-5.07,3.39-10.33,4.92-15.61s3-10.64,4.75-16c.89-2.68,1.85-5.35,3-8a35.08,35.08,0,0,1,2.09-4,14.52,14.52,0,0,1,3.41-3.93,7.66,7.66,0,0,1,3.06-1.4,7.16,7.16,0,0,1,3.49.19,8.81,8.81,0,0,1,2.78,1.44,13.22,13.22,0,0,1,1.94,1.85,32.74,32.74,0,0,1,4.69,7.89,147.33,147.33,0,0,1,5.63,16c1.61,5.33,3.12,10.65,4.67,15.93s3.11,10.51,4.92,15.57c.91,2.52,1.86,5,2.95,7.36l.82,1.75c.29.57.6,1.09.9,1.64a30.75,30.75,0,0,0,1.92,3l-.24-.29a29.25,29.25,0,0,0,8.28,5.71,50.24,50.24,0,0,0,10.07,3.58,35.55,35.55,0,0,0,10.16,1.13,15.92,15.92,0,0,0,2.06-.27,4.08,4.08,0,0,1,.67-.23c.08,0,.07,0,.07,0h0l.17-.14a10.21,10.21,0,0,0,1.38-1.28c.53-.55,1.09-1.22,1.64-1.89,2.2-2.76,4.36-6,6.56-9.17s4.43-6.52,7-9.82a56.93,56.93,0,0,1,4.26-5,29,29,0,0,1,2.78-2.49,15.58,15.58,0,0,1,4.09-2.33c.48-.16.94-.31,1.44-.44s1.15-.18,1.73-.23a10.3,10.3,0,0,1,2.08.13c.29.06.59.12.88.2l.43.11.35.12a16.19,16.19,0,0,1,4.18,2.28,42.85,42.85,0,0,1,5.16,4.58c3,3,5.56,6.08,8.12,9.07s5,5.93,7.5,8.61c.62.67,1.24,1.32,1.85,1.92.3.3.6.61.9.88l.22.21c.08.07.16.15.17.14l.14.11a1.76,1.76,0,0,0,1.13.31.65.65,0,0,0,.2-.05l.55-.19a16.12,16.12,0,0,0,1.78-.76,17.94,17.94,0,0,0,3.39-2.37,32,32,0,0,0,6-7.34,69.6,69.6,0,0,0,4.78-9.36,148.81,148.81,0,0,0,6.88-21.1,402.88,402.88,0,0,0,8.21-45.12c2-15.3,3.58-30.74,5.06-46.25s2.84-31.09,4.7-46.81c.95-7.88,2-15.77,3.59-23.88A97.39,97.39,0,0,1,648,90a37.53,37.53,0,0,1,3.32-7.18,19.94,19.94,0,0,1,3.6-4.34c.46-.4,1-.78,1.48-1.16a14.06,14.06,0,0,1,1.85-1.07c.34-.17.69-.32,1-.47s.78-.27,1.17-.39A13.9,13.9,0,0,1,662.9,75a8.14,8.14,0,0,1,4,.47l.35.13a52.73,52.73,0,0,1,17,10.66,65.7,65.7,0,0,1,11.94,15.19A97.66,97.66,0,0,1,703.68,118c1,2.8,1.85,5.6,2.72,8.41s1.57,5.61,2.21,8.41c2.72,11.19,4.56,22.29,6.23,33.29S718,190,719.78,200.7a300.23,300.23,0,0,0,6.53,31.39c.66,2.55,1.46,5,2.23,7.52.38,1.25.85,2.45,1.26,3.67l.65,1.83c.11.33.21.58.3.82l.29.74a29.44,29.44,0,0,0,7.22,10.3,27.76,27.76,0,0,0,5.1,3.72l.69.39.83.42,1.66.84c1.13.54,2.29,1.08,3.45,1.6,4.72,2.06,9.73,3.93,14.87,5.8s10.42,3.73,15.8,5.94c2.68,1.08,5.4,2.31,8.13,3.67.68.33,1.37.73,2.05,1.1s1.37.72,2.06,1.17L795,282.9c.66.46,1.31,1,2,1.43s1.35,1,1.91,1.45l1.75,1.47c1.2,1,2.25,2,3.33,3s2.13,2,3.14,3,2.05,2,3,3c4,4,7.76,8.05,11.55,12s7.56,7.86,11.41,11.52a103.59,103.59,0,0,0,11.78,10c1,.62,2,1.29,3,1.89l1.44.73c.44.22,1.07.57,1.22.61a4.39,4.39,0,0,0,1.67.3,5.45,5.45,0,0,0,.89-.08,5,5,0,0,0,1.1-.36,22.86,22.86,0,0,0,5.76-3A31.8,31.8,0,0,0,865,325a41.73,41.73,0,0,1,7-6.65l.56-.4.62-.36,1.24-.7a27.14,27.14,0,0,1,2.6-1.12,24.7,24.7,0,0,1,5.23-1.18c.43-.05.83-.12,1.3-.15l1.45-.05c.48,0,.93,0,1.39.05a11.44,11.44,0,0,1,1.35.13,30.93,30.93,0,0,1,4.92,1.06A62,62,0,0,1,901,319c5.21,2.51,10,5.23,14.81,7.7a105.41,105.41,0,0,0,14.49,6.4,53.35,53.35,0,0,0,7.39,1.95l1.86.31,1.87.22,1.86.12,2,0a62.56,62.56,0,0,0,15.54-1.54,57,57,0,0,0,14.58-5.67,83.55,83.55,0,0,0,13.14-9.17,184.32,184.32,0,0,0,22.63-23.64l1.44,1.07a169.79,169.79,0,0,1-21.1,25.85,88.73,88.73,0,0,1-13.22,10.72,63.13,63.13,0,0,1-15.73,7.29,70.26,70.26,0,0,1-17.14,2.82l-2.17.1H941l-2.26-.12c-.75-.07-1.49-.16-2.24-.24a62.25,62.25,0,0,1-8.69-1.79c-11.29-3.15-21.32-8.76-31-12.84-4.81-2-9.68-3.59-13-2.83a10.42,10.42,0,0,0-5,2.07,31.7,31.7,0,0,0-4.66,5,43.89,43.89,0,0,1-6.64,6.77,35.65,35.65,0,0,1-8.59,5.06,16.44,16.44,0,0,1-2.8,1,18,18,0,0,1-3.19.52,17.47,17.47,0,0,1-6.49-.75,21.75,21.75,0,0,1-2.56-1l-2.3-1.05c-1.42-.76-2.75-1.57-4.12-2.36a115.74,115.74,0,0,1-13.87-10.87c-4.28-3.79-8.31-7.68-12.28-11.55s-7.88-7.74-11.8-11.42c-1-.94-2-1.83-2.94-2.72s-2-1.79-2.93-2.61-2-1.71-2.94-2.43l-1.45-1.15c-.49-.4-.95-.65-1.42-1l-1.41-1-1.49-.86c-.47-.29-1-.55-1.55-.82s-1-.56-1.62-.81c-2.24-1-4.57-2-7-2.93-4.87-1.85-10-3.51-15.31-5.26s-10.66-3.58-16.1-5.82c-1.36-.57-2.73-1.16-4.09-1.78l-2.06-1-1-.49-1.13-.6a45.13,45.13,0,0,1-8.37-5.8,47.24,47.24,0,0,1-12-16.29l-.49-1.17c-.17-.39-.33-.79-.45-1.11l-.77-2.06c-.49-1.37-1.05-2.74-1.49-4.12-.92-2.76-1.85-5.51-2.62-8.28a318.2,318.2,0,0,1-7.53-33.21c-2-11-3.56-22-5.31-32.79s-3.55-21.45-6.07-31.68c-.59-2.58-1.32-5.06-2-7.58s-1.5-5-2.38-7.31a82.37,82.37,0,0,0-6-13.49,46.67,46.67,0,0,0-8.31-10.79,35.14,35.14,0,0,0-10.79-6.95l4.33.61a5.53,5.53,0,0,0,1-.19,10.14,10.14,0,0,0,.84-.33,3.4,3.4,0,0,0,.59-.35,3.27,3.27,0,0,0,.32-.25c.26-.25.1-.14-.1.17a19.3,19.3,0,0,0-1.59,3.43,79.73,79.73,0,0,0-2.74,10c-1.53,7.18-2.66,14.77-3.69,22.38-2,15.27-3.62,30.8-5.41,46.34s-3.64,31.16-6,46.78a402.91,402.91,0,0,1-9.51,46.84A156,156,0,0,1,630.13,292a77.91,77.91,0,0,1-6.23,11.28,46.44,46.44,0,0,1-9.23,10.34,31.78,31.78,0,0,1-6.37,4,26.88,26.88,0,0,1-3.66,1.41l-.94.29c-.42.1-.88.22-1.33.29a15.32,15.32,0,0,1-2.7.25,15.72,15.72,0,0,1-9.74-3.44c-.34-.27-.66-.55-1-.85s-.28-.26-.37-.35l-.3-.31c-.41-.4-.78-.8-1.16-1.2-.75-.8-1.45-1.59-2.13-2.38-2.72-3.16-5.11-6.3-7.51-9.37s-4.74-6.06-7.11-8.72a33.37,33.37,0,0,0-3.42-3.37c-.48-.4-1-.66-.87-.64h0l.07,0,.17,0a2.56,2.56,0,0,0,.62,0,.46.46,0,0,0,.28-.06s0,0,0,0a3,3,0,0,0-1,.53,15.64,15.64,0,0,0-1.64,1.35,45,45,0,0,0-3.54,3.77c-2.35,2.79-4.65,5.86-7,9s-4.7,6.33-7.51,9.55c-.72.81-1.45,1.61-2.32,2.43a19.51,19.51,0,0,1-3.07,2.5,10.15,10.15,0,0,1-1.07.62l-.65.3a3.73,3.73,0,0,1-.6.24c-.71.22-1.43.42-2.15.59l-1.93.26a16.42,16.42,0,0,1-1.82.09,44.67,44.67,0,0,1-13-1.94,59.79,59.79,0,0,1-11.76-4.77,37.52,37.52,0,0,1-10.5-8.07l-.12-.15a.83.83,0,0,1-.11-.15,36.54,36.54,0,0,1-2.39-4.07c-.34-.67-.7-1.35-1-2l-.86-2c-1.14-2.71-2.06-5.41-2.94-8.11-1.71-5.4-3.12-10.79-4.5-16.16s-2.68-10.72-4.11-16a139,139,0,0,0-5-15.35,26.34,26.34,0,0,0-3.55-6.41,7.54,7.54,0,0,0-1-1,2.77,2.77,0,0,0-.85-.49,1.73,1.73,0,0,0-.33-.08,2,2,0,0,0-.28,0,1.79,1.79,0,0,0-.66.3,9.27,9.27,0,0,0-2,2.3,29.16,29.16,0,0,0-1.78,3.29,76.26,76.26,0,0,0-2.91,7.42c-1.76,5.12-3.27,10.41-4.86,15.71s-3.15,10.64-5.1,15.94a72.89,72.89,0,0,1-3.37,7.9,35.79,35.79,0,0,1-2.26,3.88,17.75,17.75,0,0,1-3.16,3.66,11.23,11.23,0,0,1-1.05.82c-.39.24-.78.49-1.19.72s-.91.38-1.37.56-1,.22-1.49.32a8.4,8.4,0,0,1-3-.19c-.24-.05-.48-.1-.71-.17l-.63-.25c-.4-.17-.85-.33-1.21-.53a19.58,19.58,0,0,1-3.92-2.7c-1.13-1-2.18-1.94-3.19-2.92-2-1.95-4-3.9-5.92-5.75a54.51,54.51,0,0,0-6-5,13.7,13.7,0,0,0-6.13-2.68,4,4,0,0,0-.69,0h-.34l-.24,0a3,3,0,0,0-1,.37,3.57,3.57,0,0,0-.84.72c-.36.47-.74.91-1.09,1.4-2.81,4-4.71,9.08-6.37,14.18s-3,10.45-4.56,15.8A113.77,113.77,0,0,1,388.19,325a25.38,25.38,0,0,1-5.58,8.07,8,8,0,0,1-1.13.9,10.43,10.43,0,0,1-1.25.83c-.47.24-.94.47-1.42.68a13.11,13.11,0,0,1-1.54.48c-.27.07-.53.14-.8.19l-.8.08a10.82,10.82,0,0,1-1.59.06,19,19,0,0,1-2.73-.37,30.89,30.89,0,0,1-4.63-1.28c-1.39-.57-2.86-1.09-4.16-1.75l-2-1-1.93-1c-1.31-.67-2.55-1.4-3.79-2.14a130.27,130.27,0,0,1-14.11-9.85A140.1,140.1,0,0,1,328,307.39a129,129,0,0,1-11.36-13l-1.32-1.71-1.38-2-1.25-2-1.14-2a81.9,81.9,0,0,1-3.76-8.13,165.54,165.54,0,0,1-5.52-16.3c-3.16-10.86-5.63-21.72-8.08-32.53-4.83-21.59-9.12-43.14-15.23-63.75-3.05-10.26-6.61-20.33-11.35-29.21a51.88,51.88,0,0,0-8.2-11.66A20.75,20.75,0,0,0,249.27,119l1.5.19a.65.65,0,0,0,.45-.17,1,1,0,0,0,.15-.2s0,0,0-.06l-.23.45-.47.9a74.54,74.54,0,0,0-3.45,8c-2.12,5.67-3.93,11.74-5.72,17.82-3.58,12.22-7,24.73-10.86,37.16A320,320,0,0,1,216.85,220c-5.59,12-12.28,23.84-21.4,34.12l-.42.49c-.16.18-.22.27-.5.56a14.11,14.11,0,0,1-1.5,1.39,14.05,14.05,0,0,1-11.56,2.8,14,14,0,0,1-7-3.74c-1.27-1.3-2.41-2.54-3.53-3.84-2.23-2.59-4.26-5.23-6.21-7.77a88,88,0,0,0-5.76-7c-.48-.48-1-1-1.43-1.38a16.73,16.73,0,0,0-1.4-1.14,7.85,7.85,0,0,0-2.59-1.23s-.16-.05-.1,0a1,1,0,0,0,.24,0,1.84,1.84,0,0,0,.42-.07.55.55,0,0,0,.28-.11,2.55,2.55,0,0,0-.74.59,18.88,18.88,0,0,0-2.28,3.11,81.07,81.07,0,0,0-4.16,8.12c-1.31,2.85-2.56,5.77-3.8,8.72-2.47,5.91-4.87,11.91-7.57,17.88a96.44,96.44,0,0,1-4.51,8.89,35.23,35.23,0,0,1-3,4.34,17.15,17.15,0,0,1-2,2.09,8.2,8.2,0,0,1-3.12,1.72l-.53.11a3.35,3.35,0,0,1-.47.06l-.78,0a12.29,12.29,0,0,1-1.5-.06,18.33,18.33,0,0,1-2.75-.52,29.9,29.9,0,0,1-4.88-1.87,61.16,61.16,0,0,1-8.57-5.07,133.31,133.31,0,0,1-15.1-12.36Z"/><text class="cls-26" transform="translate(20.4 171.56) rotate(-90)">Visitas</text><text class="cls-26" transform="translate(476.18 402.75)">Visita<tspan class="cls-27" x="59.85" y="0">s</tspan><tspan x="71.16" y="0">/fecha</tspan></text></g></g></svg>