<svg id="Capa_1" data-name="Capa 1" xmlns="http://www.w3.org/2000/svg" xmlns:xlink="http://www.w3.org/1999/xlink" viewBox="0 0 1900.41 541.62"><defs><style>.cls-1{mask:url(#mask);}.cls-2{mix-blend-mode:multiply;fill:url(#linear-gradient);}.cls-3{fill:none;}.cls-4{clip-path:url(#clip-path);}.cls-5{opacity:0.15;fill:url(#Degradado_sin_nombre_9);}.cls-6{fill:url(#Degradado_sin_nombre_15);}.cls-7{mask:url(#mask-2);}.cls-8{fill:url(#linear-gradient-2);}.cls-9{filter:url(#luminosity-noclip-2);}.cls-10{filter:url(#luminosity-noclip);}</style><filter id="luminosity-noclip" x="11" y="-8732" width="1504.49" height="32766" filterUnits="userSpaceOnUse" color-interpolation-filters="sRGB"><feFlood flood-color="#fff" result="bg"/><feBlend in="SourceGraphic" in2="bg"/></filter><mask id="mask" x="11" y="-8732" width="1504.49" height="32766" maskUnits="userSpaceOnUse"><g class="cls-10"/></mask><linearGradient id="linear-gradient" x1="11" y1="-66.63" x2="1481.52" y2="-66.63" gradientTransform="matrix(1, 0, 0, -1, 0, 1051)" gradientUnits="userSpaceOnUse"><stop offset="0" stop-color="#262626"/><stop offset="0.32" stop-color="#1f1f1f"/><stop offset="0.81" stop-color="#0a0a0a"/><stop offset="1"/></linearGradient><clipPath id="clip-path" transform="translate(-11 -691.07)"><rect class="cls-3" y="582.6" width="1920" height="487.4"/></clipPath><linearGradient id="Degradado_sin_nombre_9" x1="11" y1="89.12" x2="1911.41" y2="89.12" gradientTransform="matrix(1, 0, 0, -1, 0, 1051)" gradientUnits="userSpaceOnUse"><stop offset="0" stop-color="#00b3ff"/><stop offset="1" stop-color="#00f1ff"/></linearGradient><linearGradient id="Degradado_sin_nombre_15" x1="11" y1="20.65" x2="1911.41" y2="20.65" xlink:href="#Degradado_sin_nombre_9"/><filter id="luminosity-noclip-2" x="11" y="1002.57" width="1504.49" height="230.13" filterUnits="userSpaceOnUse" color-interpolation-filters="sRGB"><feFlood flood-color="#fff" result="bg"/><feBlend in="SourceGraphic" in2="bg"/></filter><mask id="mask-2" x="0" y="311.5" width="1504.49" height="230.13" maskUnits="userSpaceOnUse"><g class="cls-9"><g transform="translate(-11 -691.07)"><g class="cls-1"><path class="cls-2" d="M11,1048.73v184H1515.49s-115.31-178.48-613.17-217.31C361.49,973.19,11,1048.73,11,1048.73Z"/></g></g></g></mask><linearGradient id="linear-gradient-2" x1="11" y1="-66.63" x2="1481.52" y2="-66.63" gradientTransform="matrix(1, 0, 0, -1, 0, 1051)" gradientUnits="userSpaceOnUse"><stop offset="0" stop-color="#fff"/><stop offset="1" stop-color="#fff"/></linearGradient></defs><g class="cls-4"><path class="cls-5" d="M11,691.07v541.62H1911.41V856.6S1474.64,972.26,939,927.92C397,883.05,11,691.07,11,691.07Z" transform="translate(-11 -691.07)"/><path class="cls-6" d="M11,828v404.69H1911.41V974.85S1474.64,989,939,947.93C397,906.39,11,828,11,828Z" transform="translate(-11 -691.07)"/><g class="cls-7"><path class="cls-8" d="M11,1048.73v184H1515.49s-115.31-178.48-613.17-217.31C361.49,973.19,11,1048.73,11,1048.73Z" transform="translate(-11 -691.07)"/></g></g></svg>