<svg xmlns="http://www.w3.org/2000/svg" viewBox="0 0 675.18 680.77"><defs><style>.cls-1{fill:none;stroke-width:10.64px;}.cls-1,.cls-2,.cls-3{stroke:#37474f;stroke-linecap:round;stroke-linejoin:round;}.cls-2{fill:#004b93;}.cls-2,.cls-3{stroke-width:5.04px;}.cls-3{fill:#fed443;}</style></defs><g id="Layer_2" data-name="Layer 2"><g id="Capa_1" data-name="Capa 1"><g id="University"><polyline class="cls-1" points="449.28 558.45 449.28 186.15 225.9 186.15 225.9 207.42"/><polyline class="cls-1" points="225.9 303.16 225.9 335.07 225.9 558.45"/><path class="cls-2" d="M204.63,228.7H13.16A10.63,10.63,0,0,0,2.52,239.33v31.92a10.63,10.63,0,0,0,10.64,10.63H204.63"/><path class="cls-2" d="M470.55,281.88H662a10.63,10.63,0,0,0,10.64-10.63V239.33A10.63,10.63,0,0,0,662,228.7H470.55"/><polygon class="cls-2" points="225.9 186.15 337.59 111.69 449.28 186.15 225.9 186.15"/><path class="cls-1" d="M204.63,281.88H18.48v351a10.63,10.63,0,0,0,10.63,10.63h133"/><path class="cls-1" d="M513.1,643.54h133a10.63,10.63,0,0,0,10.64-10.63v-351H470.55"/><line class="cls-1" x1="225.9" y1="239.33" x2="225.9" y2="271.25"/><rect class="cls-3" x="55.71" y="345.71" width="127.65" height="53.19"/><line class="cls-1" x1="119.53" y1="345.71" x2="119.53" y2="398.89"/><rect class="cls-3" x="55.71" y="462.71" width="127.65" height="53.19"/><line class="cls-1" x1="119.53" y1="462.71" x2="119.53" y2="515.9"/><rect class="cls-3" x="491.83" y="345.71" width="127.65" height="53.19"/><line class="cls-1" x1="555.65" y1="345.71" x2="555.65" y2="398.89"/><rect class="cls-3" x="491.83" y="462.71" width="127.65" height="53.19"/><line class="cls-1" x1="555.65" y1="462.71" x2="555.65" y2="515.9"/><circle class="cls-3" cx="337.59" cy="281.88" r="47.87"/><polyline class="cls-1" points="337.59 255.29 337.59 281.88 358.86 281.88"/><line class="cls-1" x1="337.59" y1="111.69" x2="337.59" y2="5.32"/><rect class="cls-1" x="337.59" y="15.96" width="74.46" height="53.19"/><path class="cls-3" d="M284.59,441.44h106a5.5,5.5,0,0,1,5.5,5.5V579.72a0,0,0,0,1,0,0h-117a0,0,0,0,1,0,0V446.94A5.5,5.5,0,0,1,284.59,441.44Z"/><rect class="cls-1" x="225.9" y="579.72" width="223.38" height="31.91"/><rect class="cls-1" x="199.31" y="611.63" width="276.56" height="31.91"/><rect class="cls-1" x="183.35" y="643.54" width="308.48" height="31.91"/></g></g></g></svg>