<svg xmlns="http://www.w3.org/2000/svg" viewBox="0 0 961.57 373.92"><defs><style>.cls-1,.cls-2{fill:#fff;}.cls-2{font-size:304px;font-family:BrandonGrotesque-Medium, Brandon Grotesque;font-weight:500;}</style></defs><g id="Layer_2" data-name="Layer 2"><g id="VTI_EOL_3" data-name="VTI/EOL 3"><g id="colores"><rect class="cls-1" x="345.23" y="138.08" width="1.37" height="29.67"/><rect class="cls-1" x="345.23" y="167.75" width="1.37" height="29.67"/><rect class="cls-1" x="345.23" y="197.42" width="1.37" height="29.67"/><rect class="cls-1" x="345.23" y="227.09" width="1.37" height="29.67"/></g><g id="vti"><path class="cls-1" d="M.77,140.94c-1.87-4.05-.31-7.47,4.36-7.47H32.22a5.74,5.74,0,0,1,5.61,3.42l25.22,57.92h.62l26.79-57.92c1.55-3.11,4-3.42,7.47-3.42h24.29c4.67,0,6.54,3.42,4.36,7.47L69.59,258a5.88,5.88,0,0,1-5.29,3.11H62.74A5.88,5.88,0,0,1,57.45,258Z"/><path class="cls-1" d="M156.26,166.16H145.67a5.85,5.85,0,0,1-5.61-5.91V139.38a5.66,5.66,0,0,1,5.61-5.91h10.59V98.9A6.13,6.13,0,0,1,162.17,93l25.54-.31a5.85,5.85,0,0,1,5.6,5.92v34.88h27.41a5.72,5.72,0,0,1,5.91,5.91v20.87a5.91,5.91,0,0,1-5.91,5.91H193.31V216c0,8.72,4.67,10,9.66,10,5.29,0,11.83-2.18,15.26-3.42s5.91.31,6.85,3.42l6.22,19.62a5.64,5.64,0,0,1-3.42,7.48c-1.56.93-21.8,8.09-37.06,8.09-24,0-34.56-14.95-34.56-40.17Z"/><path class="cls-1" d="M254.71,77.69a24.73,24.73,0,0,1,24.62-25,25,25,0,1,1,0,50A24.73,24.73,0,0,1,254.71,77.69Zm6.13,61.69a5.91,5.91,0,0,1,5.92-5.91H292.6a5.91,5.91,0,0,1,5.92,5.91V252.11A6.12,6.12,0,0,1,292.6,258H266.76a6.12,6.12,0,0,1-5.92-5.92Z"/></g><text class="cls-2" transform="translate(611.97 258.4)">eol</text><path class="cls-1" d="M564.52,204a7.13,7.13,0,0,0,7.12-7.13V163a28.58,28.58,0,0,0-28.5-28.5H421.28a28.58,28.58,0,0,0-28.5,28.5v68.77a28.59,28.59,0,0,0,28.5,28.51H543.14A28.59,28.59,0,0,0,571.64,232a7.13,7.13,0,0,0-14.25.12v-.71a14.3,14.3,0,0,1-14.25,14.25H421.28A14.3,14.3,0,0,1,407,231.43V162.66a14.29,14.29,0,0,1,14.25-14.25H543.14a14.29,14.29,0,0,1,14.25,14.25v34.2A7.13,7.13,0,0,0,564.52,204Z"/><path class="cls-1" d="M507.77,185.69,477.7,168.34a13.53,13.53,0,0,0-20.3,11.72v34.71a13.54,13.54,0,0,0,20.3,11.73l30.07-17.36A13.54,13.54,0,0,0,507.77,185.69ZM471.65,214V180.88l28.64,16.54Z"/></g></g></svg>