<svg xmlns="http://www.w3.org/2000/svg" xmlns:xlink="http://www.w3.org/1999/xlink" viewBox="0 0 1205.83 184.14"><defs><style>.cls-1{fill:#382f2d;}.cls-2{fill:none;stroke:#382f2d;stroke-miterlimit:10;stroke-width:2px;opacity:0.5;}.cls-3{fill:#245497;}.cls-4{fill:#cf4238;}.cls-5{fill:#278655;}.cls-6{fill:#f2cb59;}.cls-7{fill:url(#linear-gradient);}.cls-8{font-size:24.25px;fill:#383838;font-family:Wingdings3, "Wingdings 3";letter-spacing:0.01em;}</style><linearGradient id="linear-gradient" x1="779.43" y1="470.39" x2="920.7" y2="470.39" gradientTransform="matrix(1, 0, 0, -1, 0, 596.98)" gradientUnits="userSpaceOnUse"><stop offset="0" stop-color="#00b3ff"/><stop offset="1" stop-color="#00f1ff"/></linearGradient></defs><g id="Layer_2" data-name="Layer 2"><g id="Capa_7" data-name="Capa 7"><path class="cls-1" d="M439.06,82.53a.56.56,0,0,1,.54-.82h3.2a.57.57,0,0,1,.53.35l6,13.49h.22l6-13.49a.57.57,0,0,1,.53-.35h3.2a.55.55,0,0,1,.53.82l-9.72,21.11a.57.57,0,0,1-.54.35h-.31a.56.56,0,0,1-.53-.35Z"/><path class="cls-1" d="M461.09,84.51a2.14,2.14,0,0,1,2.13-2.17,2.17,2.17,0,1,1,0,4.33A2.14,2.14,0,0,1,461.09,84.51Zm.28,7.21a.6.6,0,0,1,.6-.59h2.6a.59.59,0,0,1,.6.59v11.36a.62.62,0,0,1-.6.6H462a.63.63,0,0,1-.6-.6Z"/><path class="cls-1" d="M474.65,90.81A5.75,5.75,0,0,1,479.29,93a.59.59,0,0,1-.16.88l-1.44,1.38c-.28.25-.57.09-.78-.09a3,3,0,0,0-2.17-1,3.15,3.15,0,0,0-3.07,3.2,3.1,3.1,0,0,0,3,3.2,3.27,3.27,0,0,0,2.51-1.19.58.58,0,0,1,.78-.09l1.35,1.16c.32.25.44.56.22.87a5.57,5.57,0,0,1-5,2.64A6.62,6.62,0,0,1,468,97.4,6.71,6.71,0,0,1,474.65,90.81Z"/><path class="cls-1" d="M487.76,90.81a5.76,5.76,0,0,1,5.87,5.84,8.09,8.09,0,0,1-.06.85.61.61,0,0,1-.6.53h-8a3,3,0,0,0,3,2.73,4.38,4.38,0,0,0,2.45-.79c.31-.18.59-.25.81,0l1.29,1.48a.51.51,0,0,1,0,.81,6.74,6.74,0,0,1-4.68,1.73,6.59,6.59,0,0,1,0-13.18Zm2.2,5a2.35,2.35,0,0,0-2.29-2.13,2.47,2.47,0,0,0-2.45,2.13Z"/><path class="cls-1" d="M496.27,91.72a.59.59,0,0,1,.59-.59h1.2a.56.56,0,0,1,.56.4l.44,1.23a4.37,4.37,0,0,1,3.54-2c1.48,0,2.8.47,2.42,1.26l-1.16,2a.57.57,0,0,1-.72.28,3.56,3.56,0,0,0-.91-.19A2.54,2.54,0,0,0,500,95.49v7.59c0,.44-.28.6-.72.6h-2.42a.62.62,0,0,1-.59-.6Z"/><path class="cls-1" d="M507,91.72a.59.59,0,0,1,.59-.59h1.2a.56.56,0,0,1,.56.4l.44,1.23a4.37,4.37,0,0,1,3.54-2c1.48,0,2.8.47,2.42,1.26l-1.16,2a.57.57,0,0,1-.72.28,3.56,3.56,0,0,0-.91-.19,2.54,2.54,0,0,0-2.23,1.29v7.59c0,.44-.28.6-.72.6h-2.42a.62.62,0,0,1-.59-.6Z"/><path class="cls-1" d="M523,90.81a5.76,5.76,0,0,1,5.87,5.84,8.09,8.09,0,0,1-.06.85.61.61,0,0,1-.6.53h-8a3,3,0,0,0,3,2.73,4.38,4.38,0,0,0,2.45-.79c.31-.18.59-.25.81,0l1.29,1.48a.51.51,0,0,1,0,.81,6.74,6.74,0,0,1-4.68,1.73,6.59,6.59,0,0,1,0-13.18Zm2.2,5a2.35,2.35,0,0,0-2.29-2.13,2.47,2.47,0,0,0-2.45,2.13Z"/><path class="cls-1" d="M537.25,90.81A5.75,5.75,0,0,1,541.89,93a.59.59,0,0,1-.16.88l-1.44,1.38c-.28.25-.56.09-.78-.09a3,3,0,0,0-2.17-1,3.15,3.15,0,0,0-3.07,3.2,3.1,3.1,0,0,0,3,3.2,3.25,3.25,0,0,0,2.51-1.19.58.58,0,0,1,.78-.09l1.35,1.16c.32.25.44.56.22.87a5.57,5.57,0,0,1-4.95,2.64,6.62,6.62,0,0,1-6.66-6.59A6.71,6.71,0,0,1,537.25,90.81Z"/><path class="cls-1" d="M545.56,94.42H544.5a.59.59,0,0,1-.57-.6v-2.1a.57.57,0,0,1,.57-.59h1.06V87.64a.62.62,0,0,1,.6-.59l2.57,0a.59.59,0,0,1,.57.59v3.52h2.76a.57.57,0,0,1,.59.59v2.1a.59.59,0,0,1-.59.6H549.3v5c0,.88.47,1,1,1a5,5,0,0,0,1.54-.34.49.49,0,0,1,.69.34l.62,2a.56.56,0,0,1-.34.75,11.66,11.66,0,0,1-3.73.82c-2.42,0-3.49-1.51-3.49-4Z"/><path class="cls-1" d="M561.19,90.81a6.59,6.59,0,1,1-6.43,6.56A6.55,6.55,0,0,1,561.19,90.81Zm0,9.79a3.12,3.12,0,0,0,3-3.23,3,3,0,1,0-3,3.23Z"/><path class="cls-1" d="M570.41,91.72a.6.6,0,0,1,.6-.59h1.19a.57.57,0,0,1,.57.4l.44,1.23a4.37,4.37,0,0,1,3.54-2c1.48,0,2.8.47,2.42,1.26l-1.16,2a.57.57,0,0,1-.72.28,3.56,3.56,0,0,0-.91-.19,2.54,2.54,0,0,0-2.23,1.29v7.59c0,.44-.28.6-.72.6H571a.63.63,0,0,1-.6-.6Z"/><path class="cls-1" d="M579.92,86.92l-.53-1.13a.44.44,0,0,1,.19-.59l5.11-3a.55.55,0,0,1,.82.1l.91,1.6a.59.59,0,0,1-.19.84l-5.49,2.42C580.27,87.3,580.08,87.2,579.92,86.92Zm1.19,4.8a.6.6,0,0,1,.6-.59h2.61a.59.59,0,0,1,.59.59v11.36a.62.62,0,0,1-.59.6h-2.61a.63.63,0,0,1-.6-.6Z"/><path class="cls-1" d="M592.79,95.74a8.22,8.22,0,0,1,2.29.34c0-1.6-.47-2.16-1.63-2.16a15.08,15.08,0,0,0-3.52.47c-.44.12-.66-.16-.72-.57l-.28-1.63a.6.6,0,0,1,.44-.78,16.44,16.44,0,0,1,4.26-.6c3.93,0,4.84,2,4.84,5.46v6.81a.63.63,0,0,1-.6.6h-1.13c-.22,0-.38-.1-.53-.44l-.38-.85A5.38,5.38,0,0,1,592,104a4,4,0,0,1-4.23-4.3C587.77,97.46,589.59,95.74,592.79,95.74Zm.06,5.58A2.91,2.91,0,0,0,595,100.1V98.37a5,5,0,0,0-1.76-.37c-1.23,0-2,.69-2,1.69A1.56,1.56,0,0,0,592.85,101.32Z"/><path class="cls-1" d="M446.72,126.34a6.37,6.37,0,0,1,3.86,1.25v-9.94a.39.39,0,0,1,.41-.41h.56a.41.41,0,0,1,.38.41v21.14a.42.42,0,0,1-.41.41h-.31a.4.4,0,0,1-.44-.41l-.1-1.1a6,6,0,0,1-4.33,1.82c-3.26,0-5.8-2.91-5.8-6.58S443.14,126.34,446.72,126.34Zm-.28,11.92a5,5,0,0,0,4.14-2.23v-7a6,6,0,0,0-3.74-1.31,4.93,4.93,0,0,0-4.92,5.24C441.92,135.84,443.8,138.26,446.44,138.26Z"/><path class="cls-1" d="M462,126.34a5.52,5.52,0,0,1,5.68,5.74c0,.5,0,1.22-.47,1.22h-10a5,5,0,0,0,4.89,5,6.74,6.74,0,0,0,3.71-1.16c.28-.19.4-.22.56,0l.31.44c.1.12.07.31-.12.5a7.6,7.6,0,0,1-4.55,1.47c-3.83,0-6.18-2.95-6.18-6.62S458.14,126.34,462,126.34Zm4.3,5.83c0-2.44-1.48-4.58-4.3-4.58a4.67,4.67,0,0,0-4.77,4.58Z"/><path class="cls-1" d="M481.58,121h-4.8a.6.6,0,0,1-.6-.59v-2.58a.6.6,0,0,1,.6-.59h13.71a.59.59,0,0,1,.6.59v2.58a.59.59,0,0,1-.6.59h-4.8v17.6a.61.61,0,0,1-.59.6h-2.92a.62.62,0,0,1-.6-.6Z"/><path class="cls-1" d="M496.42,126.34a5.75,5.75,0,0,1,5.87,5.83,8.09,8.09,0,0,1-.06.85.61.61,0,0,1-.6.53h-8a3,3,0,0,0,3,2.73,4.38,4.38,0,0,0,2.45-.78c.31-.19.6-.25.82,0l1.28,1.47a.52.52,0,0,1,0,.82,6.78,6.78,0,0,1-4.67,1.72,6.59,6.59,0,0,1,0-13.17Zm2.2,5a2.35,2.35,0,0,0-2.29-2.14,2.47,2.47,0,0,0-2.45,2.14Z"/><path class="cls-1" d="M510.64,126.34a5.74,5.74,0,0,1,4.64,2.22.59.59,0,0,1-.16.88l-1.44,1.38c-.28.25-.56.1-.78-.09a2.94,2.94,0,0,0-2.17-1,3.15,3.15,0,0,0-3.07,3.2,3.11,3.11,0,0,0,3,3.2,3.22,3.22,0,0,0,2.51-1.2.59.59,0,0,1,.79-.09l1.34,1.16c.32.25.44.56.22.88a5.58,5.58,0,0,1-4.95,2.63,6.61,6.61,0,0,1-6.65-6.58A6.7,6.7,0,0,1,510.64,126.34Z"/><path class="cls-1" d="M518.3,127.25a.59.59,0,0,1,.59-.6h1.19a.56.56,0,0,1,.54.38l.44,1.16a6.16,6.16,0,0,1,4.42-1.85c4,0,5.59,3,5.59,6.24v6a.62.62,0,0,1-.6.6H527.9a.6.6,0,0,1-.6-.6v-6.21c0-1.63-.85-2.66-2.35-2.66a3.14,3.14,0,0,0-3,2v6.9c0,.44-.19.6-.79.6h-2.32a.61.61,0,0,1-.59-.6Z"/><path class="cls-1" d="M540,126.34a6.59,6.59,0,1,1-6.43,6.55A6.54,6.54,0,0,1,540,126.34Zm0,9.79a3.13,3.13,0,0,0,3-3.24,3,3,0,1,0-3,3.24Z"/><path class="cls-1" d="M549.27,117.83a.61.61,0,0,1,.59-.59h2.64a.61.61,0,0,1,.59.59V138.6a.61.61,0,0,1-.59.6h-2.64a.61.61,0,0,1-.59-.6Z"/><path class="cls-1" d="M562.32,126.34a6.59,6.59,0,1,1-6.43,6.55A6.55,6.55,0,0,1,562.32,126.34Zm0,9.79a3.13,3.13,0,0,0,3-3.24,3,3,0,1,0-3,3.24Z"/><path class="cls-1" d="M572.58,134.75a4.7,4.7,0,0,1-.94-2.95,5.46,5.46,0,0,1,5.46-5.46h5.71a.58.58,0,0,1,.6.59v1a.55.55,0,0,1-.35.53l-1.76.57a4.07,4.07,0,0,1,1.26,3.2,5.1,5.1,0,0,1-5.37,4.92c-1.19,0-2-.25-2.51-.25a1.25,1.25,0,0,0-1.16,1.19,1.14,1.14,0,0,0,1.26,1.07h4c2.86,0,5.18,1.63,5.18,4.39s-2.32,5.34-6.87,5.34-6.4-2.29-6.4-4.3a3.55,3.55,0,0,1,1.88-3v-.1a3.38,3.38,0,0,1-2.35-3.29A4.12,4.12,0,0,1,572.58,134.75Zm4.49,11c1.75,0,2.92-.79,2.92-2,0-.56-.44-1.53-2.3-1.53a15,15,0,0,0-2,.12c-.38.13-1.35.57-1.35,1.54S575.37,145.79,577.07,145.79Zm.12-11.58a2.26,2.26,0,0,0,0-4.52,2.26,2.26,0,0,0,0,4.52Z"/><path class="cls-1" d="M584.85,122.45l-.53-1.13a.46.46,0,0,1,.18-.6l5.12-3a.55.55,0,0,1,.81.09l.91,1.6c.19.41.07.72-.18.85l-5.49,2.41C585.19,122.82,585,122.73,584.85,122.45Zm1.19,4.8a.6.6,0,0,1,.6-.6h2.6a.6.6,0,0,1,.6.6V138.6a.62.62,0,0,1-.6.6h-2.6a.62.62,0,0,1-.6-.6Z"/><path class="cls-1" d="M597.71,131.26a7.92,7.92,0,0,1,2.29.35c0-1.6-.47-2.17-1.63-2.17a15.06,15.06,0,0,0-3.51.47c-.44.13-.66-.15-.72-.56l-.29-1.63a.63.63,0,0,1,.44-.79,17.23,17.23,0,0,1,4.27-.59c3.92,0,4.83,2,4.83,5.46v6.8a.61.61,0,0,1-.59.6h-1.13c-.22,0-.38-.09-.54-.44l-.37-.85a5.38,5.38,0,0,1-3.83,1.6,4,4,0,0,1-4.24-4.29C592.69,133,594.51,131.26,597.71,131.26Zm.07,5.59a2.89,2.89,0,0,0,2.16-1.23V133.9a4.9,4.9,0,0,0-1.76-.38c-1.22,0-2,.69-2,1.7A1.56,1.56,0,0,0,597.78,136.85Z"/><path class="cls-1" d="M606.31,137.69l.85-1.69a.47.47,0,0,1,.72-.22,7,7,0,0,0,2.86.75c.62,0,1.06-.25,1.06-.78s-.44-.91-2.1-1.57c-2.42-.94-3.54-2.23-3.54-4.14s1.41-3.7,4.61-3.7a7.23,7.23,0,0,1,3.86,1,.67.67,0,0,1,.28.85l-.79,1.6a.6.6,0,0,1-.75.22,7.41,7.41,0,0,0-2.6-.66c-.76,0-1.07.31-1.07.72,0,.56.57.75,1.73,1.22,2.41.94,4.23,2,4.23,4.43,0,2.07-1.82,3.82-5,3.82a7,7,0,0,1-4.17-1.16A.54.54,0,0,1,606.31,137.69Z"/><path class="cls-1" d="M446.72,161.86a6.34,6.34,0,0,1,3.86,1.26v-10a.39.39,0,0,1,.41-.41h.56a.41.41,0,0,1,.38.41v21.15a.41.41,0,0,1-.41.4h-.31a.39.39,0,0,1-.44-.4l-.1-1.1a6,6,0,0,1-4.33,1.82c-3.26,0-5.8-2.92-5.8-6.59S443.14,161.86,446.72,161.86Zm-.28,11.92a5,5,0,0,0,4.14-2.22v-7a5.93,5.93,0,0,0-3.74-1.32,4.94,4.94,0,0,0-4.92,5.24C441.92,171.37,443.8,173.78,446.44,173.78Z"/><path class="cls-1" d="M462,161.86a5.53,5.53,0,0,1,5.68,5.74c0,.5,0,1.23-.47,1.23h-10a5,5,0,0,0,4.89,4.95,6.74,6.74,0,0,0,3.71-1.16c.28-.19.4-.22.56,0l.31.44c.1.13.07.32-.12.5A7.59,7.59,0,0,1,462,175c-3.83,0-6.18-2.95-6.18-6.62S458.14,161.86,462,161.86Zm4.3,5.84c0-2.45-1.48-4.58-4.3-4.58a4.67,4.67,0,0,0-4.77,4.58Z"/><path class="cls-1" d="M478.16,153.17a.42.42,0,0,1,.41-.41h.56a.42.42,0,0,1,.41.41v21.15a.36.36,0,0,1-.41.4h-.62a.36.36,0,0,1-.35-.4Z"/><path class="cls-1" d="M488.58,166.63a10.61,10.61,0,0,1,3.17.56c0-2.76-.28-4.14-2.76-4.14a9.29,9.29,0,0,0-3.77.85.33.33,0,0,1-.47-.25l-.16-.38a.33.33,0,0,1,.19-.47,9.19,9.19,0,0,1,4.3-.94c3.83,0,4,2.29,4,5.49v7a.41.41,0,0,1-.41.4h-.38c-.22,0-.31-.12-.38-.34l-.12-1.13a6.58,6.58,0,0,1-4.36,1.79,4,4,0,0,1-4.11-4.17C483.31,168.45,485.28,166.63,488.58,166.63Zm-1,7.18a5.73,5.73,0,0,0,4.17-1.94v-3.45a8.16,8.16,0,0,0-3.17-.66c-2.39,0-4,1.22-4,3.07A2.84,2.84,0,0,0,487.58,173.81Z"/><path class="cls-1" d="M505,153.36a.62.62,0,0,1,.6-.6h2.91a.62.62,0,0,1,.6.6v20.77a.61.61,0,0,1-.6.59h-2.91a.61.61,0,0,1-.6-.59Z"/><path class="cls-1" d="M513.43,162.77a.6.6,0,0,1,.6-.6h1.19a.54.54,0,0,1,.53.38l.44,1.16a6.19,6.19,0,0,1,4.43-1.85c4,0,5.58,3,5.58,6.24v6a.61.61,0,0,1-.59.59H523a.59.59,0,0,1-.59-.59v-6.21c0-1.64-.85-2.67-2.36-2.67a3.16,3.16,0,0,0-3,2v6.9c0,.44-.18.59-.78.59H514a.61.61,0,0,1-.6-.59Z"/><path class="cls-1" d="M530.35,165.47h-1.07a.6.6,0,0,1-.6-.6v-2.1a.58.58,0,0,1,.6-.6h1.07v-3.38c0-4.15,2.54-6.34,5.86-6.34a6.19,6.19,0,0,1,3.71,1.22.62.62,0,0,1,.12.72l-1.07,2a.54.54,0,0,1-.75.16,3.94,3.94,0,0,0-1.85-.63c-1.35,0-2.1,1-2.1,2.86v3.38h3.13a.58.58,0,0,1,.6.6v2.1a.6.6,0,0,1-.6.6h-3.13v8.66a.62.62,0,0,1-.6.59h-2.73a.61.61,0,0,1-.59-.59Z"/><path class="cls-1" d="M545.85,161.86a6.59,6.59,0,1,1-6.44,6.56A6.55,6.55,0,0,1,545.85,161.86Zm0,9.79a3.12,3.12,0,0,0,3-3.23,3,3,0,1,0-3,3.23Z"/><path class="cls-1" d="M555.07,162.77a.6.6,0,0,1,.6-.6h1.19a.59.59,0,0,1,.57.41l.43,1.23a4.38,4.38,0,0,1,3.55-1.95c1.47,0,2.79.47,2.42,1.26l-1.17,2a.56.56,0,0,1-.72.29,3.37,3.37,0,0,0-.91-.19,2.53,2.53,0,0,0-2.22,1.29v7.59c0,.44-.29.59-.73.59h-2.41a.61.61,0,0,1-.6-.59Z"/><path class="cls-1" d="M565.77,162.77a.6.6,0,0,1,.6-.6h1.16a.53.53,0,0,1,.53.35l.44,1.19a5.76,5.76,0,0,1,4.21-1.85,4.92,4.92,0,0,1,4.07,1.95,6.4,6.4,0,0,1,4.43-1.95c4,0,5.49,3,5.49,6.28v6a.59.59,0,0,1-.6.59h-2.54a.59.59,0,0,1-.59-.59v-6.21c0-1.64-.79-2.67-2.36-2.67a3.14,3.14,0,0,0-2.63,1.32s0,.62,0,1.19v6.37a.61.61,0,0,1-.6.59h-2.35a.59.59,0,0,1-.6-.59v-6.21c0-1.64-.72-2.67-2.32-2.67a2.76,2.76,0,0,0-2.63,2v6.9a.62.62,0,0,1-.6.59h-2.54a.61.61,0,0,1-.6-.59Z"/><path class="cls-1" d="M594.33,166.79a8.22,8.22,0,0,1,2.29.34c0-1.6-.47-2.16-1.63-2.16a15.08,15.08,0,0,0-3.52.47c-.44.12-.66-.16-.72-.57l-.28-1.63a.6.6,0,0,1,.44-.78,16.44,16.44,0,0,1,4.26-.6c3.93,0,4.84,2,4.84,5.46v6.81a.62.62,0,0,1-.6.59h-1.13c-.22,0-.38-.09-.53-.43l-.38-.85a5.38,5.38,0,0,1-3.83,1.6,4,4,0,0,1-4.23-4.3C589.31,168.51,591.13,166.79,594.33,166.79Zm.06,5.58a2.9,2.9,0,0,0,2.16-1.22v-1.73a4.92,4.92,0,0,0-1.75-.37c-1.23,0-2,.69-2,1.69A1.56,1.56,0,0,0,594.39,172.37Z"/><path class="cls-1" d="M609.32,161.86a5.72,5.72,0,0,1,4.65,2.23.59.59,0,0,1-.16.88l-1.44,1.38c-.28.25-.57.09-.79-.1a3,3,0,0,0-2.16-1,3.15,3.15,0,0,0-3.08,3.2,3.1,3.1,0,0,0,3,3.2,3.27,3.27,0,0,0,2.51-1.19.59.59,0,0,1,.78-.1l1.35,1.16c.32.26.44.57.22.88a5.59,5.59,0,0,1-5,2.64,6.63,6.63,0,0,1-6.65-6.59A6.71,6.71,0,0,1,609.32,161.86Z"/><path class="cls-1" d="M616.7,155.55a2.14,2.14,0,0,1,2.13-2.16,2.17,2.17,0,1,1,0,4.33A2.14,2.14,0,0,1,616.7,155.55Zm.28,7.22a.6.6,0,0,1,.6-.6h2.6a.6.6,0,0,1,.6.6v11.36a.61.61,0,0,1-.6.59h-2.6a.61.61,0,0,1-.6-.59Z"/><path class="cls-1" d="M630,161.86a6.59,6.59,0,1,1-6.43,6.56A6.55,6.55,0,0,1,630,161.86ZM627,158l-.53-1.13a.45.45,0,0,1,.19-.6l5.11-3a.56.56,0,0,1,.82.09l.91,1.6c.18.41.06.73-.19.85l-5.49,2.42C627.31,158.35,627.12,158.25,627,158Zm3,13.68a3.13,3.13,0,0,0,3-3.23,3,3,0,1,0-3,3.23Z"/><path class="cls-1" d="M639.23,162.77a.6.6,0,0,1,.6-.6H641a.54.54,0,0,1,.53.38l.44,1.16a6.19,6.19,0,0,1,4.43-1.85c4,0,5.58,3,5.58,6.24v6a.61.61,0,0,1-.6.59h-2.57a.6.6,0,0,1-.6-.59v-6.21c0-1.64-.84-2.67-2.35-2.67a3.16,3.16,0,0,0-3,2v6.9c0,.44-.19.59-.78.59h-2.32a.61.61,0,0,1-.6-.59Z"/><path class="cls-1" d="M140,84.56c-1.42-3.08-.24-5.69,3.32-5.69h20.6a4.36,4.36,0,0,1,4.26,2.61l19.18,44.05h.48l20.37-44c1.18-2.37,3.07-2.61,5.68-2.61h18.47c3.55,0,5,2.61,3.32,5.69l-43.34,89a4.47,4.47,0,0,1-4,2.37h-1.18a4.47,4.47,0,0,1-4-2.37Z"/><path class="cls-1" d="M259.55,103.74H251.5a4.46,4.46,0,0,1-4.27-4.5V83.37a4.31,4.31,0,0,1,4.27-4.5h8.05V52.58a4.65,4.65,0,0,1,4.5-4.49l19.42-.24a4.45,4.45,0,0,1,4.26,4.5V78.87h20.84a4.36,4.36,0,0,1,4.5,4.5V99.24a4.5,4.5,0,0,1-4.5,4.5H287.73v37.89c0,6.63,3.55,7.58,7.34,7.58,4,0,9-1.66,11.61-2.61a3.69,3.69,0,0,1,5.21,2.61l4.73,14.92a4.28,4.28,0,0,1-2.6,5.68c-1.19.71-16.58,6.16-28.18,6.16-18.24,0-26.29-11.37-26.29-30.55Z"/><path class="cls-1" d="M334.26,38.49a21.1,21.1,0,0,1,21-21.32,21.32,21.32,0,1,1,0,42.63A21.09,21.09,0,0,1,334.26,38.49Zm5.1,44.88a4.5,4.5,0,0,1,4.49-4.5h19.66a4.5,4.5,0,0,1,4.5,4.5V169.1a4.66,4.66,0,0,1-4.5,4.5H343.85a4.65,4.65,0,0,1-4.49-4.5Z"/><path class="cls-1" d="M31.9,51.38l3.39-12.92L25,30l13.34-.76L43.13,16.8,48,29.24,61.31,30,51,38.46l3.4,12.92L43.13,44.15Zm11.23-8.23L53,49.49,50,38.15l9.09-7.43-11.72-.66L43.13,19.13,38.88,30.06l-11.71.66,9.08,7.43-3,11.34Z"/><polygon class="cls-1" points="40.14 25.65 35.08 10.09 34.52 10.28 39.8 26.52 40.14 25.65"/><path class="cls-1" d="M39.8,26.94h0a.41.41,0,0,1-.39-.29L34.12,10.41a.43.43,0,0,1,.27-.54L35,9.69a.43.43,0,0,1,.53.27l5,15.56a.39.39,0,0,1,0,.28l-.33.87A.43.43,0,0,1,39.8,26.94Z"/><polygon class="cls-1" points="16.18 36.11 33.09 36.11 32.37 35.52 16.18 35.52 16.18 36.11"/><path class="cls-1" d="M33.09,36.53H16.18a.42.42,0,0,1-.42-.42v-.59a.42.42,0,0,1,.42-.42H32.37a.41.41,0,0,1,.26.09l.73.59a.44.44,0,0,1,.13.47A.43.43,0,0,1,33.09,36.53Z"/><polygon class="cls-1" points="38.58 29.65 38.73 29.26 22.57 7.01 22.09 7.36 38.3 29.67 38.58 29.65"/><path class="cls-1" d="M38.3,30.09a.41.41,0,0,1-.34-.18L21.75,7.61a.47.47,0,0,1-.08-.32A.46.46,0,0,1,21.84,7l.48-.34a.42.42,0,0,1,.59.09L39.08,29a.46.46,0,0,1,.05.41L39,29.8a.41.41,0,0,1-.37.27l-.29,0Z"/><polygon class="cls-1" points="43.13 17.96 43.43 18.72 43.43 0.42 42.84 0.42 42.84 18.72 43.13 17.96"/><path class="cls-1" d="M43.43,19.15a.43.43,0,0,1-.3-.13.42.42,0,0,1-.37.12.44.44,0,0,1-.35-.42V.42A.42.42,0,0,1,42.83,0h.6a.42.42,0,0,1,.42.42v18.3a.43.43,0,0,1-.34.42Z"/><polygon class="cls-1" points="51.79 29.88 65.11 20.21 64.76 19.73 50.86 29.83 51.79 29.88"/><path class="cls-1" d="M51.79,30.31h0l-.94-.06a.41.41,0,0,1-.38-.3.41.41,0,0,1,.15-.46l13.9-10.1a.43.43,0,0,1,.31-.07.41.41,0,0,1,.28.17l.35.48a.42.42,0,0,1-.1.59L52,30.23A.44.44,0,0,1,51.79,30.31Z"/><polygon class="cls-1" points="60.2 30.36 59.77 30.72 76.88 25.16 76.7 24.59 59.13 30.31 60.2 30.36"/><path class="cls-1" d="M59.77,31.14a.42.42,0,0,1-.37-.22.41.41,0,0,1,0-.18h-.24A.43.43,0,0,1,59,29.9l17.57-5.71a.45.45,0,0,1,.32,0,.4.4,0,0,1,.21.25l.18.56a.41.41,0,0,1-.27.53L59.9,31.12Z"/><polygon class="cls-1" points="35.4 29.83 21.5 19.73 21.16 20.21 34.47 29.88 35.4 29.83"/><path class="cls-1" d="M34.47,30.31a.44.44,0,0,1-.25-.08L20.91,20.56a.43.43,0,0,1-.1-.59l.35-.48a.46.46,0,0,1,.28-.17.42.42,0,0,1,.31.07l13.9,10.1a.42.42,0,0,1-.22.76l-.94.06Z"/><polygon class="cls-1" points="46.46 26.52 51.74 10.28 51.18 10.09 46.12 25.65 46.46 26.52"/><path class="cls-1" d="M46.46,26.94a.41.41,0,0,1-.39-.27l-.34-.87a.39.39,0,0,1,0-.28L50.78,10a.42.42,0,0,1,.53-.27l.56.18a.44.44,0,0,1,.25.21.42.42,0,0,1,0,.33L46.86,26.65a.41.41,0,0,1-.39.29Z"/><polygon class="cls-1" points="47.68 29.65 47.96 29.67 64.17 7.36 63.7 7.01 47.53 29.26 47.68 29.65"/><path class="cls-1" d="M48,30.09h0l-.28,0a.4.4,0,0,1-.37-.27l-.15-.38a.4.4,0,0,1,0-.41L63.35,6.76a.42.42,0,0,1,.59-.09l.48.34a.44.44,0,0,1,.1.6L48.31,29.91A.41.41,0,0,1,48,30.09Z"/><polygon class="cls-1" points="70.08 35.52 53.9 35.52 53.18 36.11 70.08 36.11 70.08 35.52"/><path class="cls-1" d="M53.18,36.53a.41.41,0,0,1-.4-.28.42.42,0,0,1,.13-.47l.72-.59a.44.44,0,0,1,.27-.09H70.08a.41.41,0,0,1,.42.42v.59a.42.42,0,0,1-.42.42Z"/><polygon class="cls-1" points="26.06 30.36 27.13 30.31 9.56 24.59 9.38 25.16 26.49 30.72 26.06 30.36"/><path class="cls-1" d="M26.49,31.14l-.13,0L9.25,25.56A.41.41,0,0,1,9,25l.18-.56a.44.44,0,0,1,.21-.25.44.44,0,0,1,.32,0L27.26,29.9a.45.45,0,0,1,.29.46.44.44,0,0,1-.4.37h-.24a.41.41,0,0,1-.05.18A.41.41,0,0,1,26.49,31.14Z"/><polygon class="cls-1" points="45.96 45.47 51.18 61.54 51.74 61.35 46.75 45.97 45.96 45.47"/><path class="cls-1" d="M51.18,62a.49.49,0,0,1-.2-.05.43.43,0,0,1-.2-.24L45.55,45.6a.44.44,0,0,1,.15-.47.44.44,0,0,1,.49,0l.78.51a.43.43,0,0,1,.18.22l5,15.38a.41.41,0,0,1-.27.53l-.56.19Z"/><polygon class="cls-1" points="43.13 43.65 42.84 43.84 42.84 71.21 43.43 71.21 43.43 43.84 43.13 43.65"/><path class="cls-1" d="M43.43,71.63h-.6a.42.42,0,0,1-.42-.42V43.84a.42.42,0,0,1,.2-.35l.29-.19a.43.43,0,0,1,.46,0l.29.19a.39.39,0,0,1,.2.35V71.21A.42.42,0,0,1,43.43,71.63Z"/><polygon class="cls-1" points="51.54 42.29 64.76 51.89 65.11 51.42 51.3 41.38 51.54 42.29"/><path class="cls-1" d="M64.76,52.32a.38.38,0,0,1-.25-.09l-13.22-9.6a.45.45,0,0,1-.16-.24l-.24-.9a.43.43,0,0,1,.66-.45l13.8,10a.42.42,0,0,1,.1.59l-.35.48a.41.41,0,0,1-.28.17Z"/><polygon class="cls-1" points="50.49 38.31 50.55 38.54 76.7 47.03 76.88 46.47 50.85 38.01 50.49 38.31"/><path class="cls-1" d="M76.7,47.46a.28.28,0,0,1-.13,0L50.42,38.94a.44.44,0,0,1-.28-.3l-.06-.23a.42.42,0,0,1,.15-.43l.35-.3a.41.41,0,0,1,.4-.07l26,8.46a.41.41,0,0,1,.27.53l-.18.56a.4.4,0,0,1-.21.25A.45.45,0,0,1,76.7,47.46Z"/><polygon class="cls-1" points="53.68 50.43 53.13 50.08 63.7 64.62 64.17 64.28 53.44 49.49 53.68 50.43"/><path class="cls-1" d="M63.69,65a.45.45,0,0,1-.34-.17L52.79,50.33a.44.44,0,0,1,0-.54.4.4,0,0,1,.22-.12V49.6a.42.42,0,0,1,.23-.49.41.41,0,0,1,.52.14L64.52,64a.45.45,0,0,1,.07.32.41.41,0,0,1-.17.27l-.48.35A.38.38,0,0,1,63.69,65Z"/><polygon class="cls-1" points="39.52 45.97 34.52 61.35 35.08 61.54 40.3 45.47 39.52 45.97"/><path class="cls-1" d="M35.08,62l-.12,0-.57-.19a.36.36,0,0,1-.24-.21.4.4,0,0,1,0-.32l5-15.38a.41.41,0,0,1,.17-.22l.79-.51a.42.42,0,0,1,.63.49L35.49,61.67A.44.44,0,0,1,35.08,62Z"/><polygon class="cls-1" points="34.96 41.38 21.16 51.42 21.5 51.89 34.73 42.29 34.96 41.38"/><path class="cls-1" d="M21.5,52.32h-.06a.46.46,0,0,1-.28-.17l-.35-.48a.43.43,0,0,1,.1-.59l13.8-10a.44.44,0,0,1,.49,0,.42.42,0,0,1,.17.45l-.24.91a.41.41,0,0,1-.16.23l-13.22,9.6A.38.38,0,0,1,21.5,52.32Z"/><polygon class="cls-1" points="35.77 38.31 35.41 38.01 9.38 46.47 9.56 47.03 35.71 38.54 35.77 38.31"/><path class="cls-1" d="M9.56,47.46a.45.45,0,0,1-.19-.05.44.44,0,0,1-.21-.25L9,46.6a.42.42,0,0,1,.27-.53l26-8.46a.41.41,0,0,1,.4.07L36,38a.41.41,0,0,1,.14.43l-.06.23a.44.44,0,0,1-.28.3L9.69,47.43A.28.28,0,0,1,9.56,47.46Z"/><polygon class="cls-1" points="32.58 50.43 32.83 49.49 22.09 64.28 22.57 64.62 33.13 50.08 32.58 50.43"/><path class="cls-1" d="M22.57,65a.38.38,0,0,1-.25-.08l-.48-.35a.41.41,0,0,1-.17-.27.46.46,0,0,1,.08-.32L32.49,49.25a.41.41,0,0,1,.52-.14.43.43,0,0,1,.23.49l0,.07a.4.4,0,0,1,.22.12.42.42,0,0,1,0,.54L22.91,64.87A.42.42,0,0,1,22.57,65Z"/><rect class="cls-1" x="42.96" y="18.04" width="0.34" height="25.62"/><path class="cls-1" d="M43.44,43.79h-.62V17.9h.62Zm-.34-.28h.06V18.18H43.1Z"/><polygon class="cls-1" points="50.4 38.46 26.04 30.54 26.15 30.22 50.51 38.14 50.4 38.46"/><path class="cls-1" d="M50.49,38.64l-24.62-8,.19-.58,24.63,8ZM26.22,30.45l24.09,7.83,0-.05L26.24,30.4Z"/><rect class="cls-1" x="35.14" y="34.17" width="25.61" height="0.34" transform="translate(-8.17 16.19) rotate(-17.68)"/><path class="cls-1" d="M35.73,38.64l-.2-.59,24.64-8,.19.58Zm.16-.41,0,.05L60,30.45l0-.05Z"/><polygon class="cls-1" points="53.51 50.49 38.46 29.77 38.73 29.57 53.78 50.29 53.51 50.49"/><path class="cls-1" d="M53.48,50.68,38.26,29.73l.5-.36L54,50.32ZM38.65,29.79l14.89,20.5.05,0L38.7,29.76Z"/><rect class="cls-1" x="27.33" y="39.86" width="25.61" height="0.34" transform="translate(-15.86 48.79) rotate(-53.81)"/><path class="cls-1" d="M32.78,50.68l-.5-.36L47.5,29.37l.5.36Zm-.11-.42,0,0,14.89-20.5,0,0Z"/><path class="cls-1" d="M44.26,184.14H42V183c0-1.68-3.81-2.06-5.14-2.06H6.32c-4,0-6.32-2.3-6.32-6.31V70.36H43.13v2.25H2.25v102c0,2.73,1.33,4.06,4.07,4.06H36.87c2.29,0,4.84.51,6.26,1.81,1.43-1.3,4-1.81,6.27-1.81H80c2.73,0,4.07-1.33,4.07-4.06v-102H43.13V70.36H86.27V174.64c0,4-2.31,6.31-6.32,6.31H49.4c-1.34,0-5.14.38-5.14,2.06Z"/><path class="cls-1" d="M54.79,87.49a.42.42,0,0,1-.34-.17l-3.3-4.61a4.45,4.45,0,0,1-.94.11,2.4,2.4,0,0,1-2.07-.95c-.88-1.29-.07-3.31,1.83-4.61a5.2,5.2,0,0,1,2.9-1,2.39,2.39,0,0,1,2.07,1,2.78,2.78,0,0,1-.36,3.16l1.82,2.8a.42.42,0,0,1,0,.47,7.59,7.59,0,0,0-1.18,3.46.42.42,0,0,1-.31.36ZM51.33,81.8a.43.43,0,0,1,.34.18l2.87,4a7.93,7.93,0,0,1,1-2.58l-1.83-2.81a.42.42,0,0,1,0-.49,2.16,2.16,0,0,0,.51-2.42,1.59,1.59,0,0,0-1.37-.58,4.45,4.45,0,0,0-2.42.84c-1.47,1-2.21,2.57-1.62,3.43a1.59,1.59,0,0,0,1.38.58,3.68,3.68,0,0,0,1-.15Z"/><path class="cls-1" d="M61.52,93.35h0a3.08,3.08,0,0,1-2.85-1.23,4.87,4.87,0,0,1-.16-4.51.42.42,0,0,1,.36-.24.41.41,0,0,1,.38.19l3.33,5.11a.44.44,0,0,1,0,.43.39.39,0,0,1-.35.22ZM59,88.73a3.73,3.73,0,0,0,.38,2.94c.36.58,1,.83,2.07.83Z"/><path class="cls-1" d="M61.69,84.66a.56.56,0,1,1-.56-.56A.56.56,0,0,1,61.69,84.66Z"/><path class="cls-1" d="M61.13,85.5a.84.84,0,1,1,.84-.84A.83.83,0,0,1,61.13,85.5Zm0-1.12a.28.28,0,1,0,.28.28A.27.27,0,0,0,61.13,84.38Z"/><path class="cls-1" d="M31.32,123.2H1.16v1.41H31A13.17,13.17,0,0,1,31.32,123.2Z"/><path class="cls-1" d="M54.94,123.2a13.17,13.17,0,0,1,.34,1.41H85.45V123.2Z"/><path class="cls-1" d="M43.13,114.47l.71,0V71.59H42.43v42.9Z"/><path class="cls-1" d="M43.13,139.17l-.7,0v42.6h1.41v-42.6Z"/><path class="cls-1" d="M52.16,132.43H34.1l-.36-.64,9-15.64h.73l9,15.64Zm-17.33-.85h16.6l-8.3-14.37Z"/><path class="cls-1" d="M47.66,117.82a.39.39,0,0,1-.18,0,19.85,19.85,0,0,0-2.75-.65,2,2,0,0,1-1.38-.8.61.61,0,0,1,0-.56,1.06,1.06,0,0,1,.61-.44,6.27,6.27,0,0,1-.47-.52.91.91,0,0,1-.05-.85c.22-.53.89-.89,2-1.09,1.56-.28,2.37.93,3,1.8a2.9,2.9,0,0,0,.76.9.43.43,0,0,1,.2.57.43.43,0,0,1-.57.2,3.21,3.21,0,0,1-1.09-1.2c-.65-1-1.16-1.61-2.1-1.44-1.11.19-1.35.49-1.4.58a.1.1,0,0,0,0,.08l.9.91a.44.44,0,0,1,.1.44.43.43,0,0,1-.35.28,3,3,0,0,0-.55.12,2,2,0,0,0,.57.19,19.64,19.64,0,0,1,3,.72.42.42,0,0,1-.18.8Z"/><path class="cls-1" d="M48,117.08l-.29.32a21.61,21.61,0,0,0-2.86-.69,1.54,1.54,0,0,1-1.07-.58.17.17,0,0,1,0-.17h-.6A10.88,10.88,0,1,0,48,117.08Zm-4.82,19.77a10,10,0,1,1,10-10A10,10,0,0,1,43.13,136.85Z"/><path class="cls-1" d="M48.2,115.1A2.53,2.53,0,0,0,49,116l-.29.33a11.92,11.92,0,1,1-5.57-1.39c.35,0,.7,0,1,0a3.85,3.85,0,0,1-.34-.37.46.46,0,0,1,0-.5l-.73,0a12.77,12.77,0,1,0,5.07,1Z"/><path class="cls-1" d="M45.81,114.43a.26.26,0,1,1-.26-.25A.26.26,0,0,1,45.81,114.43Z"/><path class="cls-1" d="M45.55,115a.54.54,0,0,1-.54-.54.54.54,0,0,1,.54-.54.55.55,0,0,1,.54.54A.54.54,0,0,1,45.55,115Z"/><path class="cls-1" d="M43.13,130.39a3.52,3.52,0,1,1,3.52-3.52A3.53,3.53,0,0,1,43.13,130.39Zm0-6.39A2.87,2.87,0,1,0,46,126.87,2.88,2.88,0,0,0,43.13,124Z"/><path class="cls-1" d="M34.9,175.86H31.56a.42.42,0,0,1-.42-.42v-7H8.47a.42.42,0,0,1-.42-.42v-3.64a.42.42,0,0,1,.42-.43H34.9a.42.42,0,0,1,.42.43v11.08A.42.42,0,0,1,34.9,175.86ZM32,175h2.5V164.78H8.89v2.79H31.56A.42.42,0,0,1,32,168Z"/><path class="cls-1" d="M27.31,164.47a8.95,8.95,0,1,1,9-8.95A9,9,0,0,1,27.31,164.47Zm0-17.05a8.11,8.11,0,1,0,8.11,8.1A8.11,8.11,0,0,0,27.31,147.42Z"/><line class="cls-1" x1="11.82" y1="135.76" x2="26.74" y2="145.3"/><polygon class="cls-1" points="26.62 145.47 11.71 135.94 11.93 135.59 26.85 145.12 26.62 145.47"/><line class="cls-1" x1="11.71" y1="135.85" x2="24.86" y2="145.6"/><rect class="cls-1" x="18.07" y="132.54" width="0.42" height="16.37" transform="translate(-105.65 71.61) rotate(-53.45)"/><line class="cls-1" x1="11.6" y1="135.95" x2="23.4" y2="146.07"/><polygon class="cls-1" points="23.27 146.24 11.46 136.11 11.74 135.78 23.54 145.91 23.27 146.24"/><line class="cls-1" x1="11.49" y1="136.04" x2="22.23" y2="146.66"/><polygon class="cls-1" points="22.08 146.81 11.35 136.19 11.64 135.89 22.38 146.51 22.08 146.81"/><line class="cls-1" x1="11.39" y1="136.13" x2="21.2" y2="147.32"/><polygon class="cls-1" points="21.04 147.46 11.23 136.27 11.54 135.99 21.36 147.18 21.04 147.46"/><line class="cls-1" x1="11.27" y1="136.22" x2="20.31" y2="148.11"/><polygon class="cls-1" points="20.14 148.24 11.11 136.35 11.44 136.09 20.48 147.99 20.14 148.24"/><line class="cls-1" x1="11.17" y1="136.31" x2="19.49" y2="148.98"/><polygon class="cls-1" points="19.31 149.09 10.99 136.43 11.34 136.19 19.67 148.86 19.31 149.09"/><line class="cls-1" x1="11.06" y1="136.4" x2="18.74" y2="149.99"/><rect class="cls-1" x="14.69" y="135.39" width="0.42" height="15.61" transform="translate(-68.56 25.89) rotate(-29.49)"/><line class="cls-1" x1="10.95" y1="136.49" x2="18.04" y2="151.18"/><polygon class="cls-1" points="17.85 151.28 10.76 136.59 11.14 136.4 18.23 151.09 17.85 151.28"/><line class="cls-1" x1="10.84" y1="136.58" x2="17.45" y2="152.71"/><rect class="cls-1" x="13.93" y="135.93" width="0.42" height="17.43" transform="translate(-53.83 16.18) rotate(-22.3)"/><line class="cls-1" x1="10.73" y1="136.68" x2="17.1" y2="155.18"/><polygon class="cls-1" points="16.9 155.25 10.53 136.75 10.93 136.61 17.3 155.11 16.9 155.25"/><path class="cls-1" d="M12.67,138.08l-2.33-1.5L8,138.08l.71-2.68-2.15-1.76,2.77-.15,1-2.59,1,2.59,2.76.15L12,135.4Zm-3.89-3.72.89.73-.29,1.1,1-.62,1,.62-.29-1.1.89-.73-1.14-.06-.42-1.07-.41,1.07Z"/><path class="cls-1" d="M25.07,163a.38.38,0,0,1-.39-.27,10.66,10.66,0,0,1-.17-1.51c0-.3,0-.61-.05-.68a6.11,6.11,0,0,1,0-.75,7.25,7.25,0,0,0,0-1,1.71,1.71,0,0,1-.05-.18c-.05-.17-.18-.63-.34-.69-1.34-.49-1.29-.93-1.28-1.07a4.4,4.4,0,0,0,0-.46c-.07-.79-.09-1.31.22-1.51.11-.07.24-.13.38-.2l.25-.13a.83.83,0,0,1-.47-.45,4.64,4.64,0,0,0-.64-.45,4.72,4.72,0,0,1-.52-.37,1.39,1.39,0,0,1-.16-.28c-.32-.67-.48-.79-.54-.8-.35,0-1.35-.29-1.58-.75a.47.47,0,0,1,0-.46,13.4,13.4,0,0,1,2-2.43,17.4,17.4,0,0,1,2.3-1.3.34.34,0,0,1,.26,0,.31.31,0,0,1,.14.21s.1.82.14,1.17c0,.18.12.37.27.32a1.75,1.75,0,0,0,.42-.36c.29-.29.56-.56.87-.56h.05a.81.81,0,0,0,.26-.09,1.15,1.15,0,0,1,.39-.11c.11,0,.45,0,.45.58,0,.26,0,.42,0,.55a3,3,0,0,0,0,.65,1,1,0,0,1-.25.77.8.8,0,0,1-1,.27l-.14-.1a.69.69,0,0,0-.31-.17h-.06a1.56,1.56,0,0,0-.76.69c-.15.42-.54.78-.84.78h-.11c-.28-.1-.3-.45-.3-.83a.28.28,0,0,0-.15-.15,1,1,0,0,1-.25-.07l-.17,0a1.17,1.17,0,0,0-.31.78,3.36,3.36,0,0,0,.95,1.44,17.86,17.86,0,0,1,2.17,1.65,10.57,10.57,0,0,0,1.25.49c.71.2,1.56.57,1.64,1.18a2.7,2.7,0,0,1-.74,1.95,6.9,6.9,0,0,0-.94.94l-.18.21c-.15.15-.2.2-.32.86a17.84,17.84,0,0,1-.68,2.33.24.24,0,0,1-.13.15A1.58,1.58,0,0,1,25.07,163Zm0-.57v0Zm-1.75-5.51a2.34,2.34,0,0,0,.91.5c.45.16.6.73.69,1.07a.62.62,0,0,0,0,.14,4.29,4.29,0,0,1,.05,1.16c0,.25,0,.59,0,.66s0,.32.07.72.07.94.11,1.24l.16-.07A16.17,16.17,0,0,0,26,160.2c.14-.77.23-.91.46-1.15a1.54,1.54,0,0,0,.16-.18,7,7,0,0,1,1-1,2.36,2.36,0,0,0,.53-1.43c0-.19-.42-.49-1.24-.72a6.9,6.9,0,0,1-1.5-.64,20.54,20.54,0,0,0-2-1.52,3.59,3.59,0,0,1-1.3-1.87,1.72,1.72,0,0,1,.5-1.29.46.46,0,0,1,.35-.14,1.11,1.11,0,0,1,.37.08l.16.05a.79.79,0,0,1,.62.7.53.53,0,0,0,0,.13,1.27,1.27,0,0,0,.15-.26,2,2,0,0,1,1.07-1,.71.71,0,0,1,.28-.06,1.08,1.08,0,0,1,.65.28l.09.07a.53.53,0,0,0,.25-.16.41.41,0,0,0,.11-.33,2.87,2.87,0,0,1,0-.76c0-.12,0-.26,0-.48l0,0a1.23,1.23,0,0,1-.54.13c-.09,0-.33.26-.47.39a1.66,1.66,0,0,1-.66.51.81.81,0,0,1-1-.8c0-.19-.06-.51-.09-.77A16.76,16.76,0,0,0,22.08,149a12.78,12.78,0,0,0-1.86,2.23,2.4,2.4,0,0,0,1.08.4c.44,0,.74.56,1,1.12l.07.13a3.11,3.11,0,0,0,.41.28c.54.36.81.55.88.78l.22.12c.19.1.47.25.42.54s-.35.4-.72.58a2.79,2.79,0,0,0-.3.15,4.21,4.21,0,0,0,0,1A2.73,2.73,0,0,1,23.32,156.92Z"/><path class="cls-1" d="M29.47,149.85c-.41,0-.7-.2-.73-.49a.58.58,0,0,0-.24-.35,1.14,1.14,0,0,1-.63-.58,3.42,3.42,0,0,1-.19-.85.45.45,0,0,1,0-.11l.16-.49a.27.27,0,0,1,.28-.19,7.37,7.37,0,0,1,2.12.47.27.27,0,0,1,.16.17.26.26,0,0,1,0,.24,5.43,5.43,0,0,0-.34.64s0,.12,0,.22c-.06.82-.11,1.28-.47,1.31Zm-.17-.6.08,0a5.72,5.72,0,0,0,.08-.79,2.6,2.6,0,0,1,0-.28,2.14,2.14,0,0,1,.24-.54,6.76,6.76,0,0,0-1.41-.3l-.07.22a2.51,2.51,0,0,0,.13.61c.06.14.16.2.36.3A1.14,1.14,0,0,1,29.3,149.25Z"/><path class="cls-1" d="M34.06,160.94a.21.21,0,0,1-.12,0,.27.27,0,0,1-.16-.3c.06-.37.12-.84.12-1a1.89,1.89,0,0,1,0-.55c0-.13,0-.26,0-.36a1.94,1.94,0,0,0-.18-.42,1.71,1.71,0,0,1-.2-.52,1.17,1.17,0,0,0-.31-.62,2,2,0,0,1-.33-.68,1.26,1.26,0,0,0-.17-.4,1.63,1.63,0,0,1-.27-.59,1.83,1.83,0,0,0-.07-.17c-.33-.33.22-1.2.23-1.21a2.19,2.19,0,0,1,.74-.44h0a6.26,6.26,0,0,1,.77-.19,1.37,1.37,0,0,0,.23-.2c0-.09-.06-.21-.1-.31a.91.91,0,0,1,0-.44h0a.53.53,0,0,1-.29.12,1.7,1.7,0,0,1-.81-.13.54.54,0,0,0-.15,0,.4.4,0,0,1-.27-.09,1.69,1.69,0,0,0-.4-.22.94.94,0,0,0-.26,0h0a1.59,1.59,0,0,0-.08.18c0,.22-.06.48-.06.54,0,.39-.78.62-1,.62l-.13,0c-.63-.14-.76-.23-.81-.39a1.79,1.79,0,0,1,.22-.88l0-.12a.54.54,0,0,1,0-.48,1.48,1.48,0,0,1,.29-.33.3.3,0,0,1,.18-.06,4.55,4.55,0,0,1,.48,0l.11,0a4.1,4.1,0,0,1,.29-.4l0,0a.46.46,0,0,0,.17-.32,1.05,1.05,0,0,0,0-.37s0-.1,0-.16,0-.07-.1-.14a.91.91,0,0,1-.11-.16,1,1,0,0,1-.24-.55.6.6,0,0,1,.32-.56,3,3,0,0,0,.44-.36.29.29,0,0,1,.34,0,7.11,7.11,0,0,1,.9.68,24.46,24.46,0,0,1,2.4,3.28,9.52,9.52,0,0,1,.43,5.11,8,8,0,0,1-1.66,3.6A.26.26,0,0,1,34.06,160.94ZM32.78,155a1.1,1.1,0,0,1,.14.33,1.47,1.47,0,0,0,.18.4,2,2,0,0,1,.27.58,1.54,1.54,0,0,0,.22.5,1.7,1.7,0,0,1,.44.92,2.44,2.44,0,0,0,.14.33,1.93,1.93,0,0,1,.24.62c0,.11,0,.26,0,.4a2.19,2.19,0,0,0,0,.4.17.17,0,0,1,0,.09,7.24,7.24,0,0,0,.92-2.44A9.07,9.07,0,0,0,35,152.4a22,22,0,0,0-2.28-3.13,6.54,6.54,0,0,0-.64-.5,3.78,3.78,0,0,1-.41.3h0s0,0,0,.05a1,1,0,0,0,.14.24l.08.1a.83.83,0,0,1,.23.45.5.5,0,0,0,0,.12,2.44,2.44,0,0,1,0,.52,1,1,0,0,1-.35.67c-.06.07-.19.25-.29.4a.22.22,0,0,1-.11.1,1.07,1.07,0,0,1-.53.11h-.26l-.06.06,0,.06a.64.64,0,0,1,0,.56,3.14,3.14,0,0,0-.14.38,2,2,0,0,0,.36.09,1.21,1.21,0,0,0,.46-.16c0-.17.05-.45.07-.54a.09.09,0,0,1,0-.05c.06-.19.21-.52.48-.56h.06a1.23,1.23,0,0,1,.54,0,2.4,2.4,0,0,1,.52.29.84.84,0,0,1,.3.07,1.16,1.16,0,0,0,.55.1s0,0,.05,0a.6.6,0,0,1,.32-.1,2,2,0,0,1,.41.06.29.29,0,0,1,.2.34,1,1,0,0,0,0,.39,4.76,4.76,0,0,1,.15.47.4.4,0,0,1-.1.36s-.37.44-.64.44l-.66.18a2.34,2.34,0,0,0-.51.27A1.76,1.76,0,0,0,32.78,155Z"/><path class="cls-1" d="M72.92,175.18a.32.32,0,0,1-.14,0,.42.42,0,0,1-.29-.39l0-4.59a.42.42,0,0,1,.1-.28l6.84-8a.42.42,0,0,1,.47-.12.43.43,0,0,1,.27.41l0,.58a4.28,4.28,0,0,0,.06,1.43.69.69,0,0,0,.36.47.42.42,0,0,1,.24.28.44.44,0,0,1-.07.37L73.25,175A.42.42,0,0,1,72.92,175.18Zm.43-4.85v3.19l6.48-8.36a1.58,1.58,0,0,1-.42-.78,3.34,3.34,0,0,1-.09-1Z"/><path class="cls-1" d="M64,159.6a.3.3,0,0,1-.12,0,.42.42,0,0,1-.3-.41l.28-15.76a.42.42,0,0,1,.2-.34,4.91,4.91,0,0,1,2.75-.92,7.16,7.16,0,0,1,2.76.69,3.19,3.19,0,0,0,1.31.25,6.4,6.4,0,0,0,2.55-.61.4.4,0,0,1,.41,0,.41.41,0,0,1,.2.36c0,.11,0,11.63,0,15.58a.43.43,0,0,1-.17.33.44.44,0,0,1-.37.07,19.31,19.31,0,0,0-5-.78c-3.23,0-4.12,1.33-4.13,1.34A.41.41,0,0,1,64,159.6Zm.7-15.94-.26,14.55a7.09,7.09,0,0,1,4-1,19.36,19.36,0,0,1,4.72.68c0-3.74,0-12,0-14.4a7,7,0,0,1-2.32.44,4.15,4.15,0,0,1-1.65-.31,6.07,6.07,0,0,0-2.42-.63A4,4,0,0,0,64.7,143.66Z"/><path class="cls-1" d="M63.94,159.56a.44.44,0,0,1-.35-.18c-.51-.72-1.76-1.1-3.63-1.1a26.38,26.38,0,0,0-5.61.76A.46.46,0,0,1,54,159a.47.47,0,0,1-.17-.33l-.17-13.76a.44.44,0,0,1,.52-.42,6.86,6.86,0,0,0,1.35.12,7.87,7.87,0,0,0,4-1.05,6.07,6.07,0,0,1,3.08-.94,3.68,3.68,0,0,1,1.92.48.44.44,0,0,1,.19.36s-.21,9.1-.36,15.71a.41.41,0,0,1-.29.4Zm-4-2.12a6.75,6.75,0,0,1,3.57.76c.13-5.82.29-13.06.33-14.52a3.26,3.26,0,0,0-1.26-.24,5.26,5.26,0,0,0-2.65.81,8.72,8.72,0,0,1-4.43,1.18,9,9,0,0,1-1-.06l.16,12.73A26.21,26.21,0,0,1,60,157.44Z"/><path class="cls-1" d="M63.94,159.56a.44.44,0,0,1-.35-.18c-.51-.72-1.76-1.1-3.63-1.1a26.38,26.38,0,0,0-5.61.76A.46.46,0,0,1,54,159a.47.47,0,0,1-.17-.33l-.17-13.76a.44.44,0,0,1,.52-.42,6.86,6.86,0,0,0,1.35.12,7.87,7.87,0,0,0,4-1.05,6.07,6.07,0,0,1,3.08-.94,3.68,3.68,0,0,1,1.92.48.44.44,0,0,1,.19.36s-.21,9.1-.36,15.71a.41.41,0,0,1-.29.4Zm-4-2.12a6.75,6.75,0,0,1,3.57.76c.13-5.82.29-13.06.33-14.52a3.26,3.26,0,0,0-1.26-.24,5.26,5.26,0,0,0-2.65.81,8.72,8.72,0,0,1-4.43,1.18,9,9,0,0,1-1-.06l.16,12.73A26.21,26.21,0,0,1,60,157.44Z"/><path class="cls-1" d="M72.13,168.7a.34.34,0,0,1-.14,0,.42.42,0,0,1-.28-.38l-.11-3.54a.4.4,0,0,1,.11-.31l6-6.46a.43.43,0,0,1,.47-.1.41.41,0,0,1,.26.39v.51a3.53,3.53,0,0,0,.08,1.21.58.58,0,0,0,.29.37.39.39,0,0,1,.24.29A.41.41,0,0,1,79,161l-6.52,7.53A.43.43,0,0,1,72.13,168.7Zm.31-3.8.08,2.29L78,160.82a1.26,1.26,0,0,1-.33-.63,2.84,2.84,0,0,1-.1-.82Z"/><path class="cls-1" d="M78.05,158.59h0l-2.31-.19a.42.42,0,1,1,.07-.84l2.3.19a.41.41,0,0,1,.39.45A.42.42,0,0,1,78.05,158.59Z"/><path class="cls-1" d="M72,168.75h-.1l-21.45-5.21A2,2,0,0,1,49,161.46a1.88,1.88,0,0,1,.45-1.39,1.37,1.37,0,0,1,1-.4h0l21.55,4.51a.42.42,0,0,1,.34.41v3.74a.42.42,0,0,1-.16.33A.43.43,0,0,1,72,168.75Zm-21.6-8.24a.48.48,0,0,0-.34.15,1.1,1.1,0,0,0-.22.78c0,1.07.72,1.25.8,1.27l20.94,5.08v-2.86Z"/><path class="cls-1" d="M49.85,160.72a.39.39,0,0,1-.31-.14.41.41,0,0,1,0-.59L52,157.78a.42.42,0,0,1,.57.63l-2.43,2.2A.41.41,0,0,1,49.85,160.72Z"/><path class="cls-1" d="M54.43,164.44A.43.43,0,0,1,54,164v-2.95a.43.43,0,1,1,.85,0V164A.42.42,0,0,1,54.43,164.44Z"/><path class="cls-1" d="M56.46,165a.42.42,0,0,1-.42-.42v-2.87a.43.43,0,1,1,.85,0v2.87A.42.42,0,0,1,56.46,165Z"/><path class="cls-1" d="M65.61,167.07a.42.42,0,0,1-.42-.42v-3.09a.42.42,0,0,1,.42-.43.42.42,0,0,1,.42.43v3.09A.41.41,0,0,1,65.61,167.07Z"/><path class="cls-1" d="M72.81,175.14l-.11,0-24.56-6.9a2.25,2.25,0,0,1-1.59-2.36c0-1.47.86-2,1.59-2h.16l24.61,6a.43.43,0,0,1,.32.41v4.47a.42.42,0,0,1-.16.33A.43.43,0,0,1,72.81,175.14ZM48.14,164.72c-.3,0-.75.16-.75,1.14,0,1.28.85,1.52,1,1.54l24,6.76v-3.57Z"/><path class="cls-1" d="M47.45,165a.43.43,0,0,1-.32-.14.42.42,0,0,1,0-.6l2.2-1.92a.42.42,0,0,1,.6,0,.43.43,0,0,1,0,.6l-2.21,1.92A.39.39,0,0,1,47.45,165Z"/><path class="cls-1" d="M79.77,162.49h0l-1.94-.19a.42.42,0,1,1,.08-.84l1.94.19a.42.42,0,0,1,.38.46A.42.42,0,0,1,79.77,162.49Z"/><path class="cls-1" d="M50.77,168.73a.29.29,0,0,1-.29-.29V165.1a.29.29,0,0,1,.57,0v3.34A.29.29,0,0,1,50.77,168.73Z"/><path class="cls-1" d="M65.05,172.74a.28.28,0,0,1-.28-.28v-3.91a.28.28,0,0,1,.56,0v3.91A.28.28,0,0,1,65.05,172.74Z"/><path class="cls-1" d="M64,143.19a3.74,3.74,0,0,1-3.67-2.74.28.28,0,0,1,.09-.29.27.27,0,0,1,.31,0,6.24,6.24,0,0,0,.65.27,5.67,5.67,0,0,1-.71-1.58.3.3,0,0,1,.09-.3.27.27,0,0,1,.31,0,5.86,5.86,0,0,0,.69.28,5.11,5.11,0,0,1-.51-1.22.3.3,0,0,1,.09-.3.29.29,0,0,1,.31,0,4.2,4.2,0,0,0,1.09.41,3.53,3.53,0,0,0,.66-1.84c.07-.51.14-1,.57-1s.47.43.55.92a3.55,3.55,0,0,0,.69,1.82,7.39,7.39,0,0,0,1.16-.33.28.28,0,0,1,.29.05.29.29,0,0,1,.08.29,5,5,0,0,1-.52,1.23,6.65,6.65,0,0,0,.7-.29.27.27,0,0,1,.31,0,.28.28,0,0,1,.09.3,5.57,5.57,0,0,1-.72,1.59c.38-.14.66-.28.66-.28a.27.27,0,0,1,.31,0,.26.26,0,0,1,.09.29A3.73,3.73,0,0,1,64,143.19Zm-2.9-2.29a3.3,3.3,0,0,0,5.79,0,4.79,4.79,0,0,1-1.1.27.26.26,0,0,1-.29-.18.27.27,0,0,1,.1-.33,3.16,3.16,0,0,0,1-1.4,4.16,4.16,0,0,1-1.08.27.28.28,0,0,1-.3-.18.3.3,0,0,1,.1-.33,2.46,2.46,0,0,0,.73-1.09,4.9,4.9,0,0,1-.88.19.27.27,0,0,1-.23-.08,3.91,3.91,0,0,1-.95-2.22h0a.15.15,0,0,1,0,.07,3.82,3.82,0,0,1-.9,2.26.29.29,0,0,1-.23.08A3.2,3.2,0,0,1,62,138a2.52,2.52,0,0,0,.68,1,.27.27,0,0,1,.1.33.29.29,0,0,1-.29.18,5.33,5.33,0,0,1-1.08-.27,3.35,3.35,0,0,0,1,1.39.28.28,0,0,1,.1.33.27.27,0,0,1-.29.18A4.71,4.71,0,0,1,61.13,140.9Z"/><path class="cls-1" d="M20.35,111.05a.41.41,0,0,1-.32-.15.43.43,0,0,1,0-.6l3.21-2.69a.42.42,0,0,1,.6,0,.42.42,0,0,1-.05.59L20.62,111A.43.43,0,0,1,20.35,111.05Z"/><path class="cls-1" d="M20.24,113.55a.42.42,0,0,1-.28-.74l3.28-2.74a.42.42,0,0,1,.59.06.41.41,0,0,1,0,.59l-3.28,2.73A.39.39,0,0,1,20.24,113.55Z"/><path class="cls-1" d="M22,117.92a4.19,4.19,0,0,1-4.21-4.1.42.42,0,0,1,.12-.3.39.39,0,0,1,.3-.13h7.57a.4.4,0,0,1,.31.13.41.41,0,0,1,.11.3A4.19,4.19,0,0,1,22,117.92Zm-3.33-3.69a3.37,3.37,0,0,0,6.65,0Z"/><path class="cls-1" d="M27.7,108.34H16.38a.42.42,0,0,1-.42-.43V106a.42.42,0,0,1,.42-.43H27.7a.42.42,0,0,1,.42.43v1.87A.42.42,0,0,1,27.7,108.34Zm-10.9-.85H27.27v-1H16.8Z"/><path class="cls-1" d="M23.76,114.23H20.1a.44.44,0,0,1-.31-.13.46.46,0,0,1-.11-.32l.29-5.89a.43.43,0,0,1,.42-.4h3.07a.42.42,0,0,1,.42.4l.3,5.82s0,.06,0,.09A.43.43,0,0,1,23.76,114.23Zm-3.21-.85h2.77l-.26-5H20.8Z"/><path class="cls-1" d="M23.37,106.46H20.49a.44.44,0,0,1-.31-.13.41.41,0,0,1-.11-.31l1.16-23.36h-9L17,93.47a.63.63,0,0,1,0,.19,6.14,6.14,0,0,1-12.27,0,.42.42,0,0,1,0-.19l5.71-13a.43.43,0,0,1,.39-.25H21.35l.15-3a.41.41,0,0,1,.42-.4h0a.42.42,0,0,1,.42.4l.15,3H33.07a.43.43,0,0,1,.39.25l5.71,13a.63.63,0,0,1,0,.19,6.14,6.14,0,0,1-12.27,0,.42.42,0,0,1,0-.19l4.77-10.81H22.61L23.79,106V106A.42.42,0,0,1,23.37,106.46Zm-2.44-.85h2l-1-19.87Zm6.84-11.89a5.3,5.3,0,0,0,10.58,0L32.8,81.09H22.09a.47.47,0,0,1-.17,0,.47.47,0,0,1-.17,0H11.19L5.63,93.72a5.3,5.3,0,0,0,10.59,0l-5-11.31a.41.41,0,0,1,0-.4.42.42,0,0,1,.35-.19H21.67a.38.38,0,0,1,.25.08.38.38,0,0,1,.25-.08H32.38a.42.42,0,0,1,.35.19.44.44,0,0,1,0,.4Z"/><path class="cls-1" d="M15.13,93.93H6.72a.45.45,0,0,1-.36-.19.43.43,0,0,1,0-.4l4.21-9.68a.41.41,0,0,1,.38-.26.42.42,0,0,1,.39.26l4.18,9.62a.46.46,0,0,1,.06.23A.41.41,0,0,1,15.13,93.93Zm-7.77-.84h7.12l-3.56-8.2Z"/><path class="cls-1" d="M37.27,93.93H28.86a.42.42,0,0,1-.35-.19.43.43,0,0,1,0-.4l4.21-9.68a.4.4,0,0,1,.39-.26.42.42,0,0,1,.38.26l4.18,9.62a.48.48,0,0,1,.07.23A.42.42,0,0,1,37.27,93.93Zm-7.77-.84h7.12l-3.55-8.2Z"/><path class="cls-1" d="M66,98.82h-.09a.46.46,0,0,1-.31-.28c-.39-1.1-1.1-2.32-1.5-2.32l-.24,0a15.66,15.66,0,0,1-2.78.28c-3.82,0-6.1-1.79-6.59-5.17-1-6.69,1.74-8.91,2.1-9.16a3.94,3.94,0,0,1,2.74-1.12,3.84,3.84,0,0,1,3.74,2.83c.41,1.94-.64,4.32-1.19,4.56a1,1,0,0,1-.37.08h0a3.14,3.14,0,0,1-1.88-1.18A3.82,3.82,0,0,0,59,88.69a3.69,3.69,0,0,0,.37,3c.36.59,1,.83,2.13.83l1.06,0c.37,0,.76,0,1.14,0a3.59,3.59,0,0,1,3,1.15c1.57,2,.42,4.21-.41,5.12A.4.4,0,0,1,66,98.82Zm-1.9-3.45c.89,0,1.6,1.26,2,2.16a2.89,2.89,0,0,0-.06-3.44,2.67,2.67,0,0,0-2.33-.82c-.36,0-.73,0-1.1,0s-.74,0-1.1,0a3.08,3.08,0,0,1-2.85-1.23,4.65,4.65,0,0,1-.37-4c.25-.71.73-1.56,1.22-1.74a.42.42,0,0,1,.47.12c.55.67,1.21,1.19,1.51,1.19a5.41,5.41,0,0,0,.74-3.61,3,3,0,0,0-2.91-2.17,3.19,3.19,0,0,0-2.19.91l0,0a4.11,4.11,0,0,0-1.23,1.72,12.22,12.22,0,0,0-.54,6.64c.43,3,2.37,4.44,5.76,4.44a15.47,15.47,0,0,0,2.63-.26l.31-.05Z"/><path class="cls-1" d="M64.24,104.53a3.56,3.56,0,0,1-2.74-1c-1.87-1.94-.37-4.71.69-5.89a.41.41,0,0,1,.33-.15.43.43,0,0,1,.32.17s.58.78,1.31,1.9a.44.44,0,0,1,0,.43.38.38,0,0,0-.06.16,1.07,1.07,0,0,0,.55.09,8.14,8.14,0,0,0,1.89-.29c2-.51,3.55-.18,4.3.92s.47,2.19-.75,3.44a.43.43,0,0,1-.43.11.44.44,0,0,1-.29-.34c0-.11-.2-.16-.53-.16a12,12,0,0,0-1.79.23A16.23,16.23,0,0,1,64.24,104.53Zm-1.75-5.86c-.61.87-1.76,2.89-.39,4.33a2.87,2.87,0,0,0,2.14.69,16,16,0,0,0,2.67-.32,13.4,13.4,0,0,1,1.94-.24,1.67,1.67,0,0,1,1,.25c.79-1,.57-1.6.31-2a2.14,2.14,0,0,0-1.89-.79,6.16,6.16,0,0,0-1.51.2,9,9,0,0,1-2.1.32c-.66,0-1.08-.16-1.28-.49a.87.87,0,0,1-.06-.75C63,99.38,62.7,99,62.49,98.67Z"/><path class="cls-1" d="M64.67,101.13h-.14a.41.41,0,0,1-.33-.18l-3.28-4.59a.41.41,0,0,1,0-.44.42.42,0,0,1,.37-.23,15.66,15.66,0,0,0,2.46-.26l.31-.05h.09a.44.44,0,0,1,.36.19l2.94,4.52a.39.39,0,0,1,0,.39.4.4,0,0,1-.3.25l-.38.08A9,9,0,0,1,64.67,101.13ZM62.05,96.5l2.71,3.79a8,8,0,0,0,1.61-.25L63.9,96.25h0C63.5,96.32,62.85,96.44,62.05,96.5Z"/><path class="cls-1" d="M73.06,117.91H73c-.55-.08-.71-.64-.86-1.14a2.57,2.57,0,0,0-.4-.9q-.19-.21-.42-.42a2.58,2.58,0,0,1-1.08-1.86c0-.12,0-.24,0-.35a2.61,2.61,0,0,0-.89-2.32,3.15,3.15,0,0,0-1.21-.57,3.78,3.78,0,0,1-2.48-1.83c-1.27-2.15,1.12-4.37,1.22-4.47a.42.42,0,0,1,.32-.11.43.43,0,0,1,.29.16,9,9,0,0,1,1.77,2.7l.21,0a8.83,8.83,0,0,1,1-.08,2.84,2.84,0,0,1,1.27.26,2.48,2.48,0,0,1,1.24,3,1.91,1.91,0,0,0,.63,2.13,1.78,1.78,0,0,1,.72,1.29c0,1-.16,3.71-.77,4.34A.59.59,0,0,1,73.06,117.91Zm-6-12.9c-.52.6-1.44,1.92-.75,3.08a3,3,0,0,0,2,1.45,3.69,3.69,0,0,1,1.52.76,3.43,3.43,0,0,1,1.18,2.9c0,.11,0,.22,0,.34a1.79,1.79,0,0,0,.79,1.29,5.52,5.52,0,0,1,.49.48,3.1,3.1,0,0,1,.57,1.22l.1.31a12.48,12.48,0,0,0,.4-3.44c0-.28-.15-.42-.45-.71a2.71,2.71,0,0,1-.88-2.9c.2-1.1,0-1.69-.79-2.07a1.91,1.91,0,0,0-.89-.17,5.9,5.9,0,0,0-.87.07c-.21,0-.4,0-.55,0a.64.64,0,0,1-.55-.24.52.52,0,0,1-.06-.5h0A11.37,11.37,0,0,0,67.1,105Z"/><path class="cls-1" d="M71.71,107.89a.38.38,0,0,1-.22-.07l-.19-.1a1.91,1.91,0,0,0-.89-.17,5.9,5.9,0,0,0-.87.07l-.29,0a.42.42,0,0,1-.38-.17l-.86-1.2c-.26-.4-.57-.82-.78-1.1l-.8-1.11a.46.46,0,0,1-.05-.41.43.43,0,0,1,.32-.25l.2,0a8.84,8.84,0,0,1,2.33-.22.44.44,0,0,1,.3.19L72,107.19a.43.43,0,0,1,.1.28.42.42,0,0,1-.42.42Zm-4.2-3.76.39.55c.22.28.54.72.81,1.13l.7,1h0a7.06,7.06,0,0,1,1-.08h.31L68.93,104A7.66,7.66,0,0,0,67.51,104.13Z"/><path class="cls-1" d="M79.49,121a.39.39,0,0,1-.23-.07l-1.49-1a.57.57,0,0,1-.11-.11L73.51,114a.38.38,0,0,1-.08-.25c0-.11,0-.21,0-.31,0-.28-.15-.42-.45-.71a2.71,2.71,0,0,1-.88-2.9,3.38,3.38,0,0,0,.06-1,.41.41,0,0,1,.26-.45.43.43,0,0,1,.51.17l6.52,10a.35.35,0,0,1,.06.14l.4,1.75a.42.42,0,0,1-.17.45A.4.4,0,0,1,79.49,121Zm-1.18-1.74.53.36-.15-.63-5.79-8.89a1.88,1.88,0,0,0,.65,2,1.78,1.78,0,0,1,.72,1.29v.21Z"/><path class="cls-1" d="M76.07,144a.38.38,0,0,0-.37-.06c-.66.21-1.48.4-2.14.54v.86c.54-.11,1.22-.26,1.84-.43,0,2.92-.07,12.09-.09,14.35a40.37,40.37,0,0,0-6.5-.62,12.72,12.72,0,0,0-4.5.65.44.44,0,0,1-.25.23l-.12,0a.44.44,0,0,1-.35-.18l0,0a15.54,15.54,0,0,0-4.75-.71,17.33,17.33,0,0,0-6,1.07c0-3.54-.21-11-.27-13l1.11.18V146c-.87-.13-1.43-.24-1.45-.24a.42.42,0,0,0-.36.09.45.45,0,0,0-.15.33c0,.11.29,10.5.29,14.16a.44.44,0,0,0,.18.35.51.51,0,0,0,.24.07.37.37,0,0,0,.15,0,16.74,16.74,0,0,1,6.24-1.22,13.89,13.89,0,0,1,5,.84.43.43,0,0,0,.37,0,10.19,10.19,0,0,1,4.65-.81,39.43,39.43,0,0,1,6.84.71.45.45,0,0,0,.35-.09.41.41,0,0,0,.15-.33c0-.13.1-13.16.1-15.43A.42.42,0,0,0,76.07,144Z"/><path class="cls-1" d="M43.13,130.59a7.66,7.66,0,0,1-6.42-3.47l-.15-.23.15-.23a7.66,7.66,0,0,1,12.84,0l.15.23-.15.23A7.65,7.65,0,0,1,43.13,130.59Zm-5.55-3.7a6.82,6.82,0,0,0,11.11,0,6.81,6.81,0,0,0-11.11,0Z"/><path class="cls-1" d="M44.63,126.84a1.5,1.5,0,1,1-1.5-1.49A1.5,1.5,0,0,1,44.63,126.84Z"/><path class="cls-1" d="M9.61,164.4,9,164.1l2.68-7.25,2,.94Zm2.44-6.58-1.14,3.09,1.71-2.82Z"/><path class="cls-1" d="M16.94,164.4l-4-6.61,2-.94,2.68,7.25Zm-3-6.31,1.71,2.82-1.14-3.09Z"/><path class="cls-1" d="M13.29,158.29a2,2,0,1,1,2-2A2,2,0,0,1,13.29,158.29Zm0-3.22a1.19,1.19,0,0,0,0,2.38,1.19,1.19,0,1,0,0-2.38Z"/><line class="cls-2" x1="113.73" y1="80.04" x2="113.73" y2="175.14"/><rect class="cls-3" x="405.34" y="80.04" width="4.36" height="23.8"/><rect class="cls-4" x="405.34" y="103.84" width="4.36" height="23.8"/><rect class="cls-5" x="405.34" y="127.65" width="4.36" height="23.8"/><rect class="cls-6" x="405.34" y="151.45" width="4.36" height="23.8"/><path class="cls-7" d="M846.73,104.84A10.47,10.47,0,0,0,831,113.92v26.7a10.44,10.44,0,0,0,15.72,9.08l23-13.35a10.5,10.5,0,0,0,0-18.16Zm-5,35.37V114.33L864,127.27Zm67.93-10.12V97.85c0-5.51-4.95-10-11-10H801.51c-6.09,0-11,4.49-11,10v57.48c0,5.51,4.95,10,11,10h97.12c6.08,0,11-4.48,11-10a5.55,5.55,0,0,1,11,0c0,11-9.9,20-22.07,20H801.51c-12.17,0-22.08-9-22.08-20V97.85c0-11,9.91-20,22.08-20h97.12c12.17,0,22.07,9,22.07,20v32.24a5.55,5.55,0,0,1-11,0Z"/><path class="cls-1" d="M1006.55,78.3c24,0,42.39,18,42.39,42.62a56.57,56.57,0,0,1-.46,6.22,4.24,4.24,0,0,1-4.15,3.92H981.66a26.68,26.68,0,0,0,26.5,24.65c8.29,0,15.89-3.69,20.5-6.68,2.77-1.61,4.38-2.54,6.22-.23l6.45,8.75c1.62,1.85,2.31,3.69-.46,6-6.68,5.76-18.66,11.52-34.09,11.52-27.88,0-46.31-21.88-46.31-48.38C960.47,100.65,978.9,78.3,1006.55,78.3Zm21,38.24c-.69-11.05-9.91-20.5-21.19-20.5a23.31,23.31,0,0,0-23.5,20.5Z"/><path class="cls-1" d="M1112.52,78.3c25.8,0,46.54,22.12,46.54,48.15,0,26.5-20.74,48.61-46.54,48.61S1066,153,1066,126.45C1066,100.42,1086.72,78.3,1112.52,78.3Zm0,77c14.51,0,26-12.9,26-28.8,0-15.43-11.52-28.11-26-28.11s-26,12.68-26,28.11C1086.49,142.35,1098,155.25,1112.52,155.25Z"/><path class="cls-1" d="M1183.94,15.87a4.53,4.53,0,0,1,4.38-4.38h13.13a4.53,4.53,0,0,1,4.38,4.38V168.38a4.54,4.54,0,0,1-4.38,4.38h-13.13a4.53,4.53,0,0,1-4.38-4.38Z"/><line class="cls-2" x1="739.73" y1="80.04" x2="739.73" y2="175.14"/><text class="cls-8" transform="translate(669.57 175.58)">u</text></g></g></svg>