<svg xmlns="http://www.w3.org/2000/svg" viewBox="0 0 471.22 701.36"><defs><style>.cls-1{fill:#004b93;}.cls-1,.cls-2,.cls-3,.cls-4,.cls-5{stroke:#37474f;stroke-linecap:round;stroke-linejoin:round;stroke-width:10.96px;}.cls-2{fill:none;}.cls-3{fill:#fed443;}.cls-4{fill:#fff;}.cls-5{fill:#64b5f6;}</style></defs><g id="Layer_2" data-name="Layer 2"><g id="Capa_1" data-name="Capa 1"><g id="Adventure"><path class="cls-1" d="M180.82,246.57,19.44,337.35a27.4,27.4,0,0,0-14,23.87v82.61a11,11,0,0,0,11,11H60.27V416.43A27.4,27.4,0,0,1,87.67,389h0a27.4,27.4,0,0,1,27.4,27.4v38.36h65.75Z"/><path class="cls-1" d="M290.41,246.57l161.37,90.78a27.38,27.38,0,0,1,14,23.87v82.61a11,11,0,0,1-10.95,11H411V416.43a27.4,27.4,0,0,0-27.4-27.4h0a27.39,27.39,0,0,0-27.39,27.4v38.36H290.41Z"/><polygon class="cls-2" points="180.82 115.07 290.4 115.07 290.4 115.07 235.61 5.48 180.82 115.07 180.82 115.07"/><polygon class="cls-2" points="260.33 54.91 235.61 5.48 210.9 54.91 260.33 54.91"/><path class="cls-3" d="M180.82,246.57V482.18a27.39,27.39,0,0,0,27.4,27.4H263a27.4,27.4,0,0,0,27.4-27.4V115.07H180.82v32.87"/><rect class="cls-4" x="202.74" y="367.12" width="65.75" height="109.59" transform="translate(-186.3 657.52) rotate(-90)"/><line class="cls-5" x1="180.82" y1="180.16" x2="180.82" y2="213.04"/><path class="cls-2" d="M62.77,389h49.79a2.5,2.5,0,0,1,2.5,2.5v95.13a1,1,0,0,1-1,1H61.27a1,1,0,0,1-1-1V391.54a2.5,2.5,0,0,1,2.5-2.5Z"/><path class="cls-2" d="M358.66,389h49.79a2.5,2.5,0,0,1,2.5,2.5v95.13a1,1,0,0,1-1,1H357.16a1,1,0,0,1-1-1V391.54a2.5,2.5,0,0,1,2.5-2.5Z"/><line class="cls-2" x1="284.39" y1="554.64" x2="268.49" y2="509.58"/><line class="cls-2" x1="202.74" y1="509.58" x2="185.84" y2="557.45"/><path class="cls-2" d="M169.86,630.13a65.44,65.44,0,0,1,14.25-40.87c12-15.16,30.64-23.66,51.5-23.66s39.5,8.52,51.55,23.7a65.51,65.51,0,0,1,14.2,40.83"/><path class="cls-2" d="M100.43,657.44a54.54,54.54,0,0,1-7.28-27.31"/><path class="cls-2" d="M378.08,630.13a54.58,54.58,0,0,1-7.29,27.32"/><path class="cls-2" d="M389,597.25a32.68,32.68,0,0,0-18.45,5.68,54.18,54.18,0,0,0-83.5-13.64,65.63,65.63,0,0,0-102.94,0,54.18,54.18,0,0,0-83.5,13.64,32.88,32.88,0,1,0,0,54.4A54.19,54.19,0,0,0,184.14,671a65.65,65.65,0,0,0,102.94,0,54.19,54.19,0,0,0,83.5-13.65A32.87,32.87,0,1,0,389,597.25Z"/></g></g></g></svg>