<svg xmlns="http://www.w3.org/2000/svg" viewBox="0 0 597.17 661.69"><defs><style>.cls-1{fill:#fff;}.cls-2{fill:#ffe946;}.cls-3{fill:#f8ba00;}.cls-4{fill:#004b94;}.cls-5{fill:#610000;}</style></defs><g id="Layer_2" data-name="Layer 2"><g id="Capa_1" data-name="Capa 1"><g id="illustration"><path class="cls-1" d="M120.89,25.16h0c2.42-.23,3.08-.67,4.22-2.81h0c.22,2.41.66,3.08,2.81,4.22h0c-2.42.22-3.08.66-4.22,2.8h0C123.47,27,123,26.3,120.89,25.16Z"/><path class="cls-1" d="M0,124.4H0c2.42-.23,3.08-.67,4.22-2.81h0c.22,2.41.66,3.08,2.81,4.21H7c-2.42.23-3.08.67-4.22,2.81h0C2.58,126.2,2.14,125.53,0,124.4Z"/><path class="cls-1" d="M547.13,141h0c1.83-.17,2.33-.51,3.19-2.13h0c.17,1.83.51,2.33,2.13,3.19h0c-1.83.17-2.33.51-3.19,2.13h0C549.09,142.32,548.75,141.82,547.13,141Z"/><g id="launch_and_publish" data-name="launch and publish"><path class="cls-2" d="M597.17,372c0-160-129.69-289.7-289.72-289.7S17.75,212,17.75,372s129.71,289.71,289.7,289.71S597.17,532,597.17,372Z"/><path class="cls-1" d="M597.17,372a289.34,289.34,0,0,0-13.91-88.76c.39,40.63-2.82,120.17-32.8,138.19-20.6,12.38,0,0-8.89,6s-36.05,11.61-47.93,53.82-43,65.93-84.64,81c-10.76,3.91-24.89-.92-34.39,9.92-9-10.48-17-11.11-26.44-24.25-17.35-24.24-28.57-140-28.57-140H300.06S285.2,525.9,270,561.15c-8.4,19.47-15,13-24.28,12.68-10.77-13.63-33.55-.34-46.28-5-41.62-15.08-35.28,7.78-47.16-34.43s-60.66-62.35-69.58-68.39,4.73-32.58-16.07-44.64c-16.87-9.78-32.33-94.71-38-127.92A290,290,0,0,0,17.75,372c0,160,129.71,289.71,289.7,289.71S597.17,532,597.17,372Z"/><polygon class="cls-3" points="402.3 345.26 411.12 423.34 419.79 423.34 412.2 345.82 402.3 345.26 402.3 345.26"/><polygon class="cls-3" points="216.35 345.26 207.56 423.34 197.8 423.34 205.39 345.82 216.35 345.26 216.35 345.26"/><path class="cls-4" d="M216.35,345.26,208,421.53l7.87-12.76A57.45,57.45,0,0,1,264.48,381h3.25A590.74,590.74,0,0,1,253,317.2Z"/><path class="cls-4" d="M402.44,345.26l-36.05-27.65a668.15,668.15,0,0,0,11.14-98.87c1.47-39.79-10.7-83.14-22-111.37h0l-.19-.41-.34-.83,0,0c-14.92-33-32.87-55.27-40.33-63.66l-2.12-1.42-1.42,73.54h-.21l-.6,39.54L312,154c11.63.2,20.93,10.12,20.77,22.15s-9.74,21.7-21.39,21.51l-1.93-.22-4.21,209.8a332.42,332.42,0,0,0,38-2.09s3.32-8.68,7.94-24.1h3.16a57.47,57.47,0,0,1,48.57,27.73l7.87,12.76Z"/><path class="cls-5" d="M251.59,307.76,251.2,306s.53,4.08,1.75,11.22l.05-.05C252.49,314.18,252.08,310.87,251.59,307.76Z"/><path class="cls-4" d="M307.28,42.89C299.19,51.77,280.21,75,265.17,111h0c-9.67,25.63-20.21,65.57-20.46,102.47a595.33,595.33,0,0,0,6.9,94.31c.49,3.11.9,6.42,1.41,9.39l-.05.05A590.74,590.74,0,0,0,267.73,381c4.33,14.33,7.48,22.23,7.48,22.23,7.55,2.83,18.85,3.82,30,4l4.21-209.8a21.79,21.79,0,0,1,.85-43.27l.48-39,1.75-74.06Z"/><path class="cls-3" d="M327.79,175.64a16.26,16.26,0,1,0-16.25,16.26A16.27,16.27,0,0,0,327.79,175.64Z"/></g><path class="cls-1" d="M361,538.22a4,4,0,1,0-4,4A4,4,0,0,0,361,538.22Z"/><path class="cls-1" d="M257.14,552a4,4,0,1,0-4,4.05A4,4,0,0,0,257.14,552Z"/><path class="cls-1" d="M271.9,522.55a4.41,4.41,0,1,0-4.41,4.41A4.4,4.4,0,0,0,271.9,522.55Z"/><path class="cls-1" d="M246.4,522.84a4.41,4.41,0,1,0-4.41,4.41A4.4,4.4,0,0,0,246.4,522.84Z"/><polygon class="cls-1" points="394.91 3.43 401.75 3.57 407.57 0 407.44 6.84 411.88 13.49 404.17 12.53 398.35 16.1 398.48 9.26 394.91 3.43"/></g></g></g></svg>