<svg xmlns="http://www.w3.org/2000/svg" viewBox="0 0 688.97 522.4"><defs><style>.cls-1{fill:#2c2c2c;}.cls-2{fill:#fed443;}.cls-3{fill:#fff;}.cls-4{fill:#aeaeae;}.cls-5{fill:#d3d3d3;}.cls-6{fill:#004b93;}</style></defs><g id="Layer_2" data-name="Layer 2"><g id="Capa_1" data-name="Capa 1"><path class="cls-1" d="M682,522.4H7a7,7,0,0,1,0-13.91H682a7,7,0,0,1,0,13.91Z"/><rect class="cls-2" x="171.46" y="91.4" width="318.44" height="428.82" rx="5.08"/><rect class="cls-3" x="206.19" y="115.61" width="259.8" height="370.84"/><path class="cls-1" d="M486.26,522.4H185.91a16,16,0,0,1-16-16V95.67a16,16,0,0,1,16-16H486.26a16,16,0,0,1,16,16V506.4A16,16,0,0,1,486.26,522.4ZM185.91,93.58a2.1,2.1,0,0,0-2.09,2.09V506.4a2.1,2.1,0,0,0,2.09,2.09H486.26a2.1,2.1,0,0,0,2.1-2.09V95.67a2.1,2.1,0,0,0-2.1-2.09Z"/><path class="cls-1" d="M466,490.63H206.19a4.17,4.17,0,0,1-4.17-4.17V115.61a4.17,4.17,0,0,1,4.17-4.17H466a4.17,4.17,0,0,1,4.17,4.17V486.46A4.17,4.17,0,0,1,466,490.63Zm-255.63-8.35H461.82V119.78H210.36Z"/><path class="cls-4" d="M288,65.4h96.17a11.17,11.17,0,0,1,11.17,11.17V98.24a2.66,2.66,0,0,1-2.66,2.66H279.5a2.66,2.66,0,0,1-2.66-2.66V76.56A11.17,11.17,0,0,1,288,65.4Z"/><path class="cls-1" d="M390.59,105.07h-109a8.93,8.93,0,0,1-8.92-8.92V85.3a24.1,24.1,0,0,1,24.07-24.08h78.7A24.1,24.1,0,0,1,399.51,85.3V96.15A8.93,8.93,0,0,1,390.59,105.07Zm-93.85-35.5A15.75,15.75,0,0,0,281,85.3V96.15a.58.58,0,0,0,.58.58h109a.58.58,0,0,0,.58-.58V85.3a15.75,15.75,0,0,0-15.73-15.73Z"/><path class="cls-4" d="M363.67,63.44A38,38,0,0,1,353.5,37.58H318.68a38,38,0,0,1-10.17,25.86l-1.82,2h58.8Z"/><path class="cls-1" d="M365.49,69.57h-58.8a4.18,4.18,0,0,1-3.06-7l1.83-2a33.68,33.68,0,0,0,9-23,4.17,4.17,0,0,1,4.18-4.17H353.5a4.17,4.17,0,0,1,4.18,4.17,33.68,33.68,0,0,0,9,23h0l1.82,2a4.17,4.17,0,0,1-3.05,7ZM315.6,61.22h41a42,42,0,0,1-7-19.47h-26.9A42,42,0,0,1,315.6,61.22Z"/><path class="cls-4" d="M336.09,4.17A21.71,21.71,0,1,0,357.8,25.88,21.71,21.71,0,0,0,336.09,4.17Zm0,30.76a9,9,0,1,1,9.05-9A9,9,0,0,1,336.09,34.93Z"/><path class="cls-1" d="M336.09,51.76A25.88,25.88,0,1,1,362,25.88,25.91,25.91,0,0,1,336.09,51.76Zm0-43.42a17.54,17.54,0,1,0,17.54,17.54A17.56,17.56,0,0,0,336.09,8.34Zm0,30.76a13.22,13.22,0,1,1,13.22-13.22A13.23,13.23,0,0,1,336.09,39.1Zm0-18.09A4.88,4.88,0,1,0,341,25.88,4.88,4.88,0,0,0,336.09,21Z"/><path class="cls-1" d="M265,186.69H235.18a4.17,4.17,0,0,1-4.18-4.17V152.75a4.18,4.18,0,0,1,4.18-4.17H265a4.17,4.17,0,0,1,4.17,4.17v29.77A4.17,4.17,0,0,1,265,186.69Zm-25.6-8.34h21.42V156.92H239.35Z"/><path class="cls-1" d="M437,160.79H285.13a4.17,4.17,0,0,1,0-8.34H437a4.17,4.17,0,1,1,0,8.34Z"/><path class="cls-1" d="M437,182.82H285.13a4.17,4.17,0,0,1,0-8.34H437a4.17,4.17,0,1,1,0,8.34Z"/><path class="cls-1" d="M265,247.25H235.18a4.17,4.17,0,0,1-4.18-4.17V213.31a4.18,4.18,0,0,1,4.18-4.17H265a4.17,4.17,0,0,1,4.17,4.17v29.77A4.17,4.17,0,0,1,265,247.25Zm-25.6-8.34h21.42V217.48H239.35Z"/><path class="cls-1" d="M437,221.35H285.13a4.17,4.17,0,0,1,0-8.34H437a4.17,4.17,0,1,1,0,8.34Z"/><path class="cls-1" d="M437,243.38H285.13a4.17,4.17,0,0,1,0-8.34H437a4.17,4.17,0,1,1,0,8.34Z"/><path class="cls-1" d="M265,307.81H235.18a4.17,4.17,0,0,1-4.18-4.17V273.87a4.18,4.18,0,0,1,4.18-4.17H265a4.17,4.17,0,0,1,4.17,4.17v29.77A4.17,4.17,0,0,1,265,307.81Zm-25.6-8.34h21.42V278H239.35Z"/><path class="cls-1" d="M437,281.91H285.13a4.17,4.17,0,0,1,0-8.34H437a4.17,4.17,0,1,1,0,8.34Z"/><path class="cls-1" d="M437,304H285.13a4.18,4.18,0,0,1,0-8.35H437a4.18,4.18,0,1,1,0,8.35Z"/><path class="cls-1" d="M265,368.38H235.18A4.18,4.18,0,0,1,231,364.2V334.43a4.18,4.18,0,0,1,4.18-4.17H265a4.17,4.17,0,0,1,4.17,4.17V364.2A4.18,4.18,0,0,1,265,368.38ZM239.35,360h21.42V338.61H239.35Z"/><path class="cls-1" d="M437,342.47H285.13a4.17,4.17,0,1,1,0-8.34H437a4.17,4.17,0,1,1,0,8.34Z"/><path class="cls-1" d="M437,364.51H285.13a4.18,4.18,0,0,1,0-8.35H437a4.18,4.18,0,1,1,0,8.35Z"/><path class="cls-1" d="M437,443.36H381.49a4.17,4.17,0,0,1-4.17-4.18V383.67a4.17,4.17,0,0,1,4.17-4.17H437a4.18,4.18,0,0,1,4.18,4.17v55.51A4.18,4.18,0,0,1,437,443.36ZM385.66,435h47.17V387.84H385.66Z"/><path class="cls-1" d="M248.22,174.9a3.86,3.86,0,0,1-.58,0,4.15,4.15,0,0,1-2.83-1.72l-3.82-5.4a4.17,4.17,0,1,1,6.81-4.82l1.26,1.78L253.7,161a4.17,4.17,0,0,1,5.24,6.5l-8.1,6.53A4.2,4.2,0,0,1,248.22,174.9Z"/><path class="cls-1" d="M256.32,238.63a4.18,4.18,0,0,1-2.95-1.22l-12.52-12.52a4.17,4.17,0,0,1,5.9-5.9l12.52,12.52a4.17,4.17,0,0,1-2.95,7.12Z"/><path class="cls-1" d="M243.8,238.63a4.17,4.17,0,0,1-3-7.12L253.37,219a4.17,4.17,0,0,1,5.9,5.9l-12.52,12.52A4.16,4.16,0,0,1,243.8,238.63Z"/><path class="cls-3" d="M368.42,513.18H115.49v-60.8H368.42a25.69,25.69,0,0,1,25.69,25.69v9.42A25.69,25.69,0,0,1,368.42,513.18Z"/><path class="cls-4" d="M368.42,452.38h-13.9v60.8h13.9a25.69,25.69,0,0,0,25.69-25.69v-9.42A25.69,25.69,0,0,0,368.42,452.38Z"/><path class="cls-1" d="M368.42,520.14H115.49a7,7,0,0,1-7-7v-60.8a7,7,0,0,1,7-7H368.42a32.68,32.68,0,0,1,32.64,32.65v9.42A32.68,32.68,0,0,1,368.42,520.14Zm-246-13.91h246a18.76,18.76,0,0,0,18.73-18.74v-9.42a18.76,18.76,0,0,0-18.73-18.74h-246Z"/><polygon class="cls-5" points="115.49 482.78 115.49 482.78 129.05 467.58 115.49 452.38 115.49 452.38 115.49 452.38 115.49 452.38 115.49 452.38 61.44 482.78 115.49 513.18 115.49 513.18 115.49 513.18 115.49 513.18 115.49 513.18 129.05 497.98 115.49 482.78"/><polygon class="cls-1" points="86.98 468.41 61.44 482.78 86.98 498.05 86.98 468.41"/><path class="cls-1" d="M115.48,520.14a6.84,6.84,0,0,1-3.4-.9l-54-30.4a6.95,6.95,0,0,1,0-12.12l54.05-30.4a6.94,6.94,0,0,1,8.59,1.43L134.24,463a7,7,0,0,1,0,9.26l-9.43,10.57,9.43,10.57a7,7,0,0,1,0,9.26l-13.56,15.2A7,7,0,0,1,115.48,520.14ZM75.62,482.78l38.4,21.6,5.71-6.4-9.43-10.57a6.94,6.94,0,0,1,0-9.26l9.43-10.57-5.71-6.4Z"/><path class="cls-1" d="M330.25,471.75H129.05a4.17,4.17,0,1,1,0-8.34h201.2a4.17,4.17,0,1,1,0,8.34Z"/><path class="cls-1" d="M330.25,502.22H129.05a4.17,4.17,0,1,1,0-8.34h201.2a4.17,4.17,0,1,1,0,8.34Z"/><rect class="cls-5" x="332.45" y="452.38" width="22.08" height="60.81"/><path class="cls-1" d="M354.52,517.36H332.45a4.18,4.18,0,0,1-4.18-4.18v-60.8a4.17,4.17,0,0,1,4.18-4.17h22.07a4.16,4.16,0,0,1,4.17,4.17v60.8A4.17,4.17,0,0,1,354.52,517.36ZM336.62,509h13.73V456.55H336.62Z"/><path class="cls-3" d="M561.24,414.56C531,390,529.73,370.64,529.73,370.64s1.3-19.32,31.51-43.92c32.24-26.25,31.51-71.22,31.51-71.22H442.55s-.74,45,31.51,71.22c30.21,24.6,31.5,43.92,31.5,43.92s-1.29,19.32-31.5,43.92c-32.25,26.26-31.51,71.22-31.51,71.22h150.2S593.48,440.82,561.24,414.56Z"/><circle class="cls-6" cx="517.69" cy="377.08" r="11.88"/><path class="cls-6" d="M456.4,306a77,77,0,0,0,17.66,20.73c30.21,24.6,31.5,43.92,31.5,43.92h24.17s1.3-19.32,31.51-43.92A77,77,0,0,0,578.9,306Z"/><path class="cls-6" d="M587,452.86s-21.63.22-37.75-10.35c-16.36-10.73-46.71-10.73-63.07,0-16.11,10.57-37.74,10.35-37.74,10.35s-6.35,22.68-5.84,32.92H592.79C593.29,475.54,587,452.86,587,452.86Z"/><path class="cls-1" d="M592.75,492.73H442.55a7,7,0,0,1-7-6.84c0-2-.39-48.66,34.07-76.72,24.22-19.72,28.29-35.45,28.88-38.55-.55-2.94-4.57-18.71-28.88-38.51-34.46-28.06-34.1-74.74-34.07-76.72a7,7,0,0,1,7-6.84h150.2a7,7,0,0,1,7,6.84c0,2,.4,48.66-34.07,76.72-24.21,19.72-28.28,35.45-28.88,38.56.56,2.93,4.58,18.71,28.88,38.5h0c34.47,28.06,34.11,74.75,34.07,76.72A6.94,6.94,0,0,1,592.75,492.73ZM449.88,478.82H585.4c-1.26-12.86-6.54-40.95-28.55-58.87h0c-31.64-25.76-33.9-46.56-34.05-48.84a7.22,7.22,0,0,1,0-.93c.15-2.29,2.41-23.08,34.05-48.85,22.11-18,27.34-46,28.57-58.87H449.9c1.26,12.86,6.54,41,28.55,58.87,31.64,25.77,33.9,46.56,34.05,48.85a7.22,7.22,0,0,1,0,.93c-.15,2.28-2.41,23.08-34.05,48.84C456.34,438,451.11,466,449.88,478.82Z"/><rect class="cls-6" x="414.92" y="227.02" width="205.45" height="28.49" rx="7.02"/><rect class="cls-6" x="414.92" y="485.78" width="205.45" height="28.49" rx="7.02"/><path class="cls-1" d="M607.86,262.46H427.44A19.49,19.49,0,0,1,408,243v-3.46a19.49,19.49,0,0,1,19.47-19.47H607.86a19.5,19.5,0,0,1,19.47,19.47V243A19.5,19.5,0,0,1,607.86,262.46ZM427.44,234a5.57,5.57,0,0,0-5.56,5.56V243a5.57,5.57,0,0,0,5.56,5.56H607.86a5.57,5.57,0,0,0,5.56-5.56v-3.46a5.57,5.57,0,0,0-5.56-5.56Z"/><path class="cls-1" d="M607.86,521.22H427.44A19.49,19.49,0,0,1,408,501.75V498.3a19.5,19.5,0,0,1,19.47-19.48H607.86a19.5,19.5,0,0,1,19.47,19.48v3.45A19.49,19.49,0,0,1,607.86,521.22ZM427.44,492.73a5.57,5.57,0,0,0-5.56,5.57v3.45a5.56,5.56,0,0,0,5.56,5.56H607.86a5.57,5.57,0,0,0,5.56-5.56V498.3a5.58,5.58,0,0,0-5.56-5.57Z"/><circle class="cls-6" cx="517.69" cy="401.47" r="6.88"/><circle class="cls-6" cx="517.69" cy="421.41" r="6.88"/></g></g></svg>