<svg xmlns="http://www.w3.org/2000/svg" viewBox="0 0 688.97 554.44"><defs><style>.cls-1{fill:#d3d3d3;}.cls-2{fill:#2c2c2c;}.cls-3{fill:#fff;}.cls-4{fill:#fed443;}.cls-5{fill:#004b93;}</style></defs><g id="Layer_2" data-name="Layer 2"><g id="Capa_1" data-name="Capa 1"><path class="cls-1" d="M548.28,246.56a18.12,18.12,0,0,0-18.12-18.12H154.84a18.13,18.13,0,0,0-18.13,18.12V510H548.28Z"/><path class="cls-2" d="M548.28,517a7,7,0,0,0,7-7V246.56a25.1,25.1,0,0,0-25.07-25.08H154.84a25.11,25.11,0,0,0-25.08,25.08V510a7,7,0,0,0,7,7ZM143.67,246.56a11.18,11.18,0,0,1,11.17-11.17H530.16a11.18,11.18,0,0,1,11.17,11.17V503.05H143.67Z"/><rect class="cls-3" x="160.08" y="251.8" width="364.84" height="213.87" rx="2.85"/><path class="cls-2" d="M522.07,469.84a7,7,0,0,0,7-7V254.65a7,7,0,0,0-7-7H162.92a7,7,0,0,0-7,7V462.83a7,7,0,0,0,7,7ZM164.25,256H520.74V461.5H164.25Z"/><path class="cls-4" d="M552.32,546.55a31,31,0,0,0,31-31V487.43H387.77a19.15,19.15,0,0,1-18.91,16.17H316.14a19.16,19.16,0,0,1-18.92-16.17H101.67v28.11a31,31,0,0,0,31,31Z"/><path class="cls-2" d="M552.32,553.5a38,38,0,0,0,38-38V487.43a7,7,0,0,0-6.95-7H387.77a7,7,0,0,0-6.87,5.88,12.13,12.13,0,0,1-12,10.3H316.14a12.14,12.14,0,0,1-12.05-10.3,7,7,0,0,0-6.87-5.88H101.67a7,7,0,0,0-7,7v28.11a38,38,0,0,0,38,38Zm-443.7-38V494.38H292a26,26,0,0,0,24.16,16.18h52.72A26,26,0,0,0,393,494.38H576.37v21.16a24.08,24.08,0,0,1-24,24.05H132.68A24.08,24.08,0,0,1,108.62,515.54Z"/><rect class="cls-5" x="153.37" y="87.33" width="421.37" height="295.2" transform="translate(76.31 558.85) rotate(-81.22)"/><path class="cls-2" d="M477.12,469.8a4.58,4.58,0,0,0,.64,0,4.13,4.13,0,0,0,2.46-.8,4.18,4.18,0,0,0,1.66-2.73L546.22,49.88a4.23,4.23,0,0,0-.76-3.1,4.15,4.15,0,0,0-2.73-1.66L251,.05a4.18,4.18,0,0,0-4.77,3.49L181.9,420a4.18,4.18,0,0,0,3.49,4.76ZM253.85,8.93l283.48,43.8L474.27,460.91,190.79,417.12Z"/><path class="cls-2" d="M304.09,93.62a3.45,3.45,0,0,0,.64,0,4.16,4.16,0,0,0,4.12-3.53L314,56.71A4.17,4.17,0,0,0,310.53,52L277.1,46.78a4.18,4.18,0,0,0-4.76,3.49L267.18,83.7a4.17,4.17,0,0,0,3.48,4.76ZM280,55.67l25.18,3.89-3.89,25.18-25.18-3.89Z"/><path class="cls-2" d="M501.79,94.39a4.74,4.74,0,0,0,.65,0,4.18,4.18,0,0,0,.63-8.3L332.52,59.79A4.17,4.17,0,1,0,331.25,68Z"/><path class="cls-2" d="M498,119.13a4.72,4.72,0,0,0,.64.05,4.18,4.18,0,0,0,.64-8.3L328.7,84.53a4.17,4.17,0,1,0-1.27,8.25Z"/><path class="cls-2" d="M293.59,161.63a4.6,4.6,0,0,0,.64.05,4.18,4.18,0,0,0,4.12-3.54l5.16-33.43A4.17,4.17,0,0,0,300,120l-33.42-5.16a4.18,4.18,0,0,0-4.77,3.48l-5.16,33.43a4.17,4.17,0,0,0,3.49,4.76Zm-24.15-38,25.19,3.89-3.89,25.18-25.19-3.89Z"/><path class="cls-2" d="M491.29,162.39a4.6,4.6,0,0,0,.64.05,4.17,4.17,0,0,0,.63-8.29L322,127.8a4.17,4.17,0,0,0-1.28,8.24Z"/><path class="cls-2" d="M487.47,187.13a4.6,4.6,0,0,0,.64.05,4.17,4.17,0,0,0,.63-8.29L318.2,152.54a4.17,4.17,0,1,0-1.28,8.24Z"/><path class="cls-2" d="M249.65,224.47l33.43,5.16a3.52,3.52,0,0,0,.64.05,4.17,4.17,0,0,0,4.12-3.53L293,192.72a4.25,4.25,0,0,0-.76-3.11,4.2,4.2,0,0,0-2.73-1.65l-33.43-5.17a4.17,4.17,0,0,0-4.76,3.49l-5.17,33.43a4.18,4.18,0,0,0,3.49,4.76Zm9.29-32.79,25.18,3.89-3.89,25.18-25.18-3.89Z"/><path class="cls-2" d="M480.78,230.4a4.72,4.72,0,0,0,.64,0,4.18,4.18,0,0,0,.64-8.3L311.51,195.8a4.17,4.17,0,0,0-1.27,8.25Z"/><path class="cls-2" d="M477,255.14a4.72,4.72,0,0,0,.64.05,4.17,4.17,0,0,0,.63-8.3L307.69,220.54a4.17,4.17,0,1,0-1.27,8.25Z"/><path class="cls-2" d="M272.57,297.64a4.72,4.72,0,0,0,.64.05,4.17,4.17,0,0,0,2.47-.81,4.12,4.12,0,0,0,1.65-2.73l5.17-33.43A4.17,4.17,0,0,0,279,256l-33.43-5.16a4.16,4.16,0,0,0-4.76,3.48l-5.16,33.43a4.17,4.17,0,0,0,3.49,4.76Zm-24.14-38,25.19,3.89-3.9,25.18-25.18-3.89Z"/><path class="cls-2" d="M470.28,298.4a3.45,3.45,0,0,0,.64.05,4.17,4.17,0,0,0,.63-8.29L301,263.81a4.17,4.17,0,0,0-1.28,8.24Z"/><path class="cls-2" d="M466.45,323.14a4.74,4.74,0,0,0,.65.05,4.17,4.17,0,0,0,.63-8.29L297.18,288.55a4.17,4.17,0,1,0-1.27,8.24Z"/><path class="cls-2" d="M452.77,411.68a3.56,3.56,0,0,0,.65.05,4.16,4.16,0,0,0,4.11-3.53l9.64-62.34a4.18,4.18,0,0,0-3.49-4.76l-62.34-9.63a4.18,4.18,0,0,0-4.76,3.49L387,397.29a4.17,4.17,0,0,0,3.49,4.76Zm-48.58-71.33,54.09,8.36-8.36,54.09-54.09-8.36Z"/><path class="cls-2" d="M286.79,77.35a4.11,4.11,0,0,0,1.2.18,4.17,4.17,0,0,0,2.09-.56L300.31,71a4.17,4.17,0,0,0-4.18-7.22l-6.39,3.7-1.38-2.76a4.17,4.17,0,0,0-7.46,3.73l3.36,6.73A4.15,4.15,0,0,0,286.79,77.35Z"/><path class="cls-2" d="M286,150.5a4.18,4.18,0,0,0,3.36-6.64l-11.89-16.23a4.17,4.17,0,1,0-6.73,4.93l11.89,16.23A4.16,4.16,0,0,0,286,150.5Z"/><path class="cls-2" d="M272,148.32a4.18,4.18,0,0,0,2.46-.8l16.23-11.89a4.17,4.17,0,1,0-4.93-6.73l-16.23,11.89a4.17,4.17,0,0,0,2.47,7.53Z"/><rect class="cls-3" x="184.37" y="44.3" width="295.2" height="421.37"/><path class="cls-2" d="M479.57,469.84a4.17,4.17,0,0,0,4.17-4.17V44.3a4.17,4.17,0,0,0-4.17-4.17H184.37a4.17,4.17,0,0,0-4.17,4.17V465.67a4.17,4.17,0,0,0,4.17,4.17Zm-291-421.37H475.4v413H188.55Z"/><path class="cls-2" d="M251.13,124.5a4.18,4.18,0,0,0,4.18-4.17V86.5a4.18,4.18,0,0,0-4.18-4.17H217.31a4.17,4.17,0,0,0-4.17,4.17v33.83a4.17,4.17,0,0,0,4.17,4.17ZM221.48,90.67H247v25.49H221.48Z"/><path class="cls-2" d="M446.63,95.07a4.17,4.17,0,1,0,0-8.34H274.07a4.17,4.17,0,0,0,0,8.34Z"/><path class="cls-2" d="M446.63,120.1a4.17,4.17,0,1,0,0-8.34H274.07a4.17,4.17,0,0,0,0,8.34Z"/><path class="cls-2" d="M251.13,193.31a4.18,4.18,0,0,0,4.18-4.17V155.31a4.18,4.18,0,0,0-4.18-4.17H217.31a4.17,4.17,0,0,0-4.17,4.17v33.83a4.17,4.17,0,0,0,4.17,4.17Zm-29.65-33.82H247V185H221.48Z"/><path class="cls-2" d="M446.63,163.88a4.17,4.17,0,1,0,0-8.34H274.07a4.17,4.17,0,0,0,0,8.34Z"/><path class="cls-2" d="M446.63,188.92a4.18,4.18,0,1,0,0-8.35H274.07a4.18,4.18,0,0,0,0,8.35Z"/><path class="cls-2" d="M251.13,262.12a4.17,4.17,0,0,0,4.18-4.17V224.13a4.18,4.18,0,0,0-4.18-4.18H217.31a4.17,4.17,0,0,0-4.17,4.18V258a4.16,4.16,0,0,0,4.17,4.17ZM221.48,228.3H247v25.48H221.48Z"/><path class="cls-2" d="M446.63,232.69a4.17,4.17,0,1,0,0-8.34H274.07a4.17,4.17,0,0,0,0,8.34Z"/><path class="cls-2" d="M446.63,257.73a4.18,4.18,0,1,0,0-8.35H274.07a4.18,4.18,0,0,0,0,8.35Z"/><path class="cls-2" d="M251.13,330.94a4.18,4.18,0,0,0,4.18-4.18V292.94a4.18,4.18,0,0,0-4.18-4.18H217.31a4.17,4.17,0,0,0-4.17,4.18v33.82a4.17,4.17,0,0,0,4.17,4.18Zm-29.65-33.83H247v25.48H221.48Z"/><path class="cls-2" d="M446.63,301.51a4.18,4.18,0,1,0,0-8.35H274.07a4.18,4.18,0,0,0,0,8.35Z"/><path class="cls-2" d="M446.63,326.54a4.18,4.18,0,1,0,0-8.35H274.07a4.18,4.18,0,0,0,0,8.35Z"/><path class="cls-2" d="M446.63,416.13a4.18,4.18,0,0,0,4.18-4.17V348.88a4.18,4.18,0,0,0-4.18-4.17H383.56a4.18,4.18,0,0,0-4.18,4.17V412a4.18,4.18,0,0,0,4.18,4.17Zm-58.9-63.07h54.73v54.73H387.73Z"/><path class="cls-2" d="M231.55,111.06a3.77,3.77,0,0,0,.58,0,4.2,4.2,0,0,0,2.62-.92l9.2-7.42a4.17,4.17,0,1,0-5.23-6.5L233,100.9l-1.78-2.52a4.17,4.17,0,0,0-6.81,4.82l4.34,6.14A4.15,4.15,0,0,0,231.55,111.06Z"/><path class="cls-2" d="M241.34,183.51a4.17,4.17,0,0,0,2.95-7.12l-14.23-14.23a4.17,4.17,0,0,0-5.9,5.9l14.23,14.23A4.12,4.12,0,0,0,241.34,183.51Z"/><path class="cls-2" d="M230.06,182.29l14.23-14.23a4.17,4.17,0,0,0-5.9-5.9l-14.23,14.23a4.17,4.17,0,0,0,0,5.9,4.18,4.18,0,0,0,5.9,0Z"/><path class="cls-5" d="M313.06,488.37V454.44H91.2A10.16,10.16,0,0,0,81,464.6v13.6A10.16,10.16,0,0,0,91.2,488.37Z"/><path class="cls-2" d="M313.06,492.54a4.17,4.17,0,0,0,4.17-4.17V454.44a4.17,4.17,0,0,0-4.17-4.18H91.2A14.36,14.36,0,0,0,76.87,464.6v13.61A14.35,14.35,0,0,0,91.2,492.54ZM85.21,478.21V464.6a6,6,0,0,1,6-6H308.89V484.2H91.2A6,6,0,0,1,85.21,478.21Z"/><polygon class="cls-1" points="327.78 462.94 313.06 454.44 313.06 471.43 313.06 488.43 327.78 479.93 342.5 471.43 327.78 462.94"/><path class="cls-2" d="M313.06,492.6a4.23,4.23,0,0,0,2.09-.56l29.43-17a4.17,4.17,0,0,0,0-7.23l-29.43-17a4.18,4.18,0,0,0-6.26,3.62v34a4.18,4.18,0,0,0,4.17,4.17Zm4.17-30.94,16.92,9.77-16.92,9.77Z"/><path class="cls-1" d="M81,482V460.81H67.13a7.27,7.27,0,0,0-7.28,7.28v6.63A7.27,7.27,0,0,0,67.13,482Z"/><path class="cls-2" d="M81,486.17A4.17,4.17,0,0,0,85.21,482V460.81A4.18,4.18,0,0,0,81,456.63H67.12a11.47,11.47,0,0,0-11.45,11.46v6.63a11.46,11.46,0,0,0,11.45,11.45ZM64,474.72v-6.63a3.1,3.1,0,0,1,3.1-3.11h9.75v12.85H67.12A3.11,3.11,0,0,1,64,474.72Z"/><path class="cls-3" d="M167,488.37V454.44H91.2A10.16,10.16,0,0,0,81,464.6v13.6A10.16,10.16,0,0,0,91.2,488.37Z"/><path class="cls-2" d="M167,492.54a4.17,4.17,0,0,0,4.17-4.17V454.44a4.18,4.18,0,0,0-4.17-4.18H91.2A14.36,14.36,0,0,0,76.87,464.6v13.6A14.35,14.35,0,0,0,91.2,492.54ZM85.21,478.2V464.6a6,6,0,0,1,6-6h71.66V484.2H91.2A6,6,0,0,1,85.21,478.2Z"/><path class="cls-2" d="M85.21,468.89v-16A5.79,5.79,0,0,1,91,447.09h30.52a4.17,4.17,0,1,0,0-8.34H91a14.14,14.14,0,0,0-14.13,14.12v16a4.17,4.17,0,1,0,8.34,0Z"/><path class="cls-2" d="M682,554.44a7,7,0,0,0,0-13.91H7a7,7,0,0,0,0,13.91Z"/></g></g></svg>