<svg xmlns="http://www.w3.org/2000/svg" viewBox="0 0 688.97 548.74"><defs><style>.cls-1{fill:#2c2c2c;}.cls-2{fill:#fff;}.cls-3{fill:#004b93;}.cls-4{fill:#d3d3d3;}.cls-5{fill:#fed443;}.cls-6{fill:#aeaeae;}</style></defs><g id="Layer_2" data-name="Layer 2"><g id="Capa_1" data-name="Capa 1"><path class="cls-1" d="M682,548.74a6.95,6.95,0,1,0,0-13.9H7a6.95,6.95,0,1,0,0,13.9Z"/><rect class="cls-2" x="164.12" y="72.61" width="360.34" height="469.18"/><path class="cls-1" d="M524.45,548.74a7,7,0,0,0,7-7V72.61a7,7,0,0,0-7-7H164.12a7,7,0,0,0-7,7V541.79a7,7,0,0,0,7,7ZM171.07,79.56H517.5V534.84H171.07Z"/><path class="cls-1" d="M243.9,149.5a4.18,4.18,0,0,0,4.17-4.18v-42a4.17,4.17,0,0,0-4.17-4.17h-42a4.17,4.17,0,0,0-4.17,4.17v42a4.18,4.18,0,0,0,4.17,4.18Zm-37.84-42h33.67v33.66H206.06Z"/><path class="cls-1" d="M486.68,113a4.17,4.17,0,1,0,0-8.34H272.38a4.17,4.17,0,0,0,0,8.34Z"/><path class="cls-1" d="M486.68,144a4.18,4.18,0,0,0,0-8.35H272.38a4.18,4.18,0,0,0,0,8.35Z"/><path class="cls-1" d="M243.9,235a4.17,4.17,0,0,0,4.17-4.17v-42a4.17,4.17,0,0,0-4.17-4.17h-42a4.17,4.17,0,0,0-4.17,4.17v42a4.17,4.17,0,0,0,4.17,4.17Zm-37.84-42h33.67v33.67H206.06Z"/><path class="cls-1" d="M486.68,198.4a4.17,4.17,0,1,0,0-8.34H272.38a4.17,4.17,0,0,0,0,8.34Z"/><path class="cls-1" d="M486.68,229.49a4.17,4.17,0,1,0,0-8.34H272.38a4.17,4.17,0,1,0,0,8.34Z"/><path class="cls-1" d="M243.9,320.4a4.17,4.17,0,0,0,4.17-4.17v-42a4.18,4.18,0,0,0-4.17-4.18h-42a4.18,4.18,0,0,0-4.17,4.18v42a4.17,4.17,0,0,0,4.17,4.17Zm-37.84-42h33.67v33.66H206.06Z"/><path class="cls-1" d="M486.68,283.86a4.18,4.18,0,0,0,0-8.35H272.38a4.18,4.18,0,0,0,0,8.35Z"/><path class="cls-1" d="M486.68,315a4.18,4.18,0,0,0,0-8.35H272.38a4.18,4.18,0,0,0,0,8.35Z"/><path class="cls-1" d="M243.9,405.86a4.17,4.17,0,0,0,4.17-4.17v-42a4.17,4.17,0,0,0-4.17-4.17h-42a4.17,4.17,0,0,0-4.17,4.17v42a4.17,4.17,0,0,0,4.17,4.17Zm-37.84-42h33.67v33.66H206.06Z"/><path class="cls-1" d="M486.68,369.31a4.17,4.17,0,1,0,0-8.34H272.38a4.17,4.17,0,1,0,0,8.34Z"/><path class="cls-1" d="M486.68,400.4a4.18,4.18,0,0,0,0-8.35H272.38a4.18,4.18,0,0,0,0,8.35Z"/><path class="cls-1" d="M486.68,511.66a4.17,4.17,0,0,0,4.17-4.17V429.16a4.18,4.18,0,0,0-4.17-4.18H408.35a4.18,4.18,0,0,0-4.18,4.18v78.33a4.18,4.18,0,0,0,4.18,4.17Zm-74.16-78.33h70v70h-70Z"/><path class="cls-1" d="M219.72,132.82a3.64,3.64,0,0,0,.57,0,4.16,4.16,0,0,0,2.62-.92l11.44-9.21a4.17,4.17,0,1,0-5.24-6.5l-8,6.43-2.83-4a4.17,4.17,0,0,0-6.81,4.83l5.4,7.62A4.19,4.19,0,0,0,219.72,132.82Z"/><path class="cls-1" d="M231.73,222.78a4.12,4.12,0,0,0,3-1.22,4.17,4.17,0,0,0,0-5.9L217,198a4.17,4.17,0,0,0-5.9,5.9l17.67,17.67A4.12,4.12,0,0,0,231.73,222.78Z"/><path class="cls-1" d="M217,221.56l17.67-17.67a4.17,4.17,0,1,0-5.9-5.9l-17.67,17.67a4.17,4.17,0,0,0,0,5.9,4.18,4.18,0,0,0,5.9,0Z"/><path class="cls-3" d="M478.08,26h-14a10.47,10.47,0,0,0-10.47,10.47V264.88h34.94V36.46A10.47,10.47,0,0,0,478.08,26Z"/><path class="cls-1" d="M488.55,269.05a4.17,4.17,0,0,0,4.17-4.17V36.46a14.66,14.66,0,0,0-14.64-14.64h-14a14.66,14.66,0,0,0-14.64,14.64V264.88a4.17,4.17,0,0,0,4.17,4.17ZM457.79,36.46a6.3,6.3,0,0,1,6.29-6.3h14a6.31,6.31,0,0,1,6.3,6.3V260.7H457.79Z"/><polygon class="cls-4" points="479.8 280.03 488.55 264.88 471.05 264.88 453.56 264.88 462.3 280.03 471.05 295.18 479.8 280.03"/><path class="cls-1" d="M471.05,299.35a4.19,4.19,0,0,0,3.62-2.08L492.16,267a4.18,4.18,0,0,0-3.61-6.26h-35a4.18,4.18,0,0,0-3.61,6.26l17.5,30.31A4.16,4.16,0,0,0,471.05,299.35Zm10.27-30.3-10.27,17.79-10.27-17.79Z"/><path class="cls-4" d="M474.5,4.17h-6.83a7.5,7.5,0,0,0-7.5,7.5V26H482V11.67A7.49,7.49,0,0,0,474.5,4.17Z"/><path class="cls-1" d="M482,30.16A4.16,4.16,0,0,0,486.16,26V11.67A11.67,11.67,0,0,0,474.5,0h-6.83A11.68,11.68,0,0,0,456,11.67V26a4.17,4.17,0,0,0,4.17,4.17ZM464.34,11.67a3.33,3.33,0,0,1,3.33-3.33h6.83a3.33,3.33,0,0,1,3.32,3.33V21.82H464.34Z"/><path class="cls-2" d="M478.08,26h-14a10.47,10.47,0,0,0-10.47,10.47v78.07h34.94V36.46A10.47,10.47,0,0,0,478.08,26Z"/><path class="cls-1" d="M488.55,118.71a4.18,4.18,0,0,0,4.17-4.18V36.46a14.66,14.66,0,0,0-14.64-14.64h-14a14.66,14.66,0,0,0-14.64,14.64v78.07a4.18,4.18,0,0,0,4.17,4.18ZM457.79,36.46a6.3,6.3,0,0,1,6.29-6.3h14a6.31,6.31,0,0,1,6.3,6.3v73.9H457.79Z"/><path class="cls-1" d="M500.41,71.84a4.17,4.17,0,0,0,4.17-4.17V36.24a14.44,14.44,0,0,0-14.42-14.42H473.67a4.17,4.17,0,0,0,0,8.34h16.49a6.09,6.09,0,0,1,6.08,6.08V67.67A4.17,4.17,0,0,0,500.41,71.84Z"/><path class="cls-5" d="M158.89,538.4c1,0,14.16-.48,53.93-17,11.38-4.74,32.22-2.53,44.44-.62a11,11,0,0,0,12.24-8L278,480.78l8.47-31.91a10.94,10.94,0,0,0-6.65-13C268.23,431.42,249,423,241.51,413.25c-26.33-34.11-37.56-41.06-38.39-41.55A94.25,94.25,0,0,0,51.71,427.29c-9.12,46.36,18.34,93,63.27,107.61A93.89,93.89,0,0,0,158.89,538.4Z"/><circle class="cls-2" cx="134.64" cy="452.47" r="62.72" transform="translate(-31.74 10.68) rotate(-4.07)"/><path class="cls-1" d="M112.83,541.51a100.22,100.22,0,0,0,46.72,3.83c3.71-.19,18.58-2,55.95-17.57,7.24-3,22.07-3.08,40.69-.17a17.86,17.86,0,0,0,20-13.12l16.94-63.83a17.85,17.85,0,0,0-10.9-21.32C264.65,422.62,251.8,415.21,247,409c-24.73-32-36.75-41-39.87-43a100.59,100.59,0,0,0-36.95-18.54,101.61,101.61,0,0,0-79.62,12,101.31,101.31,0,0,0,22.26,182ZM58.53,428.64A87.46,87.46,0,0,1,144,357.94a88.12,88.12,0,0,1,22.62,3,86.7,86.7,0,0,1,32.15,16.22,9,9,0,0,0,.81.56c.11.06,11,6.83,36.42,39.81,8.22,10.64,27,19.37,41.31,24.83a4,4,0,0,1,2.41,4.75l-16.94,63.83a4,4,0,0,1-4.44,2.94c-15.14-2.36-35.78-4.09-48.19,1.08-38.46,16-51.24,16.52-51.35,16.52a6.76,6.76,0,0,0-1,.09,87.3,87.3,0,0,1-99.27-102.9Z"/><rect class="cls-2" x="282.17" y="476.83" width="90.9" height="34.25" rx="13.01" transform="matrix(0.26, -0.97, 0.97, 0.26, -233.84, 683.94)"/><rect class="cls-2" x="249.07" y="468.05" width="90.9" height="34.25" rx="13.01" transform="translate(-249.96 645.41) rotate(-75.14)"/><path class="cls-1" d="M318.16,545.66a19.68,19.68,0,0,0,5.12.67,20,20,0,0,0,19.3-14.84l16.63-62.71A20,20,0,0,0,345,444.36l-8-2.11a20,20,0,0,0-24.41,14.17h0L296,519.14a20,20,0,0,0,14.17,24.41Zm-8.69-23L326.11,460h0a6.08,6.08,0,0,1,7.41-4.3l8,2.12a6.08,6.08,0,0,1,4.3,7.4l-16.64,62.71a6.06,6.06,0,0,1-7.4,4.3l-8-2.11A6.08,6.08,0,0,1,309.47,522.7Z"/><path class="cls-1" d="M277.1,534.77l8,2.11a20,20,0,0,0,24.41-14.18L326.11,460a20,20,0,0,0-14.17-24.41l-8-2.11a20,20,0,0,0-24.41,14.17l-16.64,62.71a20,20,0,0,0,14.17,24.42Zm9.2-85.34h0Zm-9.93,64.49L293,451.21a6.11,6.11,0,0,1,5.87-4.5,6.12,6.12,0,0,1,1.53.2l8,2.11a6.1,6.1,0,0,1,4.3,7.41L296,519.14a6.09,6.09,0,0,1-7.4,4.3l-8-2.12a6.09,6.09,0,0,1-4.3-7.4Z"/><path class="cls-6" d="M368.53,513.4l4.26-16c2.95-11.13-6.55-23.4-21.12-27.27l-15,56.54C351.24,530.48,365.58,524.53,368.53,513.4Z"/><path class="cls-1" d="M334.89,533.34a41.61,41.61,0,0,0,10.64,1.4c14.23,0,26.55-7.61,29.72-19.56l4.26-16c3.94-14.87-7.74-30.92-26.05-35.78A7,7,0,0,0,345,468.3l-15,56.53a7,7,0,0,0,4.94,8.51Zm21.5-53.92c7,3.93,11.2,10.43,9.68,16.15l-4.26,16c-1.52,5.73-8.33,9.31-16.41,9.23Z"/><path class="cls-1" d="M126.55,475l36.5-.81,90.47,24a3.88,3.88,0,0,0,1.07.14,4.17,4.17,0,0,0,1.07-8.2l-91-24.16a3.87,3.87,0,0,0-1.17-.14l-37.08.83a4.17,4.17,0,0,0,.09,8.34Z"/><path class="cls-1" d="M134.89,474.24a4.17,4.17,0,0,0,5.87-.67l7.32-9.2a4.17,4.17,0,0,0,.34-4.69l-2.6-4.48,6.82-4.94a4.18,4.18,0,0,0,1.36-5.1l-3.48-7.68,4.48-2.6a4.17,4.17,0,0,0,2-4.24L155.23,419a4.17,4.17,0,0,0-8.25,1.27l1.37,8.81-5.27,3.06a4.16,4.16,0,0,0-1.71,5.32l3.62,8-7.12,5.16a4.18,4.18,0,0,0-1.16,5.47l3.06,5.27-5.55,7A4.18,4.18,0,0,0,134.89,474.24Z"/><path class="cls-1" d="M171.11,437a4.29,4.29,0,0,0,1.08.46l91,24.15a4,4,0,0,0,1.07.15,4.18,4.18,0,0,0,1.07-8.21l-90.47-24-31.29-18.79a4.17,4.17,0,1,0-4.3,7.15Z"/><path class="cls-1" d="M272,503.12a4.43,4.43,0,0,0,1.07.14,4.17,4.17,0,0,0,4-3.11l9.72-36.6a4.19,4.19,0,0,0-3-5.11L263.52,453a7.2,7.2,0,0,0-8.81,5.11l-8.16,30.75a7.22,7.22,0,0,0,5.12,8.81Zm-9.26-42.83Zm-4-1.07h0Zm3.73,2.18,15.23,4L270.15,494l-15.24-4Z"/><path class="cls-1" d="M682,548.74a6.95,6.95,0,1,0,0-13.9H7a6.95,6.95,0,1,0,0,13.9Z"/></g></g></svg>