<svg xmlns="http://www.w3.org/2000/svg" viewBox="0 0 688.97 469.85"><defs><style>.cls-1{fill:#fed443;}.cls-2{fill:#2c2c2c;}.cls-3{fill:#fff;}.cls-4{fill:#aeaeae;}.cls-5{fill:#004b93;}</style></defs><g id="Layer_2" data-name="Layer 2"><g id="Capa_1" data-name="Capa 1"><rect class="cls-1" x="87.08" y="17.79" width="497.14" height="354.42" rx="12.33"/><path class="cls-2" d="M562.25,379.17H109.05a29,29,0,0,1-28.93-28.93V39.76a29,29,0,0,1,28.93-28.92h453.2a29,29,0,0,1,28.92,28.92V350.24A29,29,0,0,1,562.25,379.17ZM109.05,24.75a15,15,0,0,0-15,15V350.24a15,15,0,0,0,15,15h453.2a15,15,0,0,0,15-15V39.76a15,15,0,0,0-15-15Z"/><rect class="cls-3" x="114.92" y="48.61" width="441.46" height="257.56"/><path class="cls-2" d="M556.38,313.13H114.92a7,7,0,0,1-7-7V48.61a7,7,0,0,1,7-7H556.38a7,7,0,0,1,7,7V306.17A7,7,0,0,1,556.38,313.13ZM121.87,299.22H549.42V55.57H121.87Z"/><circle class="cls-2" cx="335.65" cy="338.29" r="13.98"/><path class="cls-3" d="M400.71,372.21H270.59c.66,39.3-29.17,53.36-29.17,53.36H429.88S400.05,411.51,400.71,372.21Z"/><path class="cls-2" d="M429.88,432.52H241.42a7,7,0,0,1-3-13.25c1-.49,25.76-12.87,25.18-46.94a7,7,0,0,1,7-7.07H400.71a6.95,6.95,0,0,1,7,7.07c-.58,34.41,24.92,46.82,25.18,46.94a7,7,0,0,1-3,13.25ZM261.19,418.61H410.11c-7.48-8.37-14.89-21.14-16.17-39.44H277.36C276.07,397.47,268.66,410.24,261.19,418.61Z"/><rect class="cls-4" x="204.84" y="425.57" width="261.62" height="35.33" rx="5.21"/><path class="cls-2" d="M457.18,467.85H214.12a16.26,16.26,0,0,1-16.24-16.23V434.85a16.26,16.26,0,0,1,16.24-16.24H457.18a16.25,16.25,0,0,1,16.23,16.24v16.77A16.25,16.25,0,0,1,457.18,467.85ZM214.12,432.52a2.33,2.33,0,0,0-2.33,2.33v16.77a2.33,2.33,0,0,0,2.33,2.32H457.18a2.32,2.32,0,0,0,2.32-2.32V434.85a2.32,2.32,0,0,0-2.32-2.33Z"/><path class="cls-5" d="M334.26,58.66S217.75,38,151.61,43.49V258.3h168.7s1.21,6.06,13.95,6.06,14-6.06,14-6.06H516.91V43.49C450.77,38,334.26,58.66,334.26,58.66Z"/><path class="cls-2" d="M334.26,268.54c-9.88,0-14.39-3.35-16.43-6.07H151.61a4.17,4.17,0,0,1-4.17-4.17V43.48a4.16,4.16,0,0,1,3.83-4.15c63.92-5.28,172.14,13.19,183,15.09,10.85-1.9,119.07-20.37,183-15.09a4.17,4.17,0,0,1,3.83,4.15V258.3a4.18,4.18,0,0,1-4.18,4.17H350.7C348.66,265.19,344.14,268.54,334.26,268.54Zm-9.87-11.25c.36.59,2.3,2.9,9.87,2.9s9.51-2.31,9.88-2.9c.15-2.13,1.88-3.17,4.08-3.17H512.74V47.36C447.29,43.07,336.13,62.56,335,62.76a4,4,0,0,1-1.46,0c-1.13-.2-112.3-19.69-177.75-15.4V254.12H320.31C322.5,254.12,324.23,255.16,324.39,257.29Z"/><path class="cls-2" d="M348.22,262.47a4.17,4.17,0,0,1-4.17-4.17V235.76a4.17,4.17,0,1,1,8.34,0V258.3A4.17,4.17,0,0,1,348.22,262.47Z"/><path class="cls-2" d="M320.14,262.47A4.17,4.17,0,0,1,316,258.3V235.76a4.18,4.18,0,0,1,8.35,0V258.3A4.18,4.18,0,0,1,320.14,262.47Z"/><path class="cls-3" d="M330.73,241.69c-18.22-3.58-102.87-19.24-157.65-12.73V20.16S272,8.56,334.26,45.8v193A3,3,0,0,1,330.73,241.69Z"/><path class="cls-3" d="M337.41,241.76c17.38-3.43,102.86-19.35,158-12.8V20.16S396.54,8.56,334.26,45.8V239.16A2.64,2.64,0,0,0,337.41,241.76Z"/><path class="cls-2" d="M331.31,245.91a7.16,7.16,0,0,1-1.38-.13h0C313.37,242.53,228,226.64,173.57,233.1a4.16,4.16,0,0,1-4.66-4.14V20.16A4.17,4.17,0,0,1,172.59,16c4.1-.48,101-11.33,163.81,26.21a4.16,4.16,0,0,1,2,3.58v193a7.12,7.12,0,0,1-7.12,7.13ZM202.7,223.24c51,0,111,10.9,127.39,14.07V48.19C276.42,17.44,195.41,22.37,177.25,24V224.32C185.27,223.57,193.85,223.24,202.7,223.24Z"/><path class="cls-3" d="M334.05,236.38V37.81S282.91-5.94,193.56,6.39V208.5s95.5,2.28,135.81,30.3A3,3,0,0,0,334.05,236.38Z"/><path class="cls-2" d="M331.09,243.52a7.21,7.21,0,0,1-4.1-1.29c-38.83-27-132.59-29.53-133.53-29.56a4.16,4.16,0,0,1-4.07-4.17V6.39A4.17,4.17,0,0,1,193,2.25c90.17-12.43,141.63,30.56,143.77,32.39a4.17,4.17,0,0,1,1.46,3.17V236.38a7.14,7.14,0,0,1-7.13,7.14ZM197.73,204.47c18.67.77,94.86,5.33,132.15,29.65V39.84c-8.73-6.6-56.11-39.07-132.15-29.79Z"/><path class="cls-2" d="M337.21,245.91a7.12,7.12,0,0,1-7.12-7.13V45.8a4.16,4.16,0,0,1,2-3.58C394.89,4.68,491.84,15.53,495.93,16a4.18,4.18,0,0,1,3.69,4.15V229A4.17,4.17,0,0,1,495,233.1c-54.42-6.46-139.79,9.43-156.35,12.68h0A7.27,7.27,0,0,1,337.21,245.91Zm-.22-8.32Zm1.44-189.4V237.31c19.24-3.72,98.62-18.09,152.84-13V24C473.13,22.38,392.11,17.43,338.43,48.19Z"/><path class="cls-3" d="M334.47,236.38V37.81S385.62-5.94,475,6.39V208.5s-95.5,2.28-135.81,30.3A3,3,0,0,1,334.47,236.38Z"/><path class="cls-2" d="M337.44,243.52a7.14,7.14,0,0,1-7.14-7.14V37.81a4.17,4.17,0,0,1,1.46-3.17c2.15-1.83,53.61-44.82,143.78-32.39a4.18,4.18,0,0,1,3.6,4.14V208.5a4.17,4.17,0,0,1-4.07,4.17c-.95,0-94.72,2.57-133.53,29.56A7.21,7.21,0,0,1,337.44,243.52Zm1.2-203.68V234.12c37.3-24.31,113.48-28.88,132.16-29.65V10.05C394.77.77,347.38,33.23,338.64,39.84Z"/><path class="cls-2" d="M358,80.06a4.17,4.17,0,0,1-2.17-7.74c1.77-1.07,43.92-26.16,94.78-20.89a4.17,4.17,0,0,1-.86,8.3c-48.1-5-89.19,19.48-89.6,19.73A4.12,4.12,0,0,1,358,80.06Z"/><path class="cls-2" d="M358,107a4.17,4.17,0,0,1-2.17-7.74c1.77-1.07,43.92-26.17,94.78-20.89a4.17,4.17,0,0,1-.86,8.3c-48.1-5-89.19,19.48-89.6,19.73A4.12,4.12,0,0,1,358,107Z"/><path class="cls-2" d="M358,133.86a4.17,4.17,0,0,1-2.17-7.74c1.77-1.07,43.92-26.17,94.78-20.9a4.17,4.17,0,1,1-.86,8.3c-48.1-5-89.19,19.49-89.6,19.74A4.21,4.21,0,0,1,358,133.86Z"/><path class="cls-2" d="M358.63,160.76a4.17,4.17,0,0,1-2.16-7.74c1.77-1.08,43.91-26.17,94.77-20.9a4.17,4.17,0,0,1-.86,8.3c-48.1-5-89.18,19.49-89.59,19.73A4.16,4.16,0,0,1,358.63,160.76Z"/><path class="cls-2" d="M358.63,187.66a4.18,4.18,0,0,1-2.16-7.75c1.77-1.07,43.91-26.16,94.77-20.89a4.17,4.17,0,0,1-.86,8.3c-48.1-5-89.18,19.49-89.59,19.73A4.16,4.16,0,0,1,358.63,187.66Z"/><path class="cls-2" d="M309.73,80.06a4.12,4.12,0,0,1-2.15-.6h0c-.41-.25-41.6-24.71-89.6-19.73a4.17,4.17,0,1,1-.86-8.3c50.86-5.27,93,19.82,94.78,20.89a4.17,4.17,0,0,1-2.17,7.74Z"/><path class="cls-2" d="M309.73,107a4.12,4.12,0,0,1-2.15-.6h0c-.41-.25-41.6-24.71-89.6-19.73a4.17,4.17,0,1,1-.86-8.3c50.85-5.27,93,19.82,94.78,20.89a4.17,4.17,0,0,1-2.17,7.74Z"/><path class="cls-2" d="M309.73,133.86a4.12,4.12,0,0,1-2.15-.6h0c-.41-.25-41.6-24.72-89.6-19.74a4.17,4.17,0,1,1-.86-8.3c50.86-5.26,93,19.83,94.78,20.9a4.17,4.17,0,0,1-2.17,7.74Z"/><path class="cls-2" d="M309.1,160.76a4.25,4.25,0,0,1-2.16-.6h0c-.41-.25-41.59-24.71-89.59-19.74a4.17,4.17,0,1,1-.86-8.3c50.86-5.27,93,19.82,94.77,20.9a4.17,4.17,0,0,1-2.16,7.74Z"/><path class="cls-2" d="M309.1,187.66a4.25,4.25,0,0,1-2.16-.6h0c-.41-.25-41.59-24.71-89.59-19.74a4.17,4.17,0,1,1-.86-8.3c50.86-5.27,93,19.82,94.77,20.89a4.18,4.18,0,0,1-2.16,7.75Z"/><path class="cls-2" d="M682,469.85H7a7,7,0,0,1,0-13.91H682a7,7,0,0,1,0,13.91Z"/></g></g></svg>