<svg xmlns="http://www.w3.org/2000/svg" viewBox="0 0 702.52 566.92"><defs><style>.cls-1{fill:#d3d3d3;}.cls-2{fill:#2c2c2c;}.cls-3{fill:#fff;}.cls-4{fill:#aeaeae;}.cls-5{fill:#fed443;}.cls-6{fill:#004b93;}</style></defs><g id="Layer_2" data-name="Layer 2"><g id="Capa_1" data-name="Capa 1"><rect class="cls-1" x="88.4" y="114.86" width="497.14" height="354.42" rx="21.97"/><path class="cls-2" d="M563.57,476.24a29,29,0,0,0,28.93-28.92V136.83a29,29,0,0,0-28.93-28.92H110.37a29,29,0,0,0-28.92,28.92V447.32a29,29,0,0,0,28.92,28.92ZM95.36,447.32V136.83a15,15,0,0,1,15-15h453.2a15,15,0,0,1,15,15V447.32a15,15,0,0,1-15,15H110.37A15,15,0,0,1,95.36,447.32Z"/><rect class="cls-3" x="116.24" y="145.68" width="441.46" height="257.56"/><path class="cls-2" d="M557.7,410.2a7,7,0,0,0,7-7V145.68a7,7,0,0,0-7-7H116.25a7,7,0,0,0-7,7V403.24a7,7,0,0,0,7,7ZM123.2,152.64H550.75V396.29H123.2Z"/><circle class="cls-2" cx="336.97" cy="435.37" r="13.98"/><path class="cls-3" d="M402,469.29H271.91c.66,39.29-29.17,53.35-29.17,53.35H431.2S401.37,508.58,402,469.29Z"/><path class="cls-2" d="M242.74,529.59H431.2a7,7,0,0,0,3-13.24c-.26-.12-25.76-12.54-25.18-47a7,7,0,0,0-6.95-7.07H271.91a6.95,6.95,0,0,0-7,7.07c.57,34.07-24.16,46.45-25.18,47a7,7,0,0,0,3,13.24Zm35.94-53.35H395.26c1.29,18.31,8.7,31.07,16.18,39.44H262.51C270,507.31,277.4,494.55,278.68,476.24Z"/><rect class="cls-4" x="206.16" y="522.64" width="261.62" height="35.33" rx="9.28"/><path class="cls-2" d="M458.5,564.92a16.26,16.26,0,0,0,16.24-16.23V531.92a16.26,16.26,0,0,0-16.24-16.24H215.44a16.26,16.26,0,0,0-16.23,16.24v16.77a16.25,16.25,0,0,0,16.23,16.23ZM213.12,548.69V531.92a2.33,2.33,0,0,1,2.32-2.33H458.5a2.34,2.34,0,0,1,2.33,2.33v16.77A2.33,2.33,0,0,1,458.5,551H215.44A2.32,2.32,0,0,1,213.12,548.69Z"/><path class="cls-3" d="M476.07,366.7V317.41a10,10,0,0,0-10-10H197.87v69.36H466A10,10,0,0,0,476.07,366.7Z"/><path class="cls-2" d="M466,383.68a17,17,0,0,0,17-17V317.41a17,17,0,0,0-17-17H197.87a7,7,0,0,0-7,6.95v69.36a7,7,0,0,0,7,6.95ZM204.83,314.33H466a3.08,3.08,0,0,1,3.08,3.08V366.7a3.08,3.08,0,0,1-3.08,3.07H204.83Z"/><path class="cls-5" d="M466,376.73H171.36v26.51H466a36.54,36.54,0,0,0,36.55-36.54V317.41A36.54,36.54,0,0,0,466,280.86H171.36v26.51H466a10,10,0,0,1,10,10V366.7A10,10,0,0,1,466,376.73Z"/><path class="cls-2" d="M466,369.77H171.36a7,7,0,0,0-7,7v26.51a7,7,0,0,0,7,7H466a43.55,43.55,0,0,0,43.5-43.5V317.41A43.55,43.55,0,0,0,466,273.9H171.36a7,7,0,0,0-7,7v26.51a7,7,0,0,0,7,7H466a3.08,3.08,0,0,1,3.08,3.08V366.7A3.08,3.08,0,0,1,466,369.77Zm0-69.35H178.31V287.81H466a29.63,29.63,0,0,1,29.59,29.6V366.7A29.62,29.62,0,0,1,466,396.29H178.31V383.68H466a17,17,0,0,0,17-17V317.41A17,17,0,0,0,466,300.42Z"/><polygon class="cls-2" points="458.63 326.78 429.2 326.78 429.2 356.21 443.91 342.34 458.63 356.21 458.63 326.78"/><path class="cls-2" d="M417.5,331a4.17,4.17,0,1,0,0-8.34H294.64a4.17,4.17,0,1,0,0,8.34Z"/><path class="cls-2" d="M345.9,352.73a4.18,4.18,0,1,0,0-8.35H223.05a4.18,4.18,0,0,0,0,8.35Z"/><path class="cls-3" d="M229.2,279.77h40.54a38.59,38.59,0,0,0,38.41-34.91l2.28-23.9a21.39,21.39,0,0,0-21.29-23.43H210.87a16.45,16.45,0,0,0-16.44,17.15l1.41,33.11A33.39,33.39,0,0,0,229.2,279.77Z"/><path class="cls-1" d="M235.74,197.53,196,249.21A33.15,33.15,0,0,0,202.19,266l52.68-68.46Z"/><path class="cls-1" d="M289.14,197.53h-19L211,274.38a33.28,33.28,0,0,0,15.11,5.24l63.15-82.08Z"/><path class="cls-2" d="M229.2,286.72h40.54a45.36,45.36,0,0,0,45.33-41.2l2.29-23.89a28.34,28.34,0,0,0-28.22-31H210.87A23.41,23.41,0,0,0,187.48,215l1.41,33.11A40.26,40.26,0,0,0,229.2,286.72ZM204,207.41a9.44,9.44,0,0,1,6.86-2.92h78.27a14.43,14.43,0,0,1,14.37,15.81l-2.29,23.9a31.5,31.5,0,0,1-31.48,28.61H229.2a26.37,26.37,0,0,1-26.41-25.31l-1.41-33.11A9.39,9.39,0,0,1,204,207.41Z"/><path class="cls-3" d="M381.49,279.77H422a33.39,33.39,0,0,0,33.36-32l1.41-33.11a16.45,16.45,0,0,0-16.44-17.15H362.09A21.39,21.39,0,0,0,340.8,221l2.28,23.9A38.59,38.59,0,0,0,381.49,279.77Z"/><path class="cls-1" d="M384.19,197.53l-40.26,52.32a38.39,38.39,0,0,0,7.36,15.31l52-67.63Z"/><path class="cls-1" d="M418.6,197.53l-58.35,75.83a38.52,38.52,0,0,0,14.66,5.82l62.83-81.65Z"/><path class="cls-2" d="M381.49,286.72H422a40.26,40.26,0,0,0,40.31-38.63L463.75,215a23.41,23.41,0,0,0-23.39-24.4H362.09a28.34,28.34,0,0,0-28.22,31l2.29,23.89A45.36,45.36,0,0,0,381.49,286.72Zm-30.08-77.51a14.29,14.29,0,0,1,10.68-4.72h78.27a9.48,9.48,0,0,1,9.49,9.9l-1.41,33.11A26.37,26.37,0,0,1,422,272.81H381.49A31.5,31.5,0,0,1,350,244.2l-2.29-23.9A14.3,14.3,0,0,1,351.41,209.21Z"/><path class="cls-2" d="M340.72,225.05a7,7,0,0,0,0-13.91H310.51a7,7,0,0,0,0,13.91Z"/><path class="cls-2" d="M194.43,221.64a7,7,0,0,0,0-13.91H181a7,7,0,0,0,0,13.91Z"/><path class="cls-2" d="M470.23,221.64a7,7,0,1,0,0-13.91H456.82a7,7,0,1,0,0,13.91Z"/><path class="cls-2" d="M178.82,286.72a6.93,6.93,0,0,0,5.54-2.74c6.29-8.25,18.74-17.4,18.86-17.49a7,7,0,1,0-8.2-11.23c-.58.42-14.2,10.42-21.73,20.29a7,7,0,0,0,5.53,11.17Z"/><path class="cls-2" d="M466.32,284a7,7,0,1,0,11.06-8.43c-7.56-9.92-19.73-18.53-20.24-18.89a7,7,0,1,0-8,11.37C449.24,268.11,460,275.75,466.32,284Z"/><polygon class="cls-6" points="625.1 63.02 490.92 6.95 570.47 123.06 693.55 191.32 625.1 63.02"/><path class="cls-2" d="M567.1,129.14,690.18,197.4a7,7,0,0,0,3.37.87A7,7,0,0,0,699.69,188L631.23,59.74a7,7,0,0,0-3.45-3.14L493.6.54a7,7,0,0,0-8.42,10.34L564.73,127A6.89,6.89,0,0,0,567.1,129.14Zm53-60.66,56.2,105.33-101.05-56L510,22.45Z"/><path class="cls-6" d="M596.56,188l.46-.51,12.37-13.6,30-32.91a3.24,3.24,0,0,0,.38-3.87C624.19,112,599.85,90.77,599.85,90.77S576.45,68.53,550,55.44a3.26,3.26,0,0,0-3.82.74l-30,32.92-12.37,13.6-.46.5a6.62,6.62,0,0,0,.44,9.35l83.43,75.9A6.61,6.61,0,0,0,596.56,188Z"/><path class="cls-2" d="M591.65,197.13l.66,0a13.48,13.48,0,0,0,9.4-4.43l42.78-47a10.26,10.26,0,0,0,1.15-12.21c-15.53-25.13-39-46-41.11-47.84s-25-23.33-51.5-36.41a10.22,10.22,0,0,0-12,2.29l-42.78,47a13.59,13.59,0,0,0,.9,19.17l83.43,75.9A13.48,13.48,0,0,0,591.65,197.13ZM549.38,63c24.18,12.58,45.46,32.65,45.68,32.86l.22.2c.23.2,22.21,19.49,37,42.38l-40.65,44.68-82.93-75.44Z"/><path class="cls-2" d="M690.54,210.33h0a4.17,4.17,0,0,0,4.17-4.15l.24-44.33a4.2,4.2,0,0,0-2.34-3.77l-17.56-8.58a4.17,4.17,0,1,0-3.66,7.49l15.2,7.43-.22,41.72A4.17,4.17,0,0,0,690.54,210.33Z"/><path class="cls-4" d="M697.18,212.85h0a6.66,6.66,0,1,0-13.31-.07h0a6.66,6.66,0,1,0,13.31.07Z"/><path class="cls-4" d="M690.51,251.82c6.55-.18,7.84-3.76,7.84-3.76l-2.44-31.35h0a6.58,6.58,0,0,1-10.63.14L682.52,248s1.25,3.6,7.8,3.85Z"/><path class="cls-2" d="M690.53,223.65a10.83,10.83,0,0,0,.05-21.66,10.83,10.83,0,0,0-.11,21.66ZM688,212.81a2.51,2.51,0,0,1,2.49-2.48h0a2.52,2.52,0,0,1,2.47,2.5,2.51,2.51,0,0,1-2.48,2.48h0a2.5,2.5,0,0,1-1.75-.75A2.47,2.47,0,0,1,688,212.81Z"/><path class="cls-2" d="M690.16,256h.46c9.14-.25,11.43-5.88,11.66-6.52a4.13,4.13,0,0,0,.23-1.74l-2.44-31.34a4.18,4.18,0,0,0-7.54-2.13,2.44,2.44,0,0,1-2,1.05,2.48,2.48,0,0,1-1.93-1,4.17,4.17,0,0,0-7.47,2.17l-2.75,31.13a4.26,4.26,0,0,0,.22,1.73C678.8,250,681,255.65,690.16,256Zm-1.29-32.47a10.7,10.7,0,0,0,3.39,0l1.81,23.26a6.77,6.77,0,0,1-3.55.88h-.11a7,7,0,0,1-3.59-.92Z"/><path class="cls-3" d="M50.85,557.89A25.7,25.7,0,0,0,78.49,534.3L98.38,282.15l-60.62-4.78L17.87,529.51a25.7,25.7,0,0,0,23.59,27.64Z"/><path class="cls-4" d="M50.85,557.89A25.7,25.7,0,0,0,78.49,534.3l1.09-13.85L19,515.66l-1.09,13.85a25.7,25.7,0,0,0,23.59,27.64Z"/><path class="cls-2" d="M40.91,564.08l9.4.74c.87.07,1.75.1,2.62.1a32.65,32.65,0,0,0,32.49-30.08L105.31,282.7a7,7,0,0,0-6.39-7.48L38.3,270.44a6.94,6.94,0,0,0-7.47,6.38L10.94,529a32.64,32.64,0,0,0,30,35.11Zm-16.11-34L44.14,284.85l46.76,3.69L71.55,533.75A18.73,18.73,0,0,1,51.4,551L42,550.22A18.75,18.75,0,0,1,24.8,530.06Zm-6.93-.55h0Z"/><polygon class="cls-1" points="98.38 282.15 72.32 225.88 37.76 277.37 37.76 277.37 37.76 277.37 37.76 277.37 37.76 277.37 51.85 292.08 68.07 279.76 68.07 279.76 82.16 294.47 98.38 282.15 98.38 282.15 98.38 282.15 98.38 282.15 98.38 282.15"/><polygon class="cls-2" points="55.08 250.14 84.63 252.47 72.32 225.88 55.08 250.14"/><path class="cls-2" d="M56.05,297.62l11.28-8.57,9.8,10.23a6.94,6.94,0,0,0,9.23.73l16.22-12.32a7,7,0,0,0,2.11-8.46L78.63,223a7,7,0,0,0-12.09-1L32,273.49a7,7,0,0,0,.76,8.69l14.08,14.71A7,7,0,0,0,56.05,297.62ZM71.2,240l18.51,40-6.82,5.18L73.09,275a7,7,0,0,0-9.23-.73l-11.28,8.57-5.93-6.19Z"/><rect class="cls-1" x="39.1" y="476.65" width="22.08" height="60.81" transform="translate(-459.29 517.16) rotate(-85.49)"/><path class="cls-2" d="M79.25,524.61h.33a4.17,4.17,0,0,0,4.16-3.85l1.73-22a4.14,4.14,0,0,0-1-3,4.19,4.19,0,0,0-2.85-1.45L21,489.5a4.16,4.16,0,0,0-4.49,3.83l-1.74,22a4.18,4.18,0,0,0,3.83,4.48ZM24.53,498.14l52.3,4.13L75.75,516l-52.3-4.13Z"/><path class="cls-2" d="M682,566.92A7,7,0,0,0,682,553H7a7,7,0,0,0,0,13.91Z"/></g></g></svg>