<svg xmlns="http://www.w3.org/2000/svg" viewBox="0 0 709.34 447.59"><defs><style>.cls-1{fill:#d3d3d3;}.cls-2{fill:#fff;}.cls-3{fill:#2c2c2c;}.cls-4{fill:#fed443;}.cls-5{fill:#004b93;}.cls-6{fill:#aeaeae;}</style></defs><g id="Layer_2" data-name="Layer 2"><g id="Capa_1" data-name="Capa 1"><rect class="cls-1" x="178.66" y="90.65" width="455.71" height="349.99"/><path class="cls-2" d="M202.27,148.72c-.41,0-.8,0-1.2,0V384.36h.6a29,29,0,0,1,29,28.44H571.47c0-.2,0-.4,0-.6a29,29,0,0,1,29-29l.6,0V147.53a29,29,0,0,1-29-29H231.27c0,.39,0,.79,0,1.19A29,29,0,0,1,202.27,148.72Z"/><path class="cls-3" d="M628.93,447.59a7,7,0,0,0,7-7v-350a7,7,0,0,0-7-7H173.23a7,7,0,0,0-7,7v350a7,7,0,0,0,7,7ZM180.18,97.6H622V433.68H180.18Z"/><path class="cls-3" d="M474.66,160.85a4.17,4.17,0,0,0,0-8.34H327.5a4.17,4.17,0,0,0,0,8.34Z"/><path class="cls-3" d="M324.85,343.61a4.18,4.18,0,0,0,0-8.35H232.93a4.18,4.18,0,1,0,0,8.35Z"/><path class="cls-3" d="M569.23,343.61a4.18,4.18,0,0,0,0-8.35H477.31a4.18,4.18,0,0,0,0,8.35Z"/><path class="cls-3" d="M509,200a4.18,4.18,0,0,0,0-8.35H293.17a4.18,4.18,0,0,0,0,8.35Z"/><path class="cls-3" d="M509,233.13a4.17,4.17,0,0,0,0-8.34H293.17a4.17,4.17,0,0,0,0,8.34Z"/><path class="cls-3" d="M509,266.27a4.17,4.17,0,0,0,0-8.34H293.17a4.17,4.17,0,0,0,0,8.34Z"/><path class="cls-3" d="M509,300.35a4.17,4.17,0,0,0,0-8.34H293.17a4.17,4.17,0,0,0,0,8.34Z"/><path class="cls-3" d="M202.27,144.55c-.35,0-.69,0-1,0a4.19,4.19,0,0,0-4.35,4.17V384.36a4.2,4.2,0,0,0,4.26,4.18l.52,0a25,25,0,0,1,24.85,24.35,4.16,4.16,0,0,0,4.17,4.09H571.47a4.17,4.17,0,0,0,4.17-4.25v-.52a24.89,24.89,0,0,1,24.86-24.87l.52,0a4.12,4.12,0,0,0,3-1.19,4.18,4.18,0,0,0,1.25-3V147.53a4.17,4.17,0,0,0-4.17-4.18,24.89,24.89,0,0,1-24.86-24.86,4.18,4.18,0,0,0-4.18-4.18H231.28a4.17,4.17,0,0,0-4.17,4.34c0,.34,0,.69,0,1A24.89,24.89,0,0,1,202.27,144.55Zm33.08-21.89H568.14a33.3,33.3,0,0,0,28.78,28.78V379.17a33.27,33.27,0,0,0-29.45,29.45h-333a33.47,33.47,0,0,0-29.28-28.25V152.76A33.28,33.28,0,0,0,235.35,122.66Z"/><path class="cls-3" d="M438.48,355.73a37.4,37.4,0,1,0-37.4,37.4A37.45,37.45,0,0,0,438.48,355.73Zm-66.46,0a29.06,29.06,0,1,1,29.06,29.06A29.1,29.1,0,0,1,372,355.73Z"/><polygon class="cls-4" points="672.22 118.35 585.65 118.35 585.65 243.12 628.93 214.8 672.22 243.12 672.22 118.35"/><path class="cls-3" d="M589.46,248.94l39.47-25.83,39.48,25.83a7,7,0,0,0,3.81,1.13,6.94,6.94,0,0,0,6.95-6.95V118.35a7,7,0,0,0-6.95-7H585.65a7,7,0,0,0-6.95,7V243.12a6.95,6.95,0,0,0,10.76,5.82ZM592.6,125.3h72.66v105L632.74,209a6.94,6.94,0,0,0-7.62,0L592.6,230.26Z"/><path class="cls-4" d="M569.53,64.11l-7.13,4.54-.73.47a13.38,13.38,0,0,0,0,22.57l.73.47,7.13,4.55a13.39,13.39,0,0,1,5.87,14.18l-1.83,8.26-.18.84a13.39,13.39,0,0,0,16,16l.84-.19,8.26-1.82a13.38,13.38,0,0,1,14.18,5.87l4.55,7.13.46.73a13.39,13.39,0,0,0,22.58,0l.46-.73,4.55-7.13a13.39,13.39,0,0,1,14.18-5.87l8.26,1.82.84.19a13.39,13.39,0,0,0,16-16l-.19-.84-1.83-8.26a13.4,13.4,0,0,1,5.88-14.18l7.13-4.55.72-.47a13.38,13.38,0,0,0,0-22.57l-.72-.47-7.13-4.54a13.41,13.41,0,0,1-5.88-14.18l1.83-8.26.19-.84a13.4,13.4,0,0,0-16-16l-.84.19-8.26,1.82A13.39,13.39,0,0,1,645.23,21l-4.55-7.13-.46-.73a13.39,13.39,0,0,0-22.58,0l-.46.73L612.63,21a13.38,13.38,0,0,1-14.18,5.87l-8.26-1.82-.84-.19a13.39,13.39,0,0,0-16,16l.18.84,1.83,8.26A13.4,13.4,0,0,1,569.53,64.11Z"/><circle class="cls-2" cx="628.93" cy="80.51" r="33.03" transform="translate(313.87 630.76) rotate(-67.5)"/><path class="cls-3" d="M668.91,80.51a40,40,0,1,0-40,40A40,40,0,0,0,668.91,80.51Zm-66,0a26.08,26.08,0,1,1,26.07,26.07A26.09,26.09,0,0,1,602.86,80.51Z"/><path class="cls-3" d="M565.79,58.24l-7.86,5a20.35,20.35,0,0,0,0,34.31l7.86,5a6.46,6.46,0,0,1,2.82,6.81l-2,9.1a20.35,20.35,0,0,0,24.25,24.26l9.1-2a6.45,6.45,0,0,1,6.82,2.82l5,7.86a20.34,20.34,0,0,0,34.3,0l5-7.86a6.43,6.43,0,0,1,6.81-2.82l9.1,2a20.35,20.35,0,0,0,24.26-24.25l-2-9.11a6.44,6.44,0,0,1,2.82-6.81l7.85-5a20.34,20.34,0,0,0,0-34.3l-7.86-5a6.43,6.43,0,0,1-2.82-6.81l2-9.1A20.35,20.35,0,0,0,667,18.07l-9.1,2a6.43,6.43,0,0,1-6.81-2.82l-5-7.86a20.34,20.34,0,0,0-34.3,0l-5,7.86A6.44,6.44,0,0,1,600,20.08l-9.1-2A20.34,20.34,0,0,0,566.6,42.32l2,9.11A6.45,6.45,0,0,1,565.79,58.24ZM573.27,70a20.42,20.42,0,0,0,8.92-21.55l-2-9.09a6.44,6.44,0,0,1,7.67-7.68l9.1,2a20.41,20.41,0,0,0,21.55-8.92l5-7.86a6.44,6.44,0,0,1,10.85,0l5,7.86a20.4,20.4,0,0,0,21.54,8.92l9.1-2a6.45,6.45,0,0,1,7.68,7.68l-2,9.09A20.43,20.43,0,0,0,684.6,70l7.86,5a6.44,6.44,0,0,1,0,10.85h0l-7.85,5a20.43,20.43,0,0,0-8.93,21.55l2,9.1a6.44,6.44,0,0,1-7.68,7.67l-9.1-2a20.4,20.4,0,0,0-21.54,8.92l-5,7.86a6.44,6.44,0,0,1-10.86,0l-5-7.85A20.34,20.34,0,0,0,597,127.15l-9.1,2a6.43,6.43,0,0,1-7.67-7.68l2-9.09a20.42,20.42,0,0,0-8.92-21.55l-7.86-5a6.44,6.44,0,0,1,0-10.85Z"/><polygon class="cls-5" points="455.57 325.98 231.26 246.02 6.95 325.98 231.26 378.94 455.57 325.98"/><path class="cls-3" d="M229.66,385.71a6.83,6.83,0,0,0,3.2,0l224.3-53a7,7,0,0,0,.74-13.32l-224.3-80a7,7,0,0,0-4.68,0l-224.3,80a7,7,0,0,0,.74,13.32Zm1.6-132.31,199.79,71.22L231.26,371.8,31.47,324.62Z"/><path class="cls-5" d="M323.61,439.69a10.83,10.83,0,0,0,10.83-10.83V324.76a5.31,5.31,0,0,0-3.81-5.1c-46.53-13.35-99.37-12.2-99.37-12.2s-52.84-1.15-99.37,12.2a5.31,5.31,0,0,0-3.81,5.1v104.1a10.83,10.83,0,0,0,10.83,10.83Z"/><path class="cls-3" d="M323.61,446.65a17.81,17.81,0,0,0,17.78-17.79V324.76A12.3,12.3,0,0,0,332.55,313C286.32,299.72,235,300.42,231.26,300.5S176.19,299.72,130,313a12.3,12.3,0,0,0-8.84,11.78v104.1a17.81,17.81,0,0,0,17.78,17.79ZM135,428.86V326c44.63-12.52,95.56-11.6,96.07-11.59h.3c.51,0,51.44-.93,96.07,11.59V428.86a3.88,3.88,0,0,1-3.87,3.88H138.91A3.88,3.88,0,0,1,135,428.86Z"/><path class="cls-3" d="M100.07,299.36V285.45h-26a7,7,0,0,0-6.95,7V365H81V299.36Z"/><path class="cls-6" d="M74.07,386.81a10.9,10.9,0,1,0,0-21.8h0a10.9,10.9,0,1,0,0,21.8Z"/><path class="cls-6" d="M74.07,439.78c10.73-.35,12.81-6.24,12.81-6.24l-4.24-51a10.79,10.79,0,0,1-17.41-.33h0L61,433.54s2.08,5.89,12.81,6.24Z"/><path class="cls-3" d="M91.93,375.91a17.86,17.86,0,1,0-17.86,17.86A17.88,17.88,0,0,0,91.93,375.91Zm-21.81,0a3.95,3.95,0,1,1,3.95,3.95A4,4,0,0,1,70.12,375.91Z"/><path class="cls-3" d="M73.54,446.73h.76c15-.49,18.76-9.81,19.14-10.87a7.1,7.1,0,0,0,.37-2.89l-4.23-51a7,7,0,0,0-12.42-3.7,3.83,3.83,0,0,1-6.28-.11,7,7,0,0,0-12.6,3.49L54,433a6.93,6.93,0,0,0,.38,2.89C54.77,436.92,58.49,446.24,73.54,446.73Zm-2.29-53.19a17.64,17.64,0,0,0,5.33,0l3.14,37.82A11.34,11.34,0,0,1,74,432.82h-.07a11.34,11.34,0,0,1-5.77-1.41Z"/><path class="cls-3" d="M697.05,447.59a7,7,0,1,0,0-13.91H22a7,7,0,1,0,0,13.91Z"/></g></g></svg>