<svg xmlns="http://www.w3.org/2000/svg" viewBox="0 0 723.06 559.48"><defs><style>.cls-1{fill:#2c2c2c;}.cls-2{fill:#d3d3d3;}.cls-3{fill:#fff;}.cls-4{fill:#aeaeae;}.cls-5{fill:#fed443;}.cls-6{fill:#004b93;}</style></defs><g id="Layer_2" data-name="Layer 2"><g id="Capa_1" data-name="Capa 1"><path class="cls-1" d="M682,559.48H7a7,7,0,0,1,0-13.91H682a7,7,0,0,1,0,13.91Z"/><rect class="cls-2" x="100.37" y="107.86" width="497.14" height="354.42" rx="12.33"/><path class="cls-1" d="M575.54,469.24H122.34a29,29,0,0,1-28.92-28.92V129.83a29,29,0,0,1,28.92-28.92h453.2a29,29,0,0,1,28.92,28.92V440.32A29,29,0,0,1,575.54,469.24ZM122.34,114.82a15,15,0,0,0-15,15V440.32a15,15,0,0,0,15,15h453.2a15,15,0,0,0,15-15V129.83a15,15,0,0,0-15-15Z"/><rect class="cls-3" x="128.21" y="138.68" width="441.46" height="257.56"/><path class="cls-1" d="M569.67,403.2H128.21a7,7,0,0,1-7-7V138.68a7,7,0,0,1,7-7H569.67a7,7,0,0,1,7,7V396.24A7,7,0,0,1,569.67,403.2Zm-434.5-13.91H562.72V145.64H135.17Z"/><circle class="cls-1" cx="348.94" cy="428.37" r="13.98"/><path class="cls-3" d="M414,462.29H283.88c.66,39.29-29.17,53.35-29.17,53.35H443.17S413.34,501.58,414,462.29Z"/><path class="cls-1" d="M443.17,522.59H254.71a7,7,0,0,1-3-13.24c1-.5,25.75-12.88,25.18-47a6.95,6.95,0,0,1,6.95-7.07H414a7,7,0,0,1,7,7.07c-.58,34.41,24.92,46.83,25.17,47a6.95,6.95,0,0,1-3,13.24ZM274.48,508.68H423.4c-7.47-8.37-14.88-21.13-16.17-39.44H290.65C289.37,487.55,282,500.31,274.48,508.68Z"/><rect class="cls-4" x="218.13" y="515.64" width="261.62" height="35.33" rx="5.21"/><path class="cls-1" d="M470.47,557.92H227.41a16.25,16.25,0,0,1-16.23-16.23V524.92a16.26,16.26,0,0,1,16.23-16.24H470.47a16.26,16.26,0,0,1,16.24,16.24v16.77A16.26,16.26,0,0,1,470.47,557.92ZM227.41,522.59a2.33,2.33,0,0,0-2.32,2.33v16.77a2.32,2.32,0,0,0,2.32,2.32H470.47a2.33,2.33,0,0,0,2.33-2.32V524.92a2.34,2.34,0,0,0-2.33-2.33Z"/><rect class="cls-3" x="204.74" y="6.95" width="288.4" height="389.29"/><path class="cls-1" d="M493.14,403.2H204.74a7,7,0,0,1-7-7V7a7,7,0,0,1,7-6.95H445.07A6.92,6.92,0,0,1,450,2l48.07,48.07a7,7,0,0,1,2,4.91V396.24A7,7,0,0,1,493.14,403.2ZM211.7,389.29H486.19V57.91l-44-44H211.7Z"/><path class="cls-1" d="M456.35,75H241.54a4.38,4.38,0,1,1,0-8.76H456.35a4.38,4.38,0,0,1,0,8.76Z"/><path class="cls-1" d="M456.35,113H241.54a4.38,4.38,0,1,1,0-8.76H456.35a4.38,4.38,0,0,1,0,8.76Z"/><path class="cls-1" d="M456.35,151H241.54a4.38,4.38,0,0,1,0-8.76H456.35a4.38,4.38,0,0,1,0,8.76Z"/><path class="cls-1" d="M456.35,189H241.54a4.38,4.38,0,0,1,0-8.76H456.35a4.38,4.38,0,0,1,0,8.76Z"/><path class="cls-1" d="M456.35,227H241.54a4.38,4.38,0,0,1,0-8.76H456.35a4.38,4.38,0,0,1,0,8.76Z"/><path class="cls-1" d="M456.35,265H241.54a4.38,4.38,0,1,1,0-8.76H456.35a4.38,4.38,0,0,1,0,8.76Z"/><path class="cls-1" d="M456.35,301.05H241.54a4.38,4.38,0,0,1,0-8.76H456.35a4.38,4.38,0,0,1,0,8.76Z"/><path class="cls-1" d="M456.35,337.11H241.54a4.38,4.38,0,1,1,0-8.76H456.35a4.38,4.38,0,0,1,0,8.76Z"/><polygon class="cls-2" points="493.14 55.02 445.07 55.02 445.07 6.95 493.14 55.02"/><path class="cls-1" d="M493.14,59.41H445.07A4.39,4.39,0,0,1,440.69,55V7a4.38,4.38,0,0,1,7.48-3.09l48.07,48.07a4.38,4.38,0,0,1-3.1,7.48Zm-43.69-8.77h33.12L449.45,17.53Z"/><rect class="cls-3" x="518.37" y="233.54" width="31.77" height="64.54" transform="translate(-10.18 510.1) rotate(-50.62)"/><path class="cls-1" d="M549.12,305.52a7,7,0,0,1-4.41-1.58L494.82,263a7,7,0,0,1-1-9.79L514,228.64a6.94,6.94,0,0,1,9.78-1l49.89,40.95a7,7,0,0,1,1,9.79L554.49,303a6.92,6.92,0,0,1-4.69,2.51A5.17,5.17,0,0,1,549.12,305.52ZM509,256.65l39.14,32.13L559.49,275l-39.14-32.13Z"/><path class="cls-5" d="M351.13,115.48a108.29,108.29,0,1,0,152.41-15A108.3,108.3,0,0,0,351.13,115.48ZM492.92,231.87a75.15,75.15,0,1,1-10.41-105.76A75.24,75.24,0,0,1,492.92,231.87Z"/><path class="cls-1" d="M434.73,299.39A115.22,115.22,0,1,1,508,95.11h0a115.2,115.2,0,0,1-73.22,204.28ZM435,82.84q-5,0-10.11.5a101.34,101.34,0,1,0,74.22,22.52h0A100.57,100.57,0,0,0,435,82.84Z"/><path class="cls-1" d="M434.65,266.27A82.12,82.12,0,0,1,371.37,132.1,82.1,82.1,0,0,1,498.29,236.29h0a81.57,81.57,0,0,1-55.43,29.58Q438.75,266.27,434.65,266.27ZM434.89,116a68.16,68.16,0,1,0,52.65,111.43h0A68.15,68.15,0,0,0,434.89,116Z"/><path class="cls-1" d="M477.65,161.17a4.19,4.19,0,0,1-3.53-1.94c-.76-1.2-1.58-2.38-2.45-3.5a4.17,4.17,0,0,1,6.6-5.11c1,1.33,2,2.73,2.9,4.14a4.18,4.18,0,0,1-3.52,6.41Z"/><path class="cls-1" d="M395.63,156.18a4.17,4.17,0,0,1-3.23-6.82,55,55,0,0,1,77.26-7.59,4.17,4.17,0,1,1-5.3,6.44,46.6,46.6,0,0,0-65.51,6.45A4.16,4.16,0,0,1,395.63,156.18Z"/><path class="cls-5" d="M604.92,251.07h57.47a0,0,0,0,1,0,0V429.66a14.08,14.08,0,0,1-14.08,14.08H619a14.08,14.08,0,0,1-14.08-14.08V251.07a0,0,0,0,1,0,0Z" transform="translate(-36.91 616.75) rotate(-50.62)"/><path class="cls-1" d="M686.35,427.47a31.79,31.79,0,0,1-20.27-7.28L536.56,313.87a7,7,0,0,1-1-9.79l36.46-44.42a7,7,0,0,1,9.79-1L711.37,365a32.08,32.08,0,0,1,4.43,45.09h0l-4.62,5.64a31.88,31.88,0,0,1-21.63,11.56C688.48,427.42,687.41,427.47,686.35,427.47ZM550.76,307.53,674.91,409.44a18.13,18.13,0,0,0,25.52-2.51l4.62-5.63a18.15,18.15,0,0,0-2.51-25.52L578.39,273.86Z"/><rect class="cls-1" x="553.73" y="298.42" width="57.47" height="13.91" transform="translate(-23.13 561.85) rotate(-50.62)"/><path class="cls-6" d="M240.79,410.91c-21.59-27.3-53.76-23.27-69.27-19.23a35.72,35.72,0,0,1-18,0c-15.52-4-47.69-8.07-69.27,19.23C47.12,457.83,90.85,528.49,120,545.73c20.26,12,28.28-.22,42.49-.89,14.2.67,22.22,12.86,42.49.89C234.16,528.49,277.89,457.83,240.79,410.91Z"/><path class="cls-6" d="M240.79,410.91c-16.9-21.36-40.27-23.54-57.08-21.54A56.5,56.5,0,0,1,222,410.91c37.1,46.92-6.63,117.58-35.8,134.82a42.49,42.49,0,0,1-7.32,3.51c7,2.28,14.6,3.32,26.17-3.51C234.16,528.49,277.89,457.83,240.79,410.91Z"/><path class="cls-1" d="M136.61,557.92c-5.66,0-12.23-1.54-20.13-6.2-20.28-12-45.2-45.54-51.79-81C60.12,446.21,65,424,78.77,406.6c24.6-31.11,61.68-25.51,76.48-21.65a28.76,28.76,0,0,0,14.51,0c14.81-3.85,51.88-9.46,76.49,21.65C260,424,264.89,446.21,260.32,470.77c-6.58,35.41-31.5,69-51.79,81-16.5,9.74-27.24,5.86-35.86,2.74-3.6-1.3-6.73-2.43-10.16-2.65-3.44.22-6.56,1.35-10.16,2.65C147.85,556.09,142.77,557.92,136.61,557.92Zm-5-162.2c-13.88,0-29.84,4.19-41.95,19.51-11.38,14.38-15.18,32.21-11.31,53,5.78,31.09,28,61.33,45.19,71.51,10.86,6.42,16.39,4.41,24.06,1.64,4.17-1.51,8.9-3.22,14.56-3.48h.65c5.67.26,10.4,2,14.57,3.48,7.66,2.77,13.2,4.77,24.06-1.64,17.23-10.18,39.4-40.42,45.19-71.51,3.87-20.79.06-38.62-11.31-53h0c-18.82-23.8-47-20.76-62.07-16.82a42.86,42.86,0,0,1-21.52,0A81.06,81.06,0,0,0,131.63,395.72Z"/><path class="cls-1" d="M162.51,415.73c-13.69,0-29.68-3.31-29.68-12.65a4.82,4.82,0,0,1,9.56-.87c1.69,1.44,8.89,3.88,20.12,3.88s18.43-2.44,20.11-3.88a4.83,4.83,0,0,1,9.57.87C192.19,412.42,176.2,415.73,162.51,415.73Zm20-12.65Zm-40.08,0Z"/><path class="cls-1" d="M162.51,411.76a5.47,5.47,0,0,1-.69-.05,4.83,4.83,0,0,1-4.08-5.46c.24-1.68,6.14-41.35,25.89-65.53a4.82,4.82,0,0,1,7.47,6.1C173,369,167.33,407.24,167.28,407.62A4.84,4.84,0,0,1,162.51,411.76Z"/><path class="cls-2" d="M171,366.59s-4.23-23.45-30.75-26.1-41.09,13.05-41.09,13.05,17,16.56,34.55,20.1S171,366.59,171,366.59Z"/><path class="cls-1" d="M141.29,379.18a43.72,43.72,0,0,1-8.57-.82c-18.77-3.77-36.24-20.65-37-21.37a4.82,4.82,0,0,1-.17-6.73c.67-.71,16.55-17.42,45.11-14.57,23.84,2.39,33.33,20.7,35,30a4.83,4.83,0,0,1-2.46,5.11C172.5,371.23,157.5,379.18,141.29,379.18Zm-34.81-25.56c5.77,4.8,17,13.05,28.14,15.29,11.58,2.33,24.49-2.29,30.56-4.92-2.22-5.82-8.61-17-25.45-18.7C123.31,343.65,112,349.66,106.48,353.62Z"/><path class="cls-1" d="M170.32,369a4.89,4.89,0,0,1-1.75-.33c-8.17-3.19-28.7-8.07-37.48-9.26a4.82,4.82,0,1,1,1.28-9.55c8.55,1.15,30.19,6.11,39.7,9.82a4.83,4.83,0,0,1-1.75,9.32Z"/></g></g></svg>