<svg xmlns="http://www.w3.org/2000/svg" viewBox="0 0 688.97 447.31"><defs><style>.cls-1{fill:#d3d3d3;}.cls-2{fill:#2c2c2c;}.cls-3{fill:#fff;}.cls-4{fill:#aeaeae;}.cls-5{fill:#e1e1e1;}.cls-6{fill:#fed443;}.cls-7{fill:#004b93;}</style></defs><g id="Layer_2" data-name="Layer 2"><g id="Capa_1" data-name="Capa 1"><path class="cls-1" d="M151.08,120H542.31a10.17,10.17,0,0,1,10.17,10.17v271.4a0,0,0,0,1,0,0H140.91a0,0,0,0,1,0,0V130.18A10.17,10.17,0,0,1,151.08,120Z"/><path class="cls-2" d="M552.47,408.53H140.91a7,7,0,0,1-7-6.95V138.14A25.11,25.11,0,0,1,159,113.06H534.35a25.11,25.11,0,0,1,25.08,25.08V401.58A7,7,0,0,1,552.47,408.53Zm-404.61-13.9H545.52V138.14A11.18,11.18,0,0,0,534.35,127H159a11.18,11.18,0,0,0-11.17,11.17Z"/><rect class="cls-3" x="239.76" y="67.89" width="213.87" height="364.84" rx="1.6" transform="translate(597 -96.38) rotate(90)"/><path class="cls-3" d="M309.5,234a12,12,0,0,1,2.89,7.94c0,6.19-4.42,11.22-9.88,11.22V235.46Z"/><path class="cls-2" d="M299.68,259.38a4.18,4.18,0,0,1,0-8.35c4.28,0,8.59-2.58,8.59-8.34a11,11,0,0,0-2.61-7.27,4.17,4.17,0,1,1,6.26-5.52,19.27,19.27,0,0,1,4.69,12.79C316.61,252.36,309.49,259.38,299.68,259.38Z"/><path class="cls-4" d="M299.06,356.15l1.69-19.25,4,20.35h18.42s-6.59-38.24-9.61-53.6a11.51,11.51,0,0,0-6.36-8.18l-18.28-8.67H244.59l-18.29,8.67a11.56,11.56,0,0,0-6.36,8.18c-3,15.36-9.6,53.6-9.6,53.6h18.42l4-20.35,1.68,19.25Z"/><polygon class="cls-1" points="250.06 301.37 266.54 294.18 283.85 301.53 288.94 286.8 277.43 280.77 267.31 293.39 265.51 293.03 256.31 281.88 244.59 287.53 250.06 301.37"/><polygon class="cls-3" points="266.54 294.18 276.47 299.03 272.38 310.39 277.32 356.19 256.35 356.19 261.63 310.72 257.05 298.44 266.54 294.18"/><polygon class="cls-3" points="255.73 273.53 255.73 281.19 266.54 294.28 277.89 281.19 277.89 273.53 255.73 273.53"/><path class="cls-2" d="M255.73,285.36a4.17,4.17,0,0,1-4.17-4.17v-9.75a4.17,4.17,0,1,1,8.34,0v9.75A4.17,4.17,0,0,1,255.73,285.36Z"/><path class="cls-2" d="M266.79,298.46h-.32c-2.18,0-3.18-.05-13.58-14.87a4.17,4.17,0,0,1,6.83-4.79c2.28,3.24,5,6.91,6.87,9.37,2.05-2.55,5-6.42,7.47-9.84a4.17,4.17,0,0,1,6.75,4.91C270.22,297.78,268.86,298.46,266.79,298.46Z"/><path class="cls-5" d="M267.31,273.53l-.46,0-.45,0Z"/><path class="cls-3" d="M300.59,238l-.08-23.58-8.6-22.21-37.68-2.78-17.46,10.31-3.65,10.12-2.69,16.86L233.12,238c0,19.46,15.06,35.25,33.73,35.5C285.53,273.26,300.59,257.47,300.59,238Z"/><path class="cls-2" d="M266.91,277.69c-20.82-.28-37.7-17.81-38-39.17l-2.58-10.82a4.27,4.27,0,0,1-.07-1.63l2.7-16.86a4,4,0,0,1,.19-.76l3.66-10.11a4.16,4.16,0,0,1,1.8-2.18l17.45-10.31a4.25,4.25,0,0,1,2.43-.57l37.69,2.78a4.16,4.16,0,0,1,3.58,2.65l8.6,22.21a4.07,4.07,0,0,1,.28,1.5l.08,23.58h0C304.76,259.61,287.78,277.4,266.91,277.69Zm-32.23-51.12,2.49,10.48a3.89,3.89,0,0,1,.12,1c0,17.06,13.29,31.11,29.62,31.33,16.22-.22,29.5-14.27,29.51-31.32l-.08-22.8-7.37-19-33.75-2.48-15,8.88-3,8.34Z"/><path class="cls-3" d="M224.65,234a12,12,0,0,0-2.9,7.94c0,6.19,4.43,11.22,9.88,11.22V235.46Z"/><path class="cls-2" d="M234.46,259.38c-9.81,0-16.93-7-16.93-16.69a19.32,19.32,0,0,1,4.69-12.79,4.18,4.18,0,0,1,6.27,5.52,10.91,10.91,0,0,0-2.62,7.27c0,5.76,4.32,8.34,8.59,8.34a4.18,4.18,0,1,1,0,8.35Z"/><ellipse class="cls-2" cx="252.43" cy="234.14" rx="2.76" ry="5.29"/><ellipse class="cls-2" cx="280.31" cy="234.14" rx="2.76" ry="5.29"/><path class="cls-4" d="M224.51,231.83s-20-37.86,16.53-58c34.06-18.74,55.83,6.84,55.83,6.84,21.42,3.57,14.68,48,13.76,50l-10.12,5.73c-8.86-9.65-11-33.1-11-33.1-21.88,15.08-49.09,11.31-49.09,11.31l-6.85,21.79Z"/><path class="cls-2" d="M300.51,240.59a4.17,4.17,0,0,1-3.07-1.35c-6.69-7.28-9.84-20.9-11.19-29-17,9.27-35.29,9.33-42.84,8.87l-5.85,18.58a4.17,4.17,0,0,1-5.86,2.47l-9.07-4.59a4.24,4.24,0,0,1-1.81-1.77c-.22-.42-21.46-41.74,18.21-63.57,32.3-17.77,54.91,1.66,60,6.68,5.38,1.33,9.74,4.93,12.67,10.49,8.23,15.56,3.81,42.8,2.76,45.07a4.14,4.14,0,0,1-1.73,1.88l-10.12,5.72A4.19,4.19,0,0,1,300.51,240.59Zm-11-41.44a4.08,4.08,0,0,1,1.77.4,4.19,4.19,0,0,1,2.39,3.4c.49,5.47,2.83,20,7.93,28l5.38-3c1.12-6.2,3.05-27.6-3.41-37.87a10.53,10.53,0,0,0-7.41-5.26,4.16,4.16,0,0,1-2.49-1.41c-.8-.93-20.1-22.7-50.64-5.89-29.58,16.27-18.28,45-15.41,51.2l3.44,1.74,5.38-17.09A4.16,4.16,0,0,1,241,210.5c.26,0,25.93,3.32,46.15-10.61A4.18,4.18,0,0,1,289.53,199.15Z"/><path class="cls-2" d="M277.89,285.36a4.18,4.18,0,0,1-4.18-4.17v-9.73a4.18,4.18,0,0,1,8.35,0v9.73A4.17,4.17,0,0,1,277.89,285.36Z"/><path class="cls-2" d="M288.93,291a4.09,4.09,0,0,1-1.88-.45L276,284.9a4.17,4.17,0,1,1,3.78-7.43l11.05,5.61a4.17,4.17,0,0,1-1.9,7.89Z"/><path class="cls-2" d="M323.18,361.42a4.17,4.17,0,0,1-4.1-3.46c-.07-.39-6.62-38.37-9.59-53.51a7.36,7.36,0,0,0-4.06-5.21l-18.28-8.67a4.17,4.17,0,0,1,3.57-7.54L309,291.7a15.77,15.77,0,0,1,8.67,11.14c3,15.24,9.55,53.32,9.62,53.7a4.17,4.17,0,0,1-3.4,4.82A4.37,4.37,0,0,1,323.18,361.42Z"/><path class="cls-2" d="M304.76,361.42a4.17,4.17,0,0,1-3.41-1.78,4.23,4.23,0,0,1-2.65.66,4.16,4.16,0,0,1-3.79-4.52l1.68-19.24a4.17,4.17,0,0,1,8.25-.44l4,20.34a4.17,4.17,0,0,1-3.28,4.9A3.86,3.86,0,0,1,304.76,361.42Z"/><path class="cls-2" d="M277.43,361.42a4.17,4.17,0,0,1-4.14-3.71l-5.19-46.53a4,4,0,0,1,.22-1.88l4.23-11.69a4.17,4.17,0,0,1,7.85,2.84l-3.9,10.77,5.08,45.57a4.17,4.17,0,0,1-3.69,4.6A3.55,3.55,0,0,1,277.43,361.42Z"/><path class="cls-2" d="M271.45,314.89h-9.82a4.17,4.17,0,0,1,0-8.34h9.82a4.17,4.17,0,0,1,0,8.34Z"/><path class="cls-2" d="M283.85,305.7a4.24,4.24,0,0,1-1.61-.32l-17.31-7.25a4.17,4.17,0,1,1,3.22-7.7L281.36,296,285,285.44a4.17,4.17,0,0,1,7.89,2.72l-5.09,14.73a4.13,4.13,0,0,1-2.24,2.45A4.19,4.19,0,0,1,283.85,305.7Z"/><path class="cls-2" d="M244.59,291a4.17,4.17,0,0,1-1.89-7.89l11.05-5.61a4.17,4.17,0,1,1,3.78,7.43l-11,5.62A4.13,4.13,0,0,1,244.59,291Z"/><path class="cls-2" d="M210.34,361.42a4.34,4.34,0,0,1-.71-.06,4.17,4.17,0,0,1-3.4-4.82c.06-.38,6.63-38.46,9.62-53.7a15.72,15.72,0,0,1,8.67-11.14L242.8,283a4.17,4.17,0,0,1,3.58,7.54l-18.29,8.67a7.34,7.34,0,0,0-4.05,5.21c-3,15.14-9.52,53.12-9.59,53.51A4.17,4.17,0,0,1,210.34,361.42Z"/><path class="cls-2" d="M228.76,361.42a3.71,3.71,0,0,1-.81-.08,4.18,4.18,0,0,1-3.29-4.9l4-20.34a4.17,4.17,0,0,1,8.25.44l1.68,19.24a4.18,4.18,0,0,1-6.44,3.86A4.18,4.18,0,0,1,228.76,361.42Z"/><path class="cls-2" d="M256.23,361.42a3.55,3.55,0,0,1-.46,0,4.17,4.17,0,0,1-3.69-4.6l5.09-45.57-3.9-10.77a4.17,4.17,0,0,1,7.84-2.84l4.23,11.69a4.14,4.14,0,0,1,.23,1.88l-5.19,46.53A4.18,4.18,0,0,1,256.23,361.42Z"/><path class="cls-2" d="M271.9,314.89h-9.82a4.17,4.17,0,1,1,0-8.34h9.82a4.17,4.17,0,0,1,0,8.34Z"/><path class="cls-2" d="M249.68,305.7a4.12,4.12,0,0,1-1.68-.35,4.18,4.18,0,0,1-2.25-2.4l-5.08-14a4.17,4.17,0,0,1,7.84-2.85L252.1,296l13.28-5.56a4.17,4.17,0,0,1,3.22,7.7l-17.31,7.25A4.32,4.32,0,0,1,249.68,305.7Z"/><path class="cls-2" d="M526.26,361.42H167.12a7,7,0,0,1-7-7V146.22a7,7,0,0,1,7-7H526.26a7,7,0,0,1,7,7V354.4A7,7,0,0,1,526.26,361.42Zm-357.82-8.34h356.5V147.55H168.44Z"/><path class="cls-6" d="M392,379a19.16,19.16,0,0,1-18.91,16.18H320.33A19.16,19.16,0,0,1,301.42,379H105.86v28.12a31,31,0,0,0,31,31H556.51a31,31,0,0,0,31-31V379Z"/><path class="cls-2" d="M556.51,445.08H136.87a38,38,0,0,1-38-38V379a7,7,0,0,1,7-6.95H301.42a7,7,0,0,1,6.87,5.87,12.13,12.13,0,0,0,12,10.3h52.72a12.12,12.12,0,0,0,12-10.3,7,7,0,0,1,6.87-5.87H587.52a7,7,0,0,1,7,6.95v28.12A38,38,0,0,1,556.51,445.08ZM112.82,386v21.16a24.08,24.08,0,0,0,24.05,24.05H556.51a24.08,24.08,0,0,0,24-24.05V386H397.2a25.94,25.94,0,0,1-24.15,16.17H320.33A25.94,25.94,0,0,1,296.18,386Z"/><path class="cls-2" d="M682,447.31H7A7,7,0,0,1,7,433.4H682a7,7,0,0,1,0,13.91Z"/><path class="cls-7" d="M377.36,7H615.21a31.74,31.74,0,0,1,31.73,31.73V187.92a31.73,31.73,0,0,1-31.73,31.72H461.38l-61.11,45.24V219.64H377.36a31.73,31.73,0,0,1-31.73-31.72V38.68A31.74,31.74,0,0,1,377.36,7Z"/><path class="cls-2" d="M400.27,271.84a7,7,0,0,1-6.95-7V226.6h-16a38.73,38.73,0,0,1-38.68-38.68V38.68A38.72,38.72,0,0,1,377.36,0H615.21a38.72,38.72,0,0,1,38.68,38.68V187.92a38.73,38.73,0,0,1-38.68,38.68H463.67l-59.26,43.87A6.9,6.9,0,0,1,400.27,271.84ZM377.36,13.91a24.8,24.8,0,0,0-24.77,24.77V187.92a24.8,24.8,0,0,0,24.77,24.77h22.91a7,7,0,0,1,7,6.95v31.44l50-37a7,7,0,0,1,4.14-1.36H615.21A24.81,24.81,0,0,0,640,187.92V38.68a24.8,24.8,0,0,0-24.78-24.77Z"/><circle class="cls-3" cx="496.29" cy="113.35" r="78.9"/><path class="cls-2" d="M458.13,113.35V74.49a4.5,4.5,0,0,1,6.76-3.9L498.54,90l33.65,19.42a4.51,4.51,0,0,1,0,7.81l-33.65,19.43L464.89,156.1a4.5,4.5,0,0,1-6.76-3.9Z"/><path class="cls-2" d="M496.29,196.41a83.07,83.07,0,1,1,83.06-83.06A83.16,83.16,0,0,1,496.29,196.41Zm0-157.79A74.73,74.73,0,1,0,571,113.35,74.81,74.81,0,0,0,496.29,38.62Z"/></g></g></svg>