<svg xmlns="http://www.w3.org/2000/svg" viewBox="0 0 322.62 287.34"><defs><style>.cls-1{fill:none;}.cls-1,.cls-2,.cls-3,.cls-4,.cls-5{stroke:#37474f;stroke-linecap:round;stroke-linejoin:round;stroke-width:5.04px;}.cls-2{fill:#004b93;}.cls-3{fill:#64b5f6;}.cls-4{fill:#ffca28;}.cls-5{fill:#fed443;}</style></defs><g id="Layer_2" data-name="Layer 2"><g id="Capa_1" data-name="Capa 1"><g id="Webinar"><circle class="cls-1" cx="80.67" cy="219.28" r="25.2"/><path class="cls-1" d="M68,241.08V247h0l-20.3,9.22a12.61,12.61,0,0,0-7.39,11.48v17.09"/><path class="cls-1" d="M121,284.82v-17.1a12.59,12.59,0,0,0-7.38-11.47L93.23,247h0v-5.84"/><circle class="cls-1" cx="161.32" cy="219.28" r="25.2"/><path class="cls-1" d="M148.67,241.08V247h0l-20.31,9.22A12.61,12.61,0,0,0,121,267.73v17.09"/><path class="cls-1" d="M201.64,284.82v-17.1a12.6,12.6,0,0,0-7.39-11.47L173.88,247h0v-5.84"/><circle class="cls-1" cx="241.98" cy="219.28" r="25.2"/><path class="cls-1" d="M229.33,241.08V247h0L209,256.25a12.61,12.61,0,0,0-7.39,11.48v17.09"/><path class="cls-1" d="M282.29,284.82v-17.1a12.6,12.6,0,0,0-7.38-11.47L254.53,247h0v-5.84"/><circle class="cls-1" cx="161.32" cy="78.13" r="30.25"/><path class="cls-2" d="M211.73,184V133.58a25.2,25.2,0,0,0-25.2-25.2H179l-17.65,20.16-17.64-20.16h-7.56a25.21,25.21,0,0,0-25.21,25.2V184"/><line class="cls-1" x1="161.32" y1="128.54" x2="161.32" y2="153.75"/><line class="cls-1" x1="131.08" y1="183.99" x2="131.08" y2="141.15"/><line class="cls-1" x1="191.57" y1="183.99" x2="191.57" y2="141.15"/><path class="cls-1" d="M45.38,219.28H30.25a12.61,12.61,0,0,1-12.61-12.6V90.74"/><line class="cls-1" x1="126.04" y1="219.28" x2="115.96" y2="219.28"/><line class="cls-1" x1="206.69" y1="219.28" x2="196.61" y2="219.28"/><path class="cls-1" d="M305,27.73v179a12.61,12.61,0,0,1-12.61,12.6H277.26"/><line class="cls-3" x1="17.64" y1="45.37" x2="17.64" y2="27.73"/><line class="cls-4" x1="17.64" y1="75.61" x2="17.64" y2="60.49"/><rect class="cls-5" x="2.52" y="2.52" width="317.58" height="15.12" rx="1"/><rect class="cls-5" x="224.33" y="47.89" width="50.41" height="50.41" rx="1"/><rect class="cls-5" x="47.9" y="47.89" width="50.41" height="50.41" rx="1"/></g></g></g></svg>