<svg xmlns="http://www.w3.org/2000/svg" viewBox="0 0 307.5 310.02"><defs><style>.cls-1{fill:#004b93;}.cls-1,.cls-2,.cls-3,.cls-4{stroke:#37474f;stroke-linecap:round;stroke-linejoin:round;stroke-width:5.04px;}.cls-2{fill:none;}.cls-3{fill:#fed443;}.cls-4{fill:#fff;}</style></defs><g id="Layer_2" data-name="Layer 2"><g id="Capa_1" data-name="Capa 1"><g id="Online_Course" data-name="Online Course"><path class="cls-1" d="M274.73,88.22H173.91a5,5,0,0,0-5,5v35.92a9.89,9.89,0,0,1,3.67,2.32,10.07,10.07,0,0,1,0,14.25l-3.67,3.68v14.4a5,5,0,0,0,5,5H274.73a5,5,0,0,0,5-5V93.26A5,5,0,0,0,274.73,88.22Z"/><path class="cls-2" d="M168.87,162.33v1.5a5,5,0,0,0,5,5H274.73a5,5,0,0,0,5-5V93.26a5,5,0,0,0-5-5H173.91a5,5,0,0,0-5,5V118.8"/><line class="cls-2" x1="189.04" y1="110.9" x2="259.61" y2="110.9"/><line class="cls-2" x1="189.04" y1="128.54" x2="259.61" y2="128.54"/><line class="cls-2" x1="189.04" y1="146.19" x2="224.32" y2="146.19"/><line class="cls-2" x1="123.5" y1="277.25" x2="123.5" y2="259.61"/><line class="cls-2" x1="183.99" y1="259.61" x2="183.99" y2="277.25"/><rect class="cls-2" x="98.3" y="287.33" width="110.9" height="20.16" rx="1"/><line class="cls-2" x1="2.52" y1="224.32" x2="304.98" y2="224.32"/><circle class="cls-2" cx="78.13" cy="108.38" r="30.25"/><path class="cls-2" d="M155.33,128.54H173.5a2,2,0,0,1,2,2v16.16a2,2,0,0,1-2,2H155.33a0,0,0,0,1,0,0V128.54A0,0,0,0,1,155.33,128.54Z" transform="translate(-49.57 157.57) rotate(-45)"/><path class="cls-3" d="M108.38,214.24v-47.1l14.26,14.26a10.09,10.09,0,0,0,14.26,0l28.51-28.52-14.25-14.25L129.77,160l-13.59-13.59a26.61,26.61,0,0,0-18.82-7.79H95.78L78.13,158.79,60.49,138.63H54.34a26.61,26.61,0,0,0-26.61,26.61v49"/><line class="cls-2" x1="78.13" y1="158.79" x2="78.13" y2="183.99"/><line class="cls-2" x1="47.89" y1="214.24" x2="47.89" y2="166.35"/><path class="cls-2" d="M2.52,123.5V224.32a25.21,25.21,0,0,0,25.21,25.21h252A25.21,25.21,0,0,0,305,224.32V63a25.21,25.21,0,0,0-25.21-25.2H269.69"/><line class="cls-2" x1="2.52" y1="93.26" x2="2.52" y2="108.38"/><path class="cls-2" d="M179,37.81H27.73A25.21,25.21,0,0,0,2.52,63V78.13"/><circle class="cls-3" cx="224.32" cy="37.81" r="35.29"/><line class="cls-2" x1="304.98" y1="63.01" x2="262.04" y2="63.01"/><line class="cls-2" x1="186.6" y1="63.01" x2="2.52" y2="63.01"/><path class="cls-4" d="M243,37,213.1,18.58a1,1,0,0,0-1.52.85V56.18a1,1,0,0,0,1.52.85L243,38.66A1,1,0,0,0,243,37Z"/></g></g></g></svg>