<svg xmlns="http://www.w3.org/2000/svg" viewBox="0 0 307.49 284.81"><defs><style>.cls-1{fill:none;}.cls-1,.cls-2,.cls-3{stroke:#37474f;stroke-linecap:round;stroke-linejoin:round;stroke-width:5.04px;}.cls-2{fill:#fed443;}.cls-3{fill:#004b93;}</style></defs><g id="Layer_2" data-name="Layer 2"><g id="Capa_1" data-name="Capa 1"><g id="Certificate"><path class="cls-1" d="M37.81,47.89H2.52V25.2A22.69,22.69,0,0,1,25.2,2.52h0"/><path class="cls-1" d="M93.26,259.61V236.92H299.94v22.69a22.68,22.68,0,0,1-22.69,22.68H70.57A22.68,22.68,0,0,0,93.26,259.61Z"/><path class="cls-2" d="M301,99.25l-6.76-6.75V83a13.68,13.68,0,0,0-13.67-13.68H271l-6.76-6.75a13.68,13.68,0,0,0-19.34,0l-6.75,6.75h-9.55A13.68,13.68,0,0,0,214.91,83V92.5l-6.75,6.75a13.68,13.68,0,0,0,0,19.34l6.75,6.76v9.55a13.67,13.67,0,0,0,13.68,13.67h9.55l6.75,6.76a13.68,13.68,0,0,0,19.34,0l6.76-6.76h9.55a13.67,13.67,0,0,0,13.67-13.67v-9.55l6.76-6.76A13.68,13.68,0,0,0,301,99.25Z"/><path class="cls-3" d="M271,148.57l-6.76,6.76a13.68,13.68,0,0,1-19.34,0l-6.75-6.76H234.4V192.1L254.56,177l20.17,15.12V148.57Z"/><path class="cls-1" d="M47.89,93.26V257.09a25.14,25.14,0,0,0,23.94,25.08"/><line class="cls-1" x1="47.89" y1="63.01" x2="47.89" y2="78.13"/><path class="cls-1" d="M254.56,48.43V27.73A25.21,25.21,0,0,0,229.36,2.52H25.2A22.69,22.69,0,0,1,47.89,25.2V47.89"/><line class="cls-1" x1="254.57" y1="226.84" x2="254.56" y2="192.1"/><line class="cls-1" x1="113.42" y1="146.19" x2="196.6" y2="146.19"/><rect class="cls-3" x="105.86" y="37.81" width="90.74" height="30.25" rx="5.04"/><line class="cls-1" x1="113.42" y1="171.39" x2="196.6" y2="171.39"/><line class="cls-1" x1="113.42" y1="196.6" x2="196.6" y2="196.6"/><line class="cls-1" x1="151.23" y1="120.98" x2="113.42" y2="120.98"/><circle class="cls-1" cx="254.56" cy="108.92" r="30.25"/></g></g></g></svg>