<svg xmlns="http://www.w3.org/2000/svg" viewBox="0 0 701.36 624.65"><defs><style>.cls-1{fill:#004b93;}.cls-1,.cls-2,.cls-3{stroke:#37474f;stroke-linecap:round;stroke-linejoin:round;stroke-width:10.96px;}.cls-2{fill:none;}.cls-3{fill:#fff;}.cls-4{fill:#fed443;}</style></defs><g id="Layer_2" data-name="Layer 2"><g id="Capa_1" data-name="Capa 1"><g id="Vision"><path class="cls-1" d="M580.81,312.32s-103,131.51-230.13,131.51S120.55,312.32,120.55,312.32s103-131.5,230.13-131.5S580.81,312.32,580.81,312.32Z"/><line class="cls-2" x1="350.68" y1="5.48" x2="350.68" y2="93.15"/><line class="cls-2" x1="350.68" y1="531.5" x2="350.68" y2="619.17"/><line class="cls-2" x1="82.19" y1="312.32" x2="5.48" y2="312.32"/><line class="cls-2" x1="695.88" y1="312.32" x2="619.17" y2="312.32"/><line class="cls-2" x1="195.7" y1="467.3" x2="149.21" y2="513.8"/><line class="cls-2" x1="552.15" y1="110.85" x2="505.66" y2="157.34"/><line class="cls-2" x1="505.66" y1="467.3" x2="552.15" y2="513.8"/><line class="cls-2" x1="149.21" y1="110.85" x2="195.7" y2="157.34"/><circle class="cls-3" cx="350.68" cy="312.32" r="131.5"/><circle class="cls-4" cx="350.68" cy="312.32" r="87.67"/><path class="cls-2" d="M274.74,268.49A87.86,87.86,0,0,1,287.1,252"/><path class="cls-2" d="M308.2,235.61a87.51,87.51,0,1,1-42.43,54.79"/><circle class="cls-3" cx="350.68" cy="312.32" r="43.83"/></g></g></g></svg>