<svg xmlns="http://www.w3.org/2000/svg" viewBox="0 0 728.69 832.01"><defs><style>.cls-1{fill:#004b94;}.cls-2{fill:#fff;}</style></defs><g id="Layer_2" data-name="Layer 2"><g id="Capa_1" data-name="Capa 1"><g id="illustration"><path class="cls-1" d="M607.59,440.64S540.05,277.55,340.71,277.55c-163.1,0-232.29,163.09-232.29,163.09S148,618.57,360.48,618.57,607.59,440.64,607.59,440.64Z"/><path class="cls-2" d="M104.94,480.57l-10.85-27.7a283.6,283.6,0,0,1-19.35-92.11l23.18-.94a260.58,260.58,0,0,0,17.77,84.59l-7.94,3.11,8.67,3.51ZM582.15,411a262.06,262.06,0,0,0-58.44-66.39l14.6-18A285.31,285.31,0,0,1,601.9,398.8Zm55.71-1.82-22.68-4.9A263.08,263.08,0,0,0,619,315.9L642,313a287.6,287.6,0,0,1,2.27,36.12A284.63,284.63,0,0,1,637.86,409.16ZM162.73,375.63l-17.44-15.31A285.28,285.28,0,0,1,220,299.68l11.37,20.22A261.89,261.89,0,0,0,162.73,375.63Zm283.83-74.24a260.71,260.71,0,0,0-87.18-14.89,264.29,264.29,0,0,0-44.68,3.8l-3.94-22.86a286.89,286.89,0,0,1,48.62-4.14,283.79,283.79,0,0,1,94.91,16.21ZM109.21,272.12,87,265.3a283.52,283.52,0,0,1,43.51-85.89l18.63,13.84A260,260,0,0,0,109.21,272.12Zm483.91-40.77a261.59,261.59,0,0,0-52.61-71.09l16.07-16.74a285,285,0,0,1,57.26,77.38Zm-380-99.23-13-19.23a282.92,282.92,0,0,1,87.77-39.61l5.81,22.47A259.53,259.53,0,0,0,213.07,132.12Zm254.25-21.46a259.38,259.38,0,0,0-85.53-22.28l2-23.12a282.71,282.71,0,0,1,93.16,24.27Z"/><path class="cls-2" d="M335,832a282.59,282.59,0,0,1-93.15-24.27l9.58-21.13A259.51,259.51,0,0,0,337,808.89Zm95.91-8-5.81-22.47a260,260,0,0,0,80.59-36.36l13,19.22A283.13,283.13,0,0,1,430.9,824ZM162.17,753.76a285.29,285.29,0,0,1-57.26-77.38l20.72-10.46A261.76,261.76,0,0,0,178.23,737Zm426.05-35.9L569.59,704a260.16,260.16,0,0,0,39.95-78.87L631.72,632A283,283,0,0,1,588.22,717.86ZM359.38,634a283.88,283.88,0,0,1-94.91-16.21l7.73-21.88a260.79,260.79,0,0,0,87.18,14.89A264.06,264.06,0,0,0,404,607L408,629.85A287.68,287.68,0,0,1,359.38,634ZM498.71,597.6l-11.37-20.22A262.09,262.09,0,0,0,556,521.65L573.46,537A285.28,285.28,0,0,1,498.71,597.6ZM76.77,584.28a286.52,286.52,0,0,1,4.12-96.17l22.69,4.9a261.54,261.54,0,0,0-5.87,55.17,265.62,265.62,0,0,0,2.08,33.19Zm103.68-13.55a285.53,285.53,0,0,1-63.59-72.25l19.75-12.18a262.49,262.49,0,0,0,58.44,66.4Zm440.37-33.28a260.49,260.49,0,0,0-17.76-84.59l7.92-3.09-8.65-3.5,11.58-29.37,10.77,27.51A284.27,284.27,0,0,1,644,536.51Z"/><path class="cls-2" d="M359.38,637.85c-119.69,0-225.24-72.06-268.89-183.57l-2.21-5.64L90.49,443c43.64-111.51,149.19-183.57,268.89-183.57S584.62,331.49,628.27,443l2.21,5.64-2.21,5.64C584.62,565.79,479.07,637.85,359.38,637.85ZM121.57,448.64c40.28,96.36,133,158.27,237.81,158.27S556.9,545,597.19,448.64c-40.29-96.36-133-158.27-237.81-158.27S161.85,352.28,121.57,448.64Z"/><path class="cls-2" d="M360.28,526.79a89.92,89.92,0,1,1,89.92-89.92A90,90,0,0,1,360.28,526.79Zm0-141.17a51.25,51.25,0,1,0,51.25,51.25A51.32,51.32,0,0,0,360.28,385.62Z"/><polygon class="cls-2" points="706.55 237.64 713.12 256.25 728.69 268.36 710.08 274.94 696.63 293.72 691.39 271.9 675.82 259.79 694.42 253.21 706.55 237.64"/><polygon class="cls-2" points="113.08 14.92 142.81 15.53 168.15 0 167.54 29.72 186.89 58.65 153.35 54.46 128.03 69.99 128.6 40.27 113.08 14.92"/><polygon class="cls-2" points="505.55 23.15 512.12 41.76 527.7 53.87 509.08 60.45 495.63 79.23 490.4 57.42 474.82 45.3 493.43 38.72 505.55 23.15"/><polygon class="cls-2" points="4.97 258.05 23.01 266.03 42.51 263.01 34.53 281.06 38.97 303.73 19.5 292.57 0 295.6 7.97 277.55 4.97 258.05"/><polygon class="cls-2" points="351.87 175.52 364.52 172.78 373.7 163.65 376.44 176.3 387.55 186.61 372.92 188.22 363.75 197.35 361 184.7 351.87 175.52"/><polygon class="cls-2" points="236.04 682.45 248.69 679.72 257.87 670.59 260.61 683.24 271.71 693.55 257.09 695.15 247.91 704.29 245.17 691.63 236.04 682.45"/></g></g></g></svg>